<svg xmlns="http://www.w3.org/2000/svg" width="280" height="170.385" viewBox="0 0 280 170.385">
  <g id="accordion" transform="translate(-1517 -718)">
    <g id="组_62" data-name="组 62">
      <rect id="矩形_78" data-name="矩形 78" width="280" height="40" transform="translate(1517 718)" fill="#fff" />
      <text id="标题" transform="translate(1544 743)" fill="#949494" font-size="12"
        font-family="MicrosoftYaHei, Microsoft YaHei">
        <tspan x="-12" y="0">标题</tspan>
      </text>
      <path id="ARROW"
        d="M312.83,198.245a.355.355,0,0,0,.5,0l5.337-5.337a.355.355,0,0,0,0-.5l-5.337-5.337a.356.356,0,1,0-.5.5l5.085,5.085-5.085,5.085a.355.355,0,0,0,0,.5Z"
        transform="translate(1971.681 421.943) rotate(90)" fill="rgba(35,31,32,0.3)" />
      <line id="直线_1" data-name="直线 1" x2="280" transform="translate(1517 757.885)" fill="none"
        stroke="rgba(112,112,112,0.3)" stroke-width="1" />
    </g>
    <g id="组_63" data-name="组 63" transform="translate(0 90)">
      <rect id="矩形_78-2" data-name="矩形 78" width="280" height="40" transform="translate(1517 718)" fill="#fff" />
      <text id="标题-2" data-name="标题" transform="translate(1544 743)" fill="#949494" font-size="12"
        font-family="MicrosoftYaHei, Microsoft YaHei">
        <tspan x="-12" y="0">标题</tspan>
      </text>
      <path id="ARROW-2" data-name="ARROW"
        d="M312.83,198.245a.355.355,0,0,0,.5,0l5.337-5.337a.355.355,0,0,0,0-.5l-5.337-5.337a.356.356,0,1,0-.5.5l5.085,5.085-5.085,5.085a.355.355,0,0,0,0,.5Z"
        transform="translate(1463.275 545.035)" fill="rgba(35,31,32,0.3)" />
      <line id="直线_1-2" data-name="直线 1" x2="280" transform="translate(1517 757.885)" fill="none"
        stroke="rgba(112,112,112,0.3)" stroke-width="1" />
    </g>
    <g id="组_64" data-name="组 64" transform="translate(0 130)">
      <rect id="矩形_78-3" data-name="矩形 78" width="280" height="40" transform="translate(1517 718)" fill="#fff" />
      <text id="标题-3" data-name="标题" transform="translate(1544 743)" fill="#949494" font-size="12"
        font-family="MicrosoftYaHei, Microsoft YaHei">
        <tspan x="-12" y="0">标题</tspan>
      </text>
      <path id="ARROW-3" data-name="ARROW"
        d="M312.83,198.245a.355.355,0,0,0,.5,0l5.337-5.337a.355.355,0,0,0,0-.5l-5.337-5.337a.356.356,0,1,0-.5.5l5.085,5.085-5.085,5.085a.355.355,0,0,0,0,.5Z"
        transform="translate(1463.275 545.035)" fill="rgba(35,31,32,0.3)" />
      <line id="直线_1-3" data-name="直线 1" x2="280" transform="translate(1517 757.885)" fill="none"
        stroke="rgba(112,112,112,0.3)" stroke-width="1" />
    </g>
    <text id="内容" transform="translate(1549 788)" fill="#949494" font-size="12"
      font-family="MicrosoftYaHei, Microsoft YaHei">
      <tspan x="-12" y="0">内容</tspan>
    </text>
  </g>
</svg>