<svg xmlns="http://www.w3.org/2000/svg" width="308" height="220" viewBox="0 0 308 220">
  <g id="actionSheet" transform="translate(-359 -416)">
    <rect id="矩形_46" data-name="矩形 46" width="308" height="220" transform="translate(359 416)" fill="rgba(0,0,0,0.3)" />
    <g id="组_37" data-name="组 37" transform="translate(0 1)">
      <path id="矩形_47" data-name="矩形 47" d="M3,0H257a3,3,0,0,1,3,3V40a0,0,0,0,1,0,0H0a0,0,0,0,1,0,0V3A3,3,0,0,1,3,0Z"
        transform="translate(383 487)" fill="#fff" />
      <text id="微信" transform="translate(498 513)" fill="rgba(0,0,0,0.85)" font-size="15"
        font-family="YuGothicUI-Regular, Yu Gothic UI">
        <tspan x="0" y="0">微信</tspan>
      </text>
    </g>
    <path id="矩形_47-2" data-name="矩形 47" d="M0,0H260a0,0,0,0,1,0,0V37a3,3,0,0,1-3,3H3a3,3,0,0,1-3-3V0A0,0,0,0,1,0,0Z"
      transform="translate(383 527)" fill="#fff" />
    <text id="支付宝" transform="translate(491 553)" fill="rgba(0,0,0,0.85)" font-size="15"
      font-family="YuGothicUI-Regular, Yu Gothic UI">
      <tspan x="0" y="0">支付宝</tspan>
    </text>
    <g id="组_39" data-name="组 39" transform="translate(0 99)">
      <rect id="矩形_47-3" data-name="矩形 47" width="260" height="40" rx="3" transform="translate(383 487)" fill="#fff" />
      <text id="取消" transform="translate(498 513)" fill="rgba(0,0,0,0.45)" font-size="15"
        font-family="YuGothicUI-Regular, Yu Gothic UI">
        <tspan x="0" y="0">取消</tspan>
      </text>
    </g>
    <path id="路径_19" data-name="路径 19" d="M0,0H260" transform="translate(383 527.5)" fill="none"
      stroke="rgba(112,112,112,0.2)" stroke-width="1" />
  </g>
</svg>