<svg xmlns="http://www.w3.org/2000/svg" width="131.278" height="122.513" viewBox="0 0 131.278 122.513">
  <g id="besselCurve" transform="translate(-556.361 -1298.478)">
    <g id="曲线路径" transform="translate(828.477 1161.25) rotate(99)">
      <path
        id="路径_52"
        data-name="路径 52"
        d="M322.776,172.287c-23.208-1.351-40.063-.563-50.668,2.435-13.7,3.866-21.007,15.813-18.028,27.886C257.215,215.3,270.41,223.9,289.747,223.9c33.015,0,48.439,24.475,28.224,41.649-6.41,5.443-23.907,7.3-52.066,5.143l-.357,4.678c29.4,2.252,47.744.31,55.463-6.245,24.114-20.487,5.565-49.917-31.27-49.917-34.564,0-42.6-32.565-16.367-39.974,9.99-2.815,26.394-3.59,49.119-2.262l.272-4.683Z"
        transform="translate(-66.068 -50.903)"
        fill="#5d6d7e"
      />
      <path
        id="路径_53"
        data-name="路径 53"
        d="M278.808,151.462a11.731,11.731,0,1,1,11.731-11.731A11.731,11.731,0,0,1,278.808,151.462Zm-75.077,93.846a11.731,11.731,0,1,1,11.731-11.731A11.731,11.731,0,0,1,203.731,245.308Z"
        transform="translate(-13.654 -13.654)"
        fill="none"
      />
      <path
        id="路径_54"
        data-name="路径 54"
        d="M702.077,140.154A14.077,14.077,0,1,0,688,126.077,14.077,14.077,0,0,0,702.077,140.154Zm0-4.692a9.385,9.385,0,1,1,9.385-9.385A9.385,9.385,0,0,1,702.077,135.462Z"
        transform="translate(-435.473 -0.23)"
        fill="#67c23a"
      />
      <path
        id="路径_55"
        data-name="路径 55"
        d="M190.077,780.154A14.077,14.077,0,1,0,176,766.077,14.077,14.077,0,0,0,190.077,780.154Zm0-4.692a9.385,9.385,0,1,1,9.385-9.385A9.385,9.385,0,0,1,190.077,775.462Z"
        transform="translate(0 -546.154)"
        fill="#409eff"
      />
    </g>
  </g>
</svg>
