<svg xmlns="http://www.w3.org/2000/svg" width="280" height="89" viewBox="0 0 280 89">
  <g id="组_10" data-name="组 10" transform="translate(-902 -235)">
    <g id="矩形_1" data-name="矩形 1" transform="translate(902 235)" fill="#fff" stroke="#909399" stroke-linecap="round"
      stroke-width="1">
      <rect width="88" height="40" rx="3" stroke="none" />
      <rect x="0.5" y="0.5" width="87" height="39" rx="2.5" fill="none" />
    </g>
    <g id="矩形_4" data-name="矩形 4" transform="translate(902 284)" fill="#fff" stroke="#909399" stroke-linecap="round"
      stroke-width="1">
      <rect width="88" height="40" rx="3" stroke="none" />
      <rect x="0.5" y="0.5" width="87" height="39" rx="2.5" fill="none" />
    </g>
    <g id="矩形_7" data-name="矩形 7" transform="translate(902 284)" fill="#909399" stroke="#909399" stroke-linecap="round"
      stroke-width="1">
      <rect width="88" height="40" rx="3" stroke="none" />
      <rect x="0.5" y="0.5" width="87" height="39" rx="2.5" fill="none" />
    </g>
    <g id="矩形_2" data-name="矩形 2" transform="translate(998 235)" fill="#fff" stroke="#409eff" stroke-linecap="round"
      stroke-width="1">
      <rect width="88" height="40" rx="3" stroke="none" />
      <rect x="0.5" y="0.5" width="87" height="39" rx="2.5" fill="none" />
    </g>
    <g id="矩形_5" data-name="矩形 5" transform="translate(998 284)" fill="#fff" stroke="#e6a23c" stroke-linecap="round"
      stroke-width="1">
      <rect width="88" height="40" rx="3" stroke="none" />
      <rect x="0.5" y="0.5" width="87" height="39" rx="2.5" fill="none" />
    </g>
    <g id="矩形_8" data-name="矩形 8" transform="translate(998 284)" fill="#fff" stroke="#e6a23c" stroke-linecap="round"
      stroke-width="1">
      <rect width="88" height="40" rx="3" stroke="none" />
      <rect x="0.5" y="0.5" width="87" height="39" rx="2.5" fill="none" />
    </g>
    <g id="矩形_3" data-name="矩形 3" transform="translate(1094 235)" fill="#fff" stroke="#67c23a" stroke-linecap="round"
      stroke-width="1">
      <rect width="88" height="40" rx="3" stroke="none" />
      <rect x="0.5" y="0.5" width="87" height="39" rx="2.5" fill="none" />
    </g>
    <g id="矩形_6" data-name="矩形 6" transform="translate(1094 284)" fill="#fff" stroke="#f56c6c" stroke-linecap="round"
      stroke-width="1">
      <rect width="88" height="40" rx="3" stroke="none" />
      <rect x="0.5" y="0.5" width="87" height="39" rx="2.5" fill="none" />
    </g>
    <g id="矩形_9" data-name="矩形 9" transform="translate(1094 284)" fill="#fff" stroke="#f56c6c" stroke-linecap="round"
      stroke-width="1">
      <rect width="88" height="40" rx="3" stroke="none" />
      <rect x="0.5" y="0.5" width="87" height="39" rx="2.5" fill="none" />
    </g>
    <g id="组_1" data-name="组 1" transform="translate(-10.5 -5.5)">
      <path id="路径_1" data-name="路径 1" d="M0,0V20" transform="translate(927.5 250.5)" fill="none" stroke="#909399"
        stroke-linecap="round" stroke-width="1" />
      <path id="路径_2" data-name="路径 2" d="M0,0V20" transform="translate(937.5 250.5)" fill="none" stroke="#909399"
        stroke-linecap="round" stroke-width="1" />
      <path id="路径_3" data-name="路径 3" d="M0,0V20" transform="translate(947.5 250.5)" fill="none" stroke="#909399"
        stroke-linecap="round" stroke-width="1" />
      <path id="路径_4" data-name="路径 4" d="M0,0V20" transform="translate(957.5 250.5)" fill="none" stroke="#909399"
        stroke-linecap="round" stroke-width="1" />
      <path id="路径_5" data-name="路径 5" d="M0,0V20" transform="translate(966.5 250.5)" fill="none" stroke="#909399"
        stroke-linecap="round" stroke-width="1" />
      <path id="路径_6" data-name="路径 6" d="M0,0V20" transform="translate(976.5 250.5)" fill="none" stroke="#909399"
        stroke-linecap="round" stroke-width="1" />
      <path id="路径_7" data-name="路径 7" d="M0,0V20" transform="translate(986.5 250.5)" fill="none" stroke="#909399"
        stroke-linecap="round" stroke-width="1" />
    </g>
    <g id="组_4" data-name="组 4" transform="translate(-10.5 43.5)">
      <path id="路径_1-2" data-name="路径 1" d="M0,0V20" transform="translate(927.5 250.5)" fill="none" stroke="#909399"
        stroke-linecap="round" stroke-width="1" />
      <path id="路径_2-2" data-name="路径 2" d="M0,0V20" transform="translate(937.5 250.5)" fill="none" stroke="#909399"
        stroke-linecap="round" stroke-width="1" />
      <path id="路径_3-2" data-name="路径 3" d="M0,0V20" transform="translate(947.5 250.5)" fill="none" stroke="#909399"
        stroke-linecap="round" stroke-width="1" />
      <path id="路径_4-2" data-name="路径 4" d="M0,0V20" transform="translate(957.5 250.5)" fill="none" stroke="#909399"
        stroke-linecap="round" stroke-width="1" />
      <path id="路径_5-2" data-name="路径 5" d="M0,0V20" transform="translate(966.5 250.5)" fill="none" stroke="#909399"
        stroke-linecap="round" stroke-width="1" />
      <path id="路径_6-2" data-name="路径 6" d="M0,0V20" transform="translate(976.5 250.5)" fill="none" stroke="#909399"
        stroke-linecap="round" stroke-width="1" />
      <path id="路径_7-2" data-name="路径 7" d="M0,0V20" transform="translate(986.5 250.5)" fill="none" stroke="#909399"
        stroke-linecap="round" stroke-width="1" />
    </g>
    <g id="组_7" data-name="组 7" transform="translate(917 294)">
      <path id="路径_1-3" data-name="路径 1" d="M0,0V20" fill="none" stroke="#fff" stroke-linecap="round"
        stroke-width="1" />
      <path id="路径_2-3" data-name="路径 2" d="M0,0V20" transform="translate(10)" fill="none" stroke="#fff"
        stroke-linecap="round" stroke-width="1" />
      <path id="路径_3-3" data-name="路径 3" d="M0,0V20" transform="translate(20)" fill="none" stroke="#fff"
        stroke-linecap="round" stroke-width="1" />
      <path id="路径_4-3" data-name="路径 4" d="M0,0V20" transform="translate(30)" fill="none" stroke="#fff"
        stroke-linecap="round" stroke-width="1" />
      <path id="路径_5-3" data-name="路径 5" d="M0,0V20" transform="translate(39)" fill="none" stroke="#fff"
        stroke-linecap="round" stroke-width="1" />
      <path id="路径_6-3" data-name="路径 6" d="M0,0V20" transform="translate(49)" fill="none" stroke="#fff"
        stroke-linecap="round" stroke-width="1" />
      <path id="路径_7-3" data-name="路径 7" d="M0,0V20" transform="translate(59)" fill="none" stroke="#fff"
        stroke-linecap="round" stroke-width="1" />
    </g>
    <g id="组_2" data-name="组 2" transform="translate(85.5 -5.5)">
      <path id="路径_1-4" data-name="路径 1" d="M0,0V20" transform="translate(927.5 250.5)" fill="none" stroke="#409eff"
        stroke-linecap="round" stroke-width="1" />
      <path id="路径_2-4" data-name="路径 2" d="M0,0V20" transform="translate(937.5 250.5)" fill="none" stroke="#409eff"
        stroke-linecap="round" stroke-width="1" />
      <path id="路径_3-4" data-name="路径 3" d="M0,0V20" transform="translate(947.5 250.5)" fill="none" stroke="#409eff"
        stroke-linecap="round" stroke-width="1" />
      <path id="路径_4-4" data-name="路径 4" d="M0,0V20" transform="translate(957.5 250.5)" fill="none" stroke="#409eff"
        stroke-linecap="round" stroke-width="1" />
      <path id="路径_5-4" data-name="路径 5" d="M0,0V20" transform="translate(966.5 250.5)" fill="none" stroke="#409eff"
        stroke-linecap="round" stroke-width="1" />
      <path id="路径_6-4" data-name="路径 6" d="M0,0V20" transform="translate(976.5 250.5)" fill="none" stroke="#409eff"
        stroke-linecap="round" stroke-width="1" />
      <path id="路径_7-4" data-name="路径 7" d="M0,0V20" transform="translate(986.5 250.5)" fill="none" stroke="#409eff"
        stroke-linecap="round" stroke-width="1" />
    </g>
    <g id="组_5" data-name="组 5" transform="translate(85.5 43.5)">
      <path id="路径_1-5" data-name="路径 1" d="M0,0V20" transform="translate(927.5 250.5)" fill="none" stroke="#e6a23c"
        stroke-linecap="round" stroke-width="1" />
      <path id="路径_2-5" data-name="路径 2" d="M0,0V20" transform="translate(937.5 250.5)" fill="none" stroke="#e6a23c"
        stroke-linecap="round" stroke-width="1" />
      <path id="路径_3-5" data-name="路径 3" d="M0,0V20" transform="translate(947.5 250.5)" fill="none" stroke="#e6a23c"
        stroke-linecap="round" stroke-width="1" />
      <path id="路径_4-5" data-name="路径 4" d="M0,0V20" transform="translate(957.5 250.5)" fill="none" stroke="#e6a23c"
        stroke-linecap="round" stroke-width="1" />
      <path id="路径_5-5" data-name="路径 5" d="M0,0V20" transform="translate(966.5 250.5)" fill="none" stroke="#e6a23c"
        stroke-linecap="round" stroke-width="1" />
      <path id="路径_6-5" data-name="路径 6" d="M0,0V20" transform="translate(976.5 250.5)" fill="none" stroke="#e6a23c"
        stroke-linecap="round" stroke-width="1" />
      <path id="路径_7-5" data-name="路径 7" d="M0,0V20" transform="translate(986.5 250.5)" fill="none" stroke="#e6a23c"
        stroke-linecap="round" stroke-width="1" />
    </g>
    <g id="组_8" data-name="组 8" transform="translate(1013 294)">
      <path id="路径_1-6" data-name="路径 1" d="M0,0V20" fill="none" stroke="#e6a23c" stroke-linecap="round"
        stroke-width="1" />
      <path id="路径_2-6" data-name="路径 2" d="M0,0V20" transform="translate(10)" fill="none" stroke="#e6a23c"
        stroke-linecap="round" stroke-width="1" />
      <path id="路径_3-6" data-name="路径 3" d="M0,0V20" transform="translate(20)" fill="none" stroke="#e6a23c"
        stroke-linecap="round" stroke-width="1" />
      <path id="路径_4-6" data-name="路径 4" d="M0,0V20" transform="translate(30)" fill="none" stroke="#e6a23c"
        stroke-linecap="round" stroke-width="1" />
      <path id="路径_5-6" data-name="路径 5" d="M0,0V20" transform="translate(39)" fill="none" stroke="#e6a23c"
        stroke-linecap="round" stroke-width="1" />
      <path id="路径_6-6" data-name="路径 6" d="M0,0V20" transform="translate(49)" fill="none" stroke="#e6a23c"
        stroke-linecap="round" stroke-width="1" />
      <path id="路径_7-6" data-name="路径 7" d="M0,0V20" transform="translate(59)" fill="none" stroke="#e6a23c"
        stroke-linecap="round" stroke-width="1" />
    </g>
    <g id="组_3" data-name="组 3" transform="translate(181.5 -5.5)">
      <path id="路径_1-7" data-name="路径 1" d="M0,0V20" transform="translate(927.5 250.5)" fill="none" stroke="#67c23a"
        stroke-linecap="round" stroke-width="1" />
      <path id="路径_2-7" data-name="路径 2" d="M0,0V20" transform="translate(937.5 250.5)" fill="none" stroke="#67c23a"
        stroke-linecap="round" stroke-width="1" />
      <path id="路径_3-7" data-name="路径 3" d="M0,0V20" transform="translate(947.5 250.5)" fill="none" stroke="#67c23a"
        stroke-linecap="round" stroke-width="1" />
      <path id="路径_4-7" data-name="路径 4" d="M0,0V20" transform="translate(957.5 250.5)" fill="none" stroke="#67c23a"
        stroke-linecap="round" stroke-width="1" />
      <path id="路径_5-7" data-name="路径 5" d="M0,0V20" transform="translate(966.5 250.5)" fill="none" stroke="#67c23a"
        stroke-linecap="round" stroke-width="1" />
      <path id="路径_6-7" data-name="路径 6" d="M0,0V20" transform="translate(976.5 250.5)" fill="none" stroke="#67c23a"
        stroke-linecap="round" stroke-width="1" />
      <path id="路径_7-7" data-name="路径 7" d="M0,0V20" transform="translate(986.5 250.5)" fill="none" stroke="#67c23a"
        stroke-linecap="round" stroke-width="1" />
    </g>
    <g id="组_6" data-name="组 6" transform="translate(181.5 43.5)">
      <path id="路径_1-8" data-name="路径 1" d="M0,0V20" transform="translate(927.5 250.5)" fill="none" stroke="#f56c6c"
        stroke-linecap="round" stroke-width="1" />
      <path id="路径_2-8" data-name="路径 2" d="M0,0V20" transform="translate(937.5 250.5)" fill="none" stroke="#f56c6c"
        stroke-linecap="round" stroke-width="1" />
      <path id="路径_3-8" data-name="路径 3" d="M0,0V20" transform="translate(947.5 250.5)" fill="none" stroke="#f56c6c"
        stroke-linecap="round" stroke-width="1" />
      <path id="路径_4-8" data-name="路径 4" d="M0,0V20" transform="translate(957.5 250.5)" fill="none" stroke="#f56c6c"
        stroke-linecap="round" stroke-width="1" />
      <path id="路径_5-8" data-name="路径 5" d="M0,0V20" transform="translate(966.5 250.5)" fill="none" stroke="#f56c6c"
        stroke-linecap="round" stroke-width="1" />
      <path id="路径_6-8" data-name="路径 6" d="M0,0V20" transform="translate(976.5 250.5)" fill="none" stroke="#f56c6c"
        stroke-linecap="round" stroke-width="1" />
      <path id="路径_7-8" data-name="路径 7" d="M0,0V20" transform="translate(986.5 250.5)" fill="none" stroke="#f56c6c"
        stroke-linecap="round" stroke-width="1" />
    </g>
    <g id="组_9" data-name="组 9" transform="translate(1109 294)">
      <path id="路径_1-9" data-name="路径 1" d="M0,0V20" fill="none" stroke="#f56c6c" stroke-linecap="round"
        stroke-width="1" />
      <path id="路径_2-9" data-name="路径 2" d="M0,0V20" transform="translate(10)" fill="none" stroke="#f56c6c"
        stroke-linecap="round" stroke-width="1" />
      <path id="路径_3-9" data-name="路径 3" d="M0,0V20" transform="translate(20)" fill="none" stroke="#f56c6c"
        stroke-linecap="round" stroke-width="1" />
      <path id="路径_4-9" data-name="路径 4" d="M0,0V20" transform="translate(30)" fill="none" stroke="#f56c6c"
        stroke-linecap="round" stroke-width="1" />
      <path id="路径_5-9" data-name="路径 5" d="M0,0V20" transform="translate(39)" fill="none" stroke="#f56c6c"
        stroke-linecap="round" stroke-width="1" />
      <path id="路径_6-9" data-name="路径 6" d="M0,0V20" transform="translate(49)" fill="none" stroke="#f56c6c"
        stroke-linecap="round" stroke-width="1" />
      <path id="路径_7-9" data-name="路径 7" d="M0,0V20" transform="translate(59)" fill="none" stroke="#f56c6c"
        stroke-linecap="round" stroke-width="1" />
    </g>
  </g>
</svg>