<svg width="296" height="282" viewBox="0 0 296 282" fill="none" xmlns="http://www.w3.org/2000/svg">
  <g filter="url(#filter0_d_77_4420)">
    <g clip-path="url(#clip0_77_4420)">
      <g filter="url(#filter1_i_77_4420)">
        <path d="M8 8C8 6.89543 8.89543 6 10 6H286C287.105 6 288 6.89543 288 8V46H8V8Z" fill="white" />
        <path fill-rule="evenodd" clip-rule="evenodd" d="M28.0607 22.0607L27 21L22 26L27 31L28.0607 29.9393L24.1213 26L28.0607 22.0607Z" fill="black" fill-opacity="0.25" />
        <path fill-rule="evenodd" clip-rule="evenodd" d="M34.0607 22.0607L33 21L28 26L33 31L34.0607 29.9393L30.1213 26L34.0607 22.0607Z" fill="black" fill-opacity="0.25" />
        <path fill-rule="evenodd" clip-rule="evenodd" d="M50.0607 22.0607L49 21L44 26L49 31L50.0607 29.9393L46.1213 26L50.0607 22.0607Z" fill="black" fill-opacity="0.25" />
        <mask id="path-6-inside-1_77_4420" fill="white">
          <path d="M269 21L274 26L269 31L267.939 29.9393L271.879 26L267.939 22.0607L269 21Z" />
        </mask>
        <path d="M269 21L274 26L269 31L267.939 29.9393L271.879 26L267.939 22.0607L269 21Z" fill="white" />
        <path
          d="M274 26L275.061 27.0607L276.121 26L275.061 24.9393L274 26ZM269 21L270.061 19.9393L269 18.8787L267.939 19.9393L269 21ZM269 31L267.939 32.0607L269 33.1213L270.061 32.0607L269 31ZM267.939 22.0607L266.879 21L265.818 22.0607L266.879 23.1213L267.939 22.0607ZM267.939 29.9393L266.879 28.8787L265.818 29.9393L266.879 31L267.939 29.9393ZM271.879 26L272.939 27.0607L274 26L272.939 24.9393L271.879 26ZM275.061 24.9393L270.061 19.9393L267.939 22.0607L272.939 27.0607L275.061 24.9393ZM270.061 32.0607L275.061 27.0607L272.939 24.9393L267.939 29.9393L270.061 32.0607ZM267.939 19.9393L266.879 21L269 23.1213L270.061 22.0607L267.939 19.9393ZM266.879 31L267.939 32.0607L270.061 29.9393L269 28.8787L266.879 31ZM270.818 24.9393L266.879 28.8787L269 31L272.939 27.0607L270.818 24.9393ZM266.879 23.1213L270.818 27.0607L272.939 24.9393L269 21L266.879 23.1213Z"
          fill="black"
          fill-opacity="0.25"
          mask="url(#path-6-inside-1_77_4420)"
        />
        <mask id="path-8-inside-2_77_4420" fill="white">
          <path d="M262.939 21L267.939 26L262.939 31L261.879 29.9393L265.818 26L261.879 22.0607L262.939 21Z" />
        </mask>
        <path d="M262.939 21L267.939 26L262.939 31L261.879 29.9393L265.818 26L261.879 22.0607L262.939 21Z" fill="white" />
        <path
          d="M267.939 26L269 27.0607L270.061 26L269 24.9393L267.939 26ZM262.939 21L264 19.9393L262.939 18.8787L261.879 19.9393L262.939 21ZM262.939 31L261.879 32.0607L262.939 33.1213L264 32.0607L262.939 31ZM261.879 22.0607L260.818 21L259.757 22.0607L260.818 23.1213L261.879 22.0607ZM261.879 29.9393L260.818 28.8787L259.757 29.9393L260.818 31L261.879 29.9393ZM265.818 26L266.879 27.0607L267.939 26L266.879 24.9393L265.818 26ZM269 24.9393L264 19.9393L261.879 22.0607L266.879 27.0607L269 24.9393ZM264 32.0607L269 27.0607L266.879 24.9393L261.879 29.9393L264 32.0607ZM261.879 19.9393L260.818 21L262.939 23.1213L264 22.0607L261.879 19.9393ZM260.818 31L261.879 32.0607L264 29.9393L262.939 28.8787L260.818 31ZM264.757 24.9393L260.818 28.8787L262.939 31L266.879 27.0607L264.757 24.9393ZM260.818 23.1213L264.757 27.0607L266.879 24.9393L262.939 21L260.818 23.1213Z"
          fill="black"
          fill-opacity="0.25"
          mask="url(#path-8-inside-2_77_4420)"
        />
        <mask id="path-10-inside-3_77_4420" fill="white">
          <path d="M247 21L252 26L247 31L245.939 29.9393L249.879 26L245.939 22.0607L247 21Z" />
        </mask>
        <path d="M247 21L252 26L247 31L245.939 29.9393L249.879 26L245.939 22.0607L247 21Z" fill="white" />
        <path
          d="M252 26L253.061 27.0607L254.121 26L253.061 24.9393L252 26ZM247 21L248.061 19.9393L247 18.8787L245.939 19.9393L247 21ZM247 31L245.939 32.0607L247 33.1213L248.061 32.0607L247 31ZM245.939 22.0607L244.879 21L243.818 22.0607L244.879 23.1213L245.939 22.0607ZM245.939 29.9393L244.879 28.8787L243.818 29.9393L244.879 31L245.939 29.9393ZM249.879 26L250.939 27.0607L252 26L250.939 24.9393L249.879 26ZM253.061 24.9393L248.061 19.9393L245.939 22.0607L250.939 27.0607L253.061 24.9393ZM248.061 32.0607L253.061 27.0607L250.939 24.9393L245.939 29.9393L248.061 32.0607ZM245.939 19.9393L244.879 21L247 23.1213L248.061 22.0607L245.939 19.9393ZM244.879 31L245.939 32.0607L248.061 29.9393L247 28.8787L244.879 31ZM248.818 24.9393L244.879 28.8787L247 31L250.939 27.0607L248.818 24.9393ZM244.879 23.1213L248.818 27.0607L250.939 24.9393L247 21L244.879 23.1213Z"
          fill="black"
          fill-opacity="0.25"
          mask="url(#path-10-inside-3_77_4420)"
        />
        <g clip-path="url(#clip1_77_4420)">
          <path
            d="M113.855 25.6357L118.559 25.123V20.4678H119.789V24.9863L127.021 24.1865L127.117 25.2939L119.789 26.1211V30.9951C119.789 31.8337 120.249 32.2529 121.17 32.2529H123.863C124.839 32.2529 125.376 31.9658 125.477 31.3916C125.595 30.7536 125.695 30.0335 125.777 29.2314C126.124 29.3864 126.52 29.5413 126.967 29.6963C126.821 30.6442 126.675 31.4053 126.529 31.9795C126.283 32.9274 125.527 33.4014 124.26 33.4014H120.869C119.329 33.4014 118.559 32.6904 118.559 31.2686V26.2578L113.965 26.7705L113.855 25.6357ZM131.007 29.1904C130.802 30.9495 130.116 32.54 128.949 33.9619C128.658 33.6794 128.343 33.4059 128.006 33.1416C128.89 32.1846 129.482 31.0452 129.783 29.7236C129.993 28.7484 130.098 27.3994 130.098 25.6768V20.9463H139.23V31.6104C139.23 32.9593 138.588 33.6338 137.303 33.6338C136.765 33.6338 136.072 33.6247 135.225 33.6064C135.179 33.2783 135.111 32.8955 135.02 32.458C135.858 32.5127 136.519 32.54 137.002 32.54C137.74 32.54 138.109 32.18 138.109 31.46V29.1904H131.007ZM131.116 28.1924H138.109V25.5674H131.219C131.219 26.4788 131.185 27.3538 131.116 28.1924ZM131.219 21.9717V24.5693H138.109V21.9717H131.219Z"
            fill="black"
            fill-opacity="0.85"
          />
          <path
            d="M155.397 24.1865C155.397 23.6169 155.217 23.1702 154.857 22.8467C154.497 22.5186 154.007 22.3545 153.388 22.3545C152.95 22.3545 152.508 22.4661 152.062 22.6895C151.615 22.9128 151.198 23.2318 150.811 23.6465V22.3477C151.157 21.9876 151.549 21.7119 151.986 21.5205C152.428 21.3291 152.946 21.2334 153.538 21.2334C154.495 21.2334 155.265 21.4909 155.849 22.0059C156.432 22.5163 156.724 23.209 156.724 24.084C156.724 24.8633 156.544 25.5378 156.184 26.1074C155.828 26.6771 155.217 27.2604 154.352 27.8574C153.467 28.4681 152.875 28.9056 152.574 29.1699C152.278 29.4342 152.071 29.6872 151.952 29.9287C151.834 30.1702 151.774 30.4642 151.774 30.8105H157.038V32H150.38V31.4736C150.38 30.863 150.462 30.3457 150.626 29.9219C150.795 29.4935 151.07 29.0788 151.453 28.6777C151.836 28.2721 152.433 27.7868 153.244 27.2217C154.074 26.6383 154.639 26.1279 154.939 25.6904C155.245 25.2484 155.397 24.7471 155.397 24.1865ZM158.405 26.9141C158.405 25.0456 158.715 23.6328 159.335 22.6758C159.955 21.7142 160.853 21.2334 162.028 21.2334C164.271 21.2334 165.392 23.0426 165.392 26.6611C165.392 28.4476 165.075 29.8148 164.441 30.7627C163.812 31.7061 162.928 32.1777 161.789 32.1777C160.714 32.1777 159.88 31.7288 159.287 30.8311C158.699 29.9333 158.405 28.6276 158.405 26.9141ZM159.772 26.8525C159.772 29.6644 160.486 31.0703 161.912 31.0703C163.316 31.0703 164.018 29.6416 164.018 26.7842C164.018 23.8265 163.329 22.3477 161.953 22.3477C160.499 22.3477 159.772 23.8493 159.772 26.8525ZM171.831 24.1865C171.831 23.6169 171.651 23.1702 171.291 22.8467C170.931 22.5186 170.441 22.3545 169.821 22.3545C169.384 22.3545 168.942 22.4661 168.495 22.6895C168.049 22.9128 167.632 23.2318 167.244 23.6465V22.3477C167.59 21.9876 167.982 21.7119 168.42 21.5205C168.862 21.3291 169.379 21.2334 169.972 21.2334C170.929 21.2334 171.699 21.4909 172.282 22.0059C172.866 22.5163 173.157 23.209 173.157 24.084C173.157 24.8633 172.977 25.5378 172.617 26.1074C172.262 26.6771 171.651 27.2604 170.785 27.8574C169.901 28.4681 169.309 28.9056 169.008 29.1699C168.712 29.4342 168.504 29.6872 168.386 29.9287C168.267 30.1702 168.208 30.4642 168.208 30.8105H173.472V32H166.813V31.4736C166.813 30.863 166.896 30.3457 167.06 29.9219C167.228 29.4935 167.504 29.0788 167.887 28.6777C168.27 28.2721 168.867 27.7868 169.678 27.2217C170.507 26.6383 171.072 26.1279 171.373 25.6904C171.678 25.2484 171.831 24.7471 171.831 24.1865ZM180.574 21.4111V28.4043H182.16V29.5117H180.574V32H179.275V29.5117H174.333V28.4658C175.213 27.4769 176.097 26.3376 176.985 25.0479C177.874 23.7581 178.608 22.5459 179.187 21.4111H180.574ZM175.837 28.4043H179.275V23.3594C178.801 24.2116 178.293 25.0387 177.751 25.8408C177.209 26.6383 176.571 27.4928 175.837 28.4043Z"
            fill="black"
            fill-opacity="0.85"
          />
        </g>
      </g>
      <rect width="280" height="226" transform="translate(8 46)" fill="white" />
      <g clip-path="url(#clip2_77_4420)">
        <g clip-path="url(#clip3_77_4420)">
          <path
            d="M33.1328 64.2607H42.8809V76.6748H41.7188V75.7041H34.2949V76.6748H33.1328V64.2607ZM34.2949 70.3994V74.7061H41.7188V70.3994H34.2949ZM34.2949 65.2861V69.374H41.7188V65.2861H34.2949Z"
            fill="black"
            fill-opacity="0.85"
          />
          <path d="M67.8854 69.0869H81.4753V70.29H67.8854V69.0869Z" fill="black" fill-opacity="0.85" />
          <path d="M105.755 65.1221H116.911V66.2979H105.755V65.1221ZM104.743 74.0771H117.882V75.2256H104.743V74.0771Z" fill="black" fill-opacity="0.85" />
          <path d="M142.258 64.7393H153.715V65.915H142.258V64.7393ZM141.41 74.6377H154.617V75.7861H141.41V74.6377ZM142.873 69.4287H153.1V70.5908H142.873V69.4287Z" fill="black" fill-opacity="0.85" />
          <path
            d="M178.938 64.3701H190.71V76.7568H189.561V75.9365H180.087V76.7568H178.938V64.3701ZM187.784 71.1787C188.212 71.1787 188.745 71.1696 189.383 71.1514L189.178 72.2725H187.606C186.394 72.2725 185.788 71.721 185.788 70.6182V65.4639H183.833C183.819 68.0342 183.669 69.7249 183.382 70.5361C183.081 71.557 182.279 72.4867 180.975 73.3252C180.738 73.0426 180.456 72.751 180.128 72.4502C181.358 71.7119 182.092 70.9144 182.329 70.0576C182.57 69.4652 182.698 67.9339 182.712 65.4639H180.087V74.8701H189.561V65.4639H186.909V70.4678C186.909 70.9417 187.201 71.1787 187.784 71.1787Z"
            fill="black"
            fill-opacity="0.85"
          />
          <path
            d="M214.607 75.0752H217.792L218.585 69.7158H215.468V68.6768H218.749L219.242 65.3545H215.099V64.3154H227.486V65.3545H220.39L219.898 68.6768H225.913V75.0752H228.128V76.1006H214.607V75.0752ZM224.765 69.7158H219.747L218.941 75.0752H224.765V69.7158Z"
            fill="black"
            fill-opacity="0.85"
          />
          <path
            d="M251.41 66.8994H264.686V67.9932H251.41V66.8994ZM256.605 64.0146L257.604 63.4541C258.041 64.0739 258.57 64.8988 259.189 65.9287L258.068 66.5303C257.476 65.4001 256.988 64.5615 256.605 64.0146ZM255.512 69.6064L256.688 70.2217C255.448 72.4456 254.017 74.5511 252.395 76.5381C252.103 76.2829 251.761 75.9958 251.369 75.6768C252.946 73.9814 254.327 71.958 255.512 69.6064ZM259.217 70.3994L260.16 69.7021C261.655 71.5706 263.104 73.5166 264.508 75.54L263.359 76.3877C261.792 73.9176 260.411 71.9215 259.217 70.3994Z"
            fill="black"
            fill-opacity="0.85"
          />
        </g>
        <path
          d="M35.6143 97.1865C35.6143 96.6169 35.4342 96.1702 35.0742 95.8467C34.7142 95.5186 34.2243 95.3545 33.6045 95.3545C33.167 95.3545 32.7249 95.4661 32.2783 95.6895C31.8317 95.9128 31.4147 96.2318 31.0273 96.6465V95.3477C31.3737 94.9876 31.7656 94.7119 32.2031 94.5205C32.6452 94.3291 33.1624 94.2334 33.7549 94.2334C34.7119 94.2334 35.4821 94.4909 36.0654 95.0059C36.6488 95.5163 36.9404 96.209 36.9404 97.084C36.9404 97.8633 36.7604 98.5378 36.4004 99.1074C36.0449 99.6771 35.4342 100.26 34.5684 100.857C33.6842 101.468 33.0918 101.906 32.791 102.17C32.4948 102.434 32.2874 102.687 32.1689 102.929C32.0505 103.17 31.9912 103.464 31.9912 103.811H37.2549V105H30.5967V104.474C30.5967 103.863 30.6787 103.346 30.8428 102.922C31.0114 102.493 31.2871 102.079 31.6699 101.678C32.0527 101.272 32.6497 100.787 33.4609 100.222C34.2904 99.6383 34.8555 99.1279 35.1562 98.6904C35.4616 98.2484 35.6143 97.7471 35.6143 97.1865ZM45.4854 95.2383C44.3734 97.1797 43.4984 98.9775 42.8604 100.632C42.2269 102.282 41.835 103.738 41.6846 105H40.29C40.4587 103.756 40.8574 102.336 41.4863 100.741C42.1152 99.1462 42.9561 97.4303 44.0088 95.5938H38.7588V94.4111H45.4854V95.2383Z"
          fill="black"
          fill-opacity="0.25"
        />
        <path
          d="M72.2809 97.1865C72.2809 96.6169 72.1009 96.1702 71.7409 95.8467C71.3809 95.5186 70.891 95.3545 70.2712 95.3545C69.8337 95.3545 69.3916 95.4661 68.945 95.6895C68.4984 95.9128 68.0814 96.2318 67.694 96.6465V95.3477C68.0404 94.9876 68.4323 94.7119 68.8698 94.5205C69.3119 94.3291 69.8291 94.2334 70.4216 94.2334C71.3786 94.2334 72.1488 94.4909 72.7321 95.0059C73.3155 95.5163 73.6071 96.209 73.6071 97.084C73.6071 97.8633 73.4271 98.5378 73.0671 99.1074C72.7116 99.6771 72.1009 100.26 71.235 100.857C70.3509 101.468 69.7585 101.906 69.4577 102.17C69.1615 102.434 68.9541 102.687 68.8356 102.929C68.7171 103.17 68.6579 103.464 68.6579 103.811H73.9216V105H67.2634V104.474C67.2634 103.863 67.3454 103.346 67.5095 102.922C67.6781 102.493 67.9538 102.079 68.3366 101.678C68.7194 101.272 69.3164 100.787 70.1276 100.222C70.9571 99.6383 71.5222 99.1279 71.8229 98.6904C72.1283 98.2484 72.2809 97.7471 72.2809 97.1865ZM75.3366 102.047C75.3366 101.436 75.5189 100.873 75.8835 100.358C76.2481 99.8434 76.7175 99.4766 77.2917 99.2578C76.8314 98.998 76.4668 98.6654 76.1979 98.2598C75.9291 97.8542 75.7946 97.4144 75.7946 96.9404C75.7946 96.4391 75.9222 95.9811 76.1774 95.5664C76.4372 95.1517 76.7949 94.8258 77.2507 94.5889C77.711 94.3519 78.2168 94.2334 78.7682 94.2334C79.3242 94.2334 79.8324 94.3519 80.2927 94.5889C80.753 94.8213 81.1107 95.1449 81.3659 95.5596C81.6211 95.9743 81.7487 96.4346 81.7487 96.9404C81.7487 97.4053 81.6166 97.8428 81.3522 98.2529C81.0925 98.6585 80.7302 98.9935 80.2653 99.2578C80.8395 99.4811 81.3067 99.8503 81.6667 100.365C82.0267 100.88 82.2067 101.441 82.2067 102.047C82.2067 102.648 82.0632 103.188 81.7761 103.667C81.489 104.141 81.0811 104.51 80.5524 104.774C80.0238 105.039 79.4291 105.171 78.7682 105.171C78.112 105.171 77.5218 105.039 76.9977 104.774C76.4737 104.51 76.0658 104.139 75.7741 103.66C75.4824 103.182 75.3366 102.644 75.3366 102.047ZM76.6491 101.985C76.6491 102.614 76.8428 103.118 77.2302 103.496C77.6175 103.874 78.1325 104.063 78.7751 104.063C79.404 104.063 79.9167 103.872 80.3132 103.489C80.7142 103.102 80.9147 102.601 80.9147 101.985C80.9147 101.402 80.7119 100.912 80.3063 100.516C79.9053 100.115 79.3949 99.9141 78.7751 99.9141C78.1599 99.9141 77.6517 100.11 77.2507 100.502C76.8496 100.889 76.6491 101.384 76.6491 101.985ZM77.0319 97.0498C77.0319 97.5238 77.2005 97.9316 77.5378 98.2734C77.875 98.6107 78.2875 98.7793 78.7751 98.7793C79.2536 98.7793 79.666 98.6084 80.0124 98.2666C80.3633 97.9248 80.5388 97.5192 80.5388 97.0498C80.5388 96.5713 80.3701 96.1657 80.0329 95.833C79.7002 95.5003 79.2809 95.334 78.7751 95.334C78.2738 95.334 77.8568 95.498 77.5241 95.8262C77.196 96.1497 77.0319 96.5576 77.0319 97.0498Z"
          fill="black"
          fill-opacity="0.25"
        />
        <path
          d="M108.948 97.1865C108.948 96.6169 108.768 96.1702 108.408 95.8467C108.048 95.5186 107.558 95.3545 106.938 95.3545C106.5 95.3545 106.058 95.4661 105.612 95.6895C105.165 95.9128 104.748 96.2318 104.361 96.6465V95.3477C104.707 94.9876 105.099 94.7119 105.536 94.5205C105.978 94.3291 106.496 94.2334 107.088 94.2334C108.045 94.2334 108.815 94.4909 109.399 95.0059C109.982 95.5163 110.274 96.209 110.274 97.084C110.274 97.8633 110.094 98.5378 109.734 99.1074C109.378 99.6771 108.768 100.26 107.902 100.857C107.018 101.468 106.425 101.906 106.124 102.17C105.828 102.434 105.621 102.687 105.502 102.929C105.384 103.17 105.325 103.464 105.325 103.811H110.588V105H103.93V104.474C103.93 103.863 104.012 103.346 104.176 102.922C104.345 102.493 104.62 102.079 105.003 101.678C105.386 101.272 105.983 100.787 106.794 100.222C107.624 99.6383 108.189 99.1279 108.49 98.6904C108.795 98.2484 108.948 97.7471 108.948 97.1865ZM112.598 103.564C113.181 103.902 113.81 104.07 114.485 104.07C115.433 104.07 116.166 103.697 116.686 102.949C117.21 102.202 117.472 101.14 117.472 99.7637C117.463 99.7728 117.454 99.7728 117.445 99.7637C116.98 100.648 116.198 101.09 115.1 101.09C114.211 101.09 113.475 100.785 112.892 100.174C112.309 99.5632 112.017 98.7702 112.017 97.7949C112.017 96.7559 112.336 95.9036 112.974 95.2383C113.612 94.5684 114.439 94.2334 115.455 94.2334C116.508 94.2334 117.331 94.6481 117.923 95.4775C118.516 96.3024 118.812 97.5055 118.812 99.0869C118.812 101.042 118.429 102.546 117.663 103.599C116.898 104.651 115.838 105.178 114.485 105.178C113.742 105.178 113.113 105.057 112.598 104.815V103.564ZM113.37 97.624C113.37 98.335 113.553 98.9001 113.917 99.3193C114.282 99.734 114.785 99.9414 115.428 99.9414C115.984 99.9414 116.451 99.7523 116.829 99.374C117.208 98.9912 117.397 98.5286 117.397 97.9863C117.397 97.2253 117.208 96.5964 116.829 96.0996C116.456 95.5983 115.961 95.3477 115.346 95.3477C114.776 95.3477 114.305 95.5641 113.931 95.9971C113.557 96.43 113.37 96.9723 113.37 97.624Z"
          fill="black"
          fill-opacity="0.25"
        />
        <path
          d="M140.761 103.229C141.485 103.79 142.303 104.07 143.215 104.07C143.944 104.07 144.521 103.893 144.944 103.537C145.373 103.177 145.587 102.696 145.587 102.095C145.587 100.755 144.628 100.085 142.709 100.085H141.827V98.9775H142.668C144.368 98.9775 145.218 98.3486 145.218 97.0908C145.218 95.9287 144.568 95.3477 143.27 95.3477C142.527 95.3477 141.827 95.5983 141.171 96.0996V94.835C141.864 94.4339 142.673 94.2334 143.598 94.2334C144.5 94.2334 145.225 94.4704 145.771 94.9443C146.318 95.4137 146.592 96.0244 146.592 96.7764C146.592 98.1618 145.885 99.0527 144.473 99.4492V99.4766C145.238 99.5586 145.842 99.8298 146.284 100.29C146.731 100.746 146.954 101.315 146.954 101.999C146.954 102.951 146.61 103.719 145.922 104.303C145.238 104.886 144.327 105.178 143.188 105.178C142.185 105.178 141.376 104.991 140.761 104.617V103.229ZM148.622 99.9141C148.622 98.0456 148.932 96.6328 149.552 95.6758C150.172 94.7142 151.069 94.2334 152.245 94.2334C154.487 94.2334 155.608 96.0426 155.608 99.6611C155.608 101.448 155.292 102.815 154.658 103.763C154.029 104.706 153.145 105.178 152.006 105.178C150.93 105.178 150.096 104.729 149.504 103.831C148.916 102.933 148.622 101.628 148.622 99.9141ZM149.989 99.8525C149.989 102.664 150.702 104.07 152.129 104.07C153.533 104.07 154.234 102.642 154.234 99.7842C154.234 96.8265 153.546 95.3477 152.17 95.3477C150.716 95.3477 149.989 96.8493 149.989 99.8525Z"
          fill="black"
          fill-opacity="0.25"
        />
        <path
          d="M184.455 105V95.9424C184.245 96.152 183.89 96.3867 183.388 96.6465C182.892 96.9062 182.431 97.0885 182.008 97.1934V95.8809C182.568 95.7259 183.167 95.4798 183.805 95.1426C184.443 94.8008 184.933 94.4795 185.275 94.1787H185.781V105H184.455Z"
          fill="black"
          fill-opacity="0.85"
        />
        <path
          d="M223.056 97.1865C223.056 96.6169 222.876 96.1702 222.516 95.8467C222.156 95.5186 221.666 95.3545 221.046 95.3545C220.609 95.3545 220.167 95.4661 219.72 95.6895C219.273 95.9128 218.856 96.2318 218.469 96.6465V95.3477C218.815 94.9876 219.207 94.7119 219.645 94.5205C220.087 94.3291 220.604 94.2334 221.197 94.2334C222.154 94.2334 222.924 94.4909 223.507 95.0059C224.091 95.5163 224.382 96.209 224.382 97.084C224.382 97.8633 224.202 98.5378 223.842 99.1074C223.487 99.6771 222.876 100.26 222.01 100.857C221.126 101.468 220.534 101.906 220.233 102.17C219.937 102.434 219.729 102.687 219.611 102.929C219.492 103.17 219.433 103.464 219.433 103.811H224.697V105H218.038V104.474C218.038 103.863 218.12 103.346 218.285 102.922C218.453 102.493 218.729 102.079 219.112 101.678C219.495 101.272 220.092 100.787 220.903 100.222C221.732 99.6383 222.297 99.1279 222.598 98.6904C222.903 98.2484 223.056 97.7471 223.056 97.1865Z"
          fill="black"
          fill-opacity="0.85"
        />
        <path
          d="M254.869 103.229C255.594 103.79 256.412 104.07 257.323 104.07C258.052 104.07 258.629 103.893 259.053 103.537C259.481 103.177 259.695 102.696 259.695 102.095C259.695 100.755 258.736 100.085 256.817 100.085H255.936V98.9775H256.776C258.476 98.9775 259.326 98.3486 259.326 97.0908C259.326 95.9287 258.677 95.3477 257.378 95.3477C256.635 95.3477 255.936 95.5983 255.279 96.0996V94.835C255.972 94.4339 256.781 94.2334 257.706 94.2334C258.608 94.2334 259.333 94.4704 259.88 94.9443C260.427 95.4137 260.7 96.0244 260.7 96.7764C260.7 98.1618 259.994 99.0527 258.581 99.4492V99.4766C259.347 99.5586 259.951 99.8298 260.393 100.29C260.839 100.746 261.062 101.315 261.062 101.999C261.062 102.951 260.718 103.719 260.03 104.303C259.347 104.886 258.435 105.178 257.296 105.178C256.293 105.178 255.484 104.991 254.869 104.617V103.229Z"
          fill="black"
          fill-opacity="0.85"
        />
        <path
          d="M40.249 124.411V131.404H41.835V132.512H40.249V135H38.9502V132.512H34.0078V131.466C34.8874 130.477 35.7715 129.338 36.6602 128.048C37.5488 126.758 38.2826 125.546 38.8613 124.411H40.249ZM35.5117 131.404H38.9502V126.359C38.4762 127.212 37.9681 128.039 37.4258 128.841C36.8835 129.638 36.2454 130.493 35.5117 131.404Z"
          fill="black"
          fill-opacity="0.85"
        />
        <path
          d="M77.7634 131.732C77.7634 132.767 77.4193 133.601 76.7311 134.234C76.0475 134.868 75.127 135.185 73.9694 135.185C72.9759 135.185 72.2354 135.036 71.7477 134.74V133.373C72.4632 133.838 73.1924 134.07 73.9352 134.07C74.6735 134.07 75.2682 133.868 75.7194 133.462C76.1752 133.052 76.403 132.509 76.403 131.835C76.403 131.16 76.166 130.636 75.6921 130.263C75.2227 129.884 74.5573 129.695 73.696 129.695C73.0306 129.695 72.4313 129.725 71.8981 129.784L72.2878 124.411H77.237V125.587H73.4157L73.197 128.588L74.1608 128.547C75.2819 128.547 76.1615 128.827 76.7995 129.388C77.4421 129.944 77.7634 130.725 77.7634 131.732Z"
          fill="black"
          fill-opacity="0.85"
        />
        <path
          d="M114.184 125.771C113.632 125.489 113.056 125.348 112.454 125.348C111.538 125.348 110.802 125.746 110.246 126.544C109.69 127.341 109.408 128.431 109.399 129.812H109.433C109.934 128.841 110.734 128.355 111.832 128.355C112.748 128.355 113.48 128.654 114.027 129.251C114.574 129.848 114.847 130.641 114.847 131.63C114.847 132.664 114.53 133.514 113.897 134.18C113.268 134.845 112.464 135.178 111.484 135.178C110.408 135.178 109.563 134.758 108.948 133.92C108.337 133.077 108.032 131.883 108.032 130.338C108.032 128.469 108.433 126.986 109.235 125.888C110.041 124.785 111.101 124.233 112.413 124.233C113.165 124.233 113.756 124.336 114.184 124.541V125.771ZM109.481 131.534C109.481 132.231 109.665 132.828 110.034 133.325C110.408 133.822 110.903 134.07 111.518 134.07C112.101 134.07 112.575 133.856 112.94 133.428C113.304 132.999 113.487 132.448 113.487 131.773C113.487 131.044 113.313 130.477 112.967 130.071C112.625 129.666 112.138 129.463 111.504 129.463C110.903 129.463 110.415 129.668 110.041 130.078C109.668 130.488 109.481 130.974 109.481 131.534Z"
          fill="black"
          fill-opacity="0.85"
        />
        <path
          d="M151.377 125.238C150.265 127.18 149.39 128.978 148.752 130.632C148.118 132.282 147.727 133.738 147.576 135H146.182C146.35 133.756 146.749 132.336 147.378 130.741C148.007 129.146 148.848 127.43 149.9 125.594H144.65V124.411H151.377V125.238Z"
          fill="black"
          fill-opacity="0.85"
        />
        <path
          d="M181.228 132.047C181.228 131.436 181.411 130.873 181.775 130.358C182.14 129.843 182.609 129.477 183.183 129.258C182.723 128.998 182.358 128.665 182.09 128.26C181.821 127.854 181.686 127.414 181.686 126.94C181.686 126.439 181.814 125.981 182.069 125.566C182.329 125.152 182.687 124.826 183.142 124.589C183.603 124.352 184.108 124.233 184.66 124.233C185.216 124.233 185.724 124.352 186.184 124.589C186.645 124.821 187.002 125.145 187.258 125.56C187.513 125.974 187.64 126.435 187.64 126.94C187.64 127.405 187.508 127.843 187.244 128.253C186.984 128.659 186.622 128.993 186.157 129.258C186.731 129.481 187.198 129.85 187.558 130.365C187.918 130.88 188.098 131.441 188.098 132.047C188.098 132.648 187.955 133.188 187.668 133.667C187.381 134.141 186.973 134.51 186.444 134.774C185.915 135.039 185.321 135.171 184.66 135.171C184.004 135.171 183.413 135.039 182.889 134.774C182.365 134.51 181.957 134.139 181.666 133.66C181.374 133.182 181.228 132.644 181.228 132.047ZM182.541 131.985C182.541 132.614 182.734 133.118 183.122 133.496C183.509 133.874 184.024 134.063 184.667 134.063C185.296 134.063 185.808 133.872 186.205 133.489C186.606 133.102 186.806 132.601 186.806 131.985C186.806 131.402 186.604 130.912 186.198 130.516C185.797 130.115 185.286 129.914 184.667 129.914C184.051 129.914 183.543 130.11 183.142 130.502C182.741 130.889 182.541 131.384 182.541 131.985ZM182.924 127.05C182.924 127.524 183.092 127.932 183.429 128.273C183.767 128.611 184.179 128.779 184.667 128.779C185.145 128.779 185.558 128.608 185.904 128.267C186.255 127.925 186.43 127.519 186.43 127.05C186.43 126.571 186.262 126.166 185.924 125.833C185.592 125.5 185.173 125.334 184.667 125.334C184.165 125.334 183.748 125.498 183.416 125.826C183.088 126.15 182.924 126.558 182.924 127.05Z"
          fill="black"
          fill-opacity="0.85"
        />
        <path
          d="M218.49 133.564C219.073 133.902 219.702 134.07 220.376 134.07C221.324 134.07 222.058 133.697 222.578 132.949C223.102 132.202 223.364 131.14 223.364 129.764C223.355 129.773 223.345 129.773 223.336 129.764C222.871 130.648 222.09 131.09 220.992 131.09C220.103 131.09 219.367 130.785 218.784 130.174C218.2 129.563 217.909 128.77 217.909 127.795C217.909 126.756 218.228 125.904 218.866 125.238C219.504 124.568 220.331 124.233 221.347 124.233C222.4 124.233 223.222 124.648 223.815 125.478C224.407 126.302 224.703 127.506 224.703 129.087C224.703 131.042 224.321 132.546 223.555 133.599C222.789 134.651 221.73 135.178 220.376 135.178C219.634 135.178 219.005 135.057 218.49 134.815V133.564ZM219.262 127.624C219.262 128.335 219.444 128.9 219.809 129.319C220.174 129.734 220.677 129.941 221.32 129.941C221.876 129.941 222.343 129.752 222.721 129.374C223.099 128.991 223.288 128.529 223.288 127.986C223.288 127.225 223.099 126.596 222.721 126.1C222.347 125.598 221.853 125.348 221.238 125.348C220.668 125.348 220.196 125.564 219.823 125.997C219.449 126.43 219.262 126.972 219.262 127.624Z"
          fill="black"
          fill-opacity="0.85"
        />
        <path
          d="M253.68 135V125.942C253.47 126.152 253.115 126.387 252.613 126.646C252.117 126.906 251.656 127.089 251.232 127.193V125.881C251.793 125.726 252.392 125.48 253.03 125.143C253.668 124.801 254.158 124.479 254.5 124.179H255.006V135H253.68ZM258.622 129.914C258.622 128.046 258.932 126.633 259.552 125.676C260.172 124.714 261.069 124.233 262.245 124.233C264.487 124.233 265.608 126.043 265.608 129.661C265.608 131.448 265.292 132.815 264.658 133.763C264.029 134.706 263.145 135.178 262.006 135.178C260.93 135.178 260.096 134.729 259.504 133.831C258.916 132.933 258.622 131.628 258.622 129.914ZM259.989 129.853C259.989 132.664 260.702 134.07 262.129 134.07C263.533 134.07 264.234 132.642 264.234 129.784C264.234 126.826 263.546 125.348 262.17 125.348C260.716 125.348 259.989 126.849 259.989 129.853Z"
          fill="black"
          fill-opacity="0.85"
        />
        <path
          d="M33.6797 165V155.942C33.4701 156.152 33.1146 156.387 32.6133 156.646C32.1165 156.906 31.6562 157.089 31.2324 157.193V155.881C31.793 155.726 32.3923 155.48 33.0303 155.143C33.6683 154.801 34.1582 154.479 34.5 154.179H35.0059V165H33.6797ZM41.8965 165V155.942C41.6868 156.152 41.3314 156.387 40.8301 156.646C40.3333 156.906 39.873 157.089 39.4492 157.193V155.881C40.0098 155.726 40.609 155.48 41.2471 155.143C41.8851 154.801 42.375 154.479 42.7168 154.179H43.2227V165H41.8965Z"
          fill="black"
          fill-opacity="0.85"
        />
        <path
          d="M70.3464 165V155.942C70.1367 156.152 69.7813 156.387 69.28 156.646C68.7832 156.906 68.3229 157.089 67.8991 157.193V155.881C68.4597 155.726 69.0589 155.48 69.697 155.143C70.335 154.801 70.8249 154.479 71.1667 154.179H71.6725V165H70.3464ZM80.4977 157.187C80.4977 156.617 80.3177 156.17 79.9577 155.847C79.5977 155.519 79.1078 155.354 78.488 155.354C78.0505 155.354 77.6084 155.466 77.1618 155.689C76.7152 155.913 76.2982 156.232 75.9108 156.646V155.348C76.2572 154.988 76.6491 154.712 77.0866 154.521C77.5287 154.329 78.0459 154.233 78.6384 154.233C79.5954 154.233 80.3656 154.491 80.9489 155.006C81.5322 155.516 81.8239 156.209 81.8239 157.084C81.8239 157.863 81.6439 158.538 81.2839 159.107C80.9284 159.677 80.3177 160.26 79.4518 160.857C78.5677 161.468 77.9753 161.906 77.6745 162.17C77.3783 162.434 77.1709 162.687 77.0524 162.929C76.9339 163.17 76.8747 163.464 76.8747 163.811H82.1384V165H75.4802V164.474C75.4802 163.863 75.5622 163.346 75.7263 162.922C75.8949 162.493 76.1706 162.079 76.5534 161.678C76.9362 161.272 77.5332 160.787 78.3444 160.222C79.1738 159.638 79.739 159.128 80.0397 158.69C80.3451 158.248 80.4977 157.747 80.4977 157.187Z"
          fill="black"
          fill-opacity="0.85"
        />
        <path
          d="M107.013 165V155.942C106.803 156.152 106.448 156.387 105.947 156.646C105.45 156.906 104.99 157.089 104.566 157.193V155.881C105.126 155.726 105.726 155.48 106.364 155.143C107.002 154.801 107.492 154.479 107.833 154.179H108.339V165H107.013ZM112.311 163.229C113.035 163.79 113.853 164.07 114.765 164.07C115.494 164.07 116.071 163.893 116.494 163.537C116.923 163.177 117.137 162.696 117.137 162.095C117.137 160.755 116.178 160.085 114.259 160.085H113.377V158.978H114.218C115.918 158.978 116.768 158.349 116.768 157.091C116.768 155.929 116.118 155.348 114.82 155.348C114.077 155.348 113.377 155.598 112.721 156.1V154.835C113.414 154.434 114.223 154.233 115.148 154.233C116.05 154.233 116.775 154.47 117.322 154.944C117.868 155.414 118.142 156.024 118.142 156.776C118.142 158.162 117.436 159.053 116.023 159.449V159.477C116.788 159.559 117.392 159.83 117.834 160.29C118.281 160.746 118.504 161.315 118.504 161.999C118.504 162.951 118.16 163.719 117.472 164.303C116.788 164.886 115.877 165.178 114.738 165.178C113.735 165.178 112.926 164.991 112.311 164.617V163.229Z"
          fill="black"
          fill-opacity="0.85"
        />
        <path
          d="M143.68 165V155.942C143.47 156.152 143.115 156.387 142.613 156.646C142.117 156.906 141.656 157.089 141.232 157.193V155.881C141.793 155.726 142.392 155.48 143.03 155.143C143.668 154.801 144.158 154.479 144.5 154.179H145.006V165H143.68ZM154.357 154.411V161.404H155.943V162.512H154.357V165H153.059V162.512H148.116V161.466C148.996 160.477 149.88 159.338 150.769 158.048C151.657 156.758 152.391 155.546 152.97 154.411H154.357ZM149.62 161.404H153.059V156.359C152.585 157.212 152.076 158.039 151.534 158.841C150.992 159.638 150.354 160.493 149.62 161.404Z"
          fill="black"
          fill-opacity="0.85"
        />
        <path
          d="M180.346 165V155.942C180.137 156.152 179.781 156.387 179.28 156.646C178.783 156.906 178.323 157.089 177.899 157.193V155.881C178.46 155.726 179.059 155.48 179.697 155.143C180.335 154.801 180.825 154.479 181.167 154.179H181.673V165H180.346ZM191.872 161.732C191.872 162.767 191.528 163.601 190.84 164.234C190.156 164.868 189.235 165.185 188.078 165.185C187.084 165.185 186.344 165.036 185.856 164.74V163.373C186.572 163.838 187.301 164.07 188.044 164.07C188.782 164.07 189.377 163.868 189.828 163.462C190.284 163.052 190.511 162.509 190.511 161.835C190.511 161.16 190.274 160.636 189.8 160.263C189.331 159.884 188.666 159.695 187.804 159.695C187.139 159.695 186.54 159.725 186.007 159.784L186.396 154.411H191.345V155.587H187.524L187.305 158.588L188.269 158.547C189.39 158.547 190.27 158.827 190.908 159.388C191.55 159.944 191.872 160.725 191.872 161.732Z"
          fill="black"
          fill-opacity="0.85"
        />
        <path
          d="M217.013 165V155.942C216.803 156.152 216.448 156.387 215.947 156.646C215.45 156.906 214.99 157.089 214.566 157.193V155.881C215.126 155.726 215.726 155.48 216.364 155.143C217.002 154.801 217.492 154.479 217.833 154.179H218.339V165H217.013ZM228.292 155.771C227.741 155.489 227.164 155.348 226.563 155.348C225.647 155.348 224.911 155.746 224.355 156.544C223.799 157.341 223.516 158.431 223.507 159.812H223.541C224.043 158.841 224.842 158.355 225.941 158.355C226.857 158.355 227.588 158.654 228.135 159.251C228.682 159.848 228.955 160.641 228.955 161.63C228.955 162.664 228.639 163.514 228.005 164.18C227.376 164.845 226.572 165.178 225.592 165.178C224.517 165.178 223.671 164.758 223.056 163.92C222.445 163.077 222.14 161.883 222.14 160.338C222.14 158.469 222.541 156.986 223.343 155.888C224.15 154.785 225.209 154.233 226.522 154.233C227.274 154.233 227.864 154.336 228.292 154.541V155.771ZM223.589 161.534C223.589 162.231 223.774 162.828 224.143 163.325C224.517 163.822 225.011 164.07 225.626 164.07C226.21 164.07 226.684 163.856 227.048 163.428C227.413 162.999 227.595 162.448 227.595 161.773C227.595 161.044 227.422 160.477 227.076 160.071C226.734 159.666 226.246 159.463 225.613 159.463C225.011 159.463 224.523 159.668 224.15 160.078C223.776 160.488 223.589 160.974 223.589 161.534Z"
          fill="black"
          fill-opacity="0.85"
        />
        <path
          d="M253.68 165V155.942C253.47 156.152 253.115 156.387 252.613 156.646C252.117 156.906 251.656 157.089 251.232 157.193V155.881C251.793 155.726 252.392 155.48 253.03 155.143C253.668 154.801 254.158 154.479 254.5 154.179H255.006V165H253.68ZM265.485 155.238C264.373 157.18 263.498 158.978 262.86 160.632C262.227 162.282 261.835 163.738 261.685 165H260.29C260.459 163.756 260.857 162.336 261.486 160.741C262.115 159.146 262.956 157.43 264.009 155.594H258.759V154.411H265.485V155.238Z"
          fill="black"
          fill-opacity="0.85"
        />
        <path
          d="M33.6797 195V185.942C33.4701 186.152 33.1146 186.387 32.6133 186.646C32.1165 186.906 31.6562 187.089 31.2324 187.193V185.881C31.793 185.726 32.3923 185.48 33.0303 185.143C33.6683 184.801 34.1582 184.479 34.5 184.179H35.0059V195H33.6797ZM38.6699 192.047C38.6699 191.436 38.8522 190.873 39.2168 190.358C39.5814 189.843 40.0508 189.477 40.625 189.258C40.1647 188.998 39.8001 188.665 39.5312 188.26C39.2624 187.854 39.1279 187.414 39.1279 186.94C39.1279 186.439 39.2555 185.981 39.5107 185.566C39.7705 185.152 40.1283 184.826 40.584 184.589C41.0443 184.352 41.5501 184.233 42.1016 184.233C42.6576 184.233 43.1657 184.352 43.626 184.589C44.0863 184.821 44.444 185.145 44.6992 185.56C44.9544 185.974 45.082 186.435 45.082 186.94C45.082 187.405 44.9499 187.843 44.6855 188.253C44.4258 188.659 44.0635 188.993 43.5986 189.258C44.1729 189.481 44.64 189.85 45 190.365C45.36 190.88 45.54 191.441 45.54 192.047C45.54 192.648 45.3965 193.188 45.1094 193.667C44.8223 194.141 44.4144 194.51 43.8857 194.774C43.3571 195.039 42.7624 195.171 42.1016 195.171C41.4453 195.171 40.8551 195.039 40.3311 194.774C39.807 194.51 39.3991 194.139 39.1074 193.66C38.8158 193.182 38.6699 192.644 38.6699 192.047ZM39.9824 191.985C39.9824 192.614 40.1761 193.118 40.5635 193.496C40.9508 193.874 41.4658 194.063 42.1084 194.063C42.7373 194.063 43.25 193.872 43.6465 193.489C44.0475 193.102 44.248 192.601 44.248 191.985C44.248 191.402 44.0452 190.912 43.6396 190.516C43.2386 190.115 42.7282 189.914 42.1084 189.914C41.4932 189.914 40.985 190.11 40.584 190.502C40.1829 190.889 39.9824 191.384 39.9824 191.985ZM40.3652 187.05C40.3652 187.524 40.5339 187.932 40.8711 188.273C41.2083 188.611 41.6208 188.779 42.1084 188.779C42.5869 188.779 42.9993 188.608 43.3457 188.267C43.6966 187.925 43.8721 187.519 43.8721 187.05C43.8721 186.571 43.7035 186.166 43.3662 185.833C43.0335 185.5 42.6143 185.334 42.1084 185.334C41.6071 185.334 41.1901 185.498 40.8574 185.826C40.5293 186.15 40.3652 186.558 40.3652 187.05Z"
          fill="black"
          fill-opacity="0.85"
        />
        <path
          d="M70.3464 195V185.942C70.1367 186.152 69.7813 186.387 69.28 186.646C68.7832 186.906 68.3229 187.089 67.8991 187.193V185.881C68.4597 185.726 69.0589 185.48 69.697 185.143C70.335 184.801 70.8249 184.479 71.1667 184.179H71.6725V195H70.3464ZM75.9313 193.564C76.5147 193.902 77.1436 194.07 77.8181 194.07C78.766 194.07 79.4997 193.697 80.0192 192.949C80.5433 192.202 80.8054 191.14 80.8054 189.764C80.7962 189.773 80.7871 189.773 80.778 189.764C80.3132 190.648 79.5316 191.09 78.4333 191.09C77.5446 191.09 76.8086 190.785 76.2253 190.174C75.6419 189.563 75.3503 188.77 75.3503 187.795C75.3503 186.756 75.6693 185.904 76.3073 185.238C76.9453 184.568 77.7725 184.233 78.7888 184.233C79.8415 184.233 80.6641 184.648 81.2565 185.478C81.849 186.302 82.1452 187.506 82.1452 189.087C82.1452 191.042 81.7624 192.546 80.9968 193.599C80.2311 194.651 79.1716 195.178 77.8181 195.178C77.0752 195.178 76.4463 195.057 75.9313 194.815V193.564ZM76.7038 187.624C76.7038 188.335 76.8861 188.9 77.2507 189.319C77.6153 189.734 78.1188 189.941 78.7614 189.941C79.3174 189.941 79.7845 189.752 80.1628 189.374C80.541 188.991 80.7302 188.529 80.7302 187.986C80.7302 187.225 80.541 186.596 80.1628 186.1C79.7891 185.598 79.2946 185.348 78.6794 185.348C78.1097 185.348 77.638 185.564 77.2643 185.997C76.8906 186.43 76.7038 186.972 76.7038 187.624Z"
          fill="black"
          fill-opacity="0.85"
        />
        <path
          d="M108.948 187.187C108.948 186.617 108.768 186.17 108.408 185.847C108.048 185.519 107.558 185.354 106.938 185.354C106.5 185.354 106.058 185.466 105.612 185.689C105.165 185.913 104.748 186.232 104.361 186.646V185.348C104.707 184.988 105.099 184.712 105.536 184.521C105.978 184.329 106.496 184.233 107.088 184.233C108.045 184.233 108.815 184.491 109.399 185.006C109.982 185.516 110.274 186.209 110.274 187.084C110.274 187.863 110.094 188.538 109.734 189.107C109.378 189.677 108.768 190.26 107.902 190.857C107.018 191.468 106.425 191.906 106.124 192.17C105.828 192.434 105.621 192.687 105.502 192.929C105.384 193.17 105.325 193.464 105.325 193.811H110.588V195H103.93V194.474C103.93 193.863 104.012 193.346 104.176 192.922C104.345 192.493 104.62 192.079 105.003 191.678C105.386 191.272 105.983 190.787 106.794 190.222C107.624 189.638 108.189 189.128 108.49 188.69C108.795 188.248 108.948 187.747 108.948 187.187ZM111.955 189.914C111.955 188.046 112.265 186.633 112.885 185.676C113.505 184.714 114.403 184.233 115.578 184.233C117.821 184.233 118.942 186.043 118.942 189.661C118.942 191.448 118.625 192.815 117.992 193.763C117.363 194.706 116.478 195.178 115.339 195.178C114.264 195.178 113.43 194.729 112.837 193.831C112.249 192.933 111.955 191.628 111.955 189.914ZM113.323 189.853C113.323 192.664 114.036 194.07 115.462 194.07C116.866 194.07 117.568 192.642 117.568 189.784C117.568 186.826 116.88 185.348 115.503 185.348C114.049 185.348 113.323 186.849 113.323 189.853Z"
          fill="black"
          fill-opacity="0.85"
        />
        <path
          d="M145.614 187.187C145.614 186.617 145.434 186.17 145.074 185.847C144.714 185.519 144.224 185.354 143.604 185.354C143.167 185.354 142.725 185.466 142.278 185.689C141.832 185.913 141.415 186.232 141.027 186.646V185.348C141.374 184.988 141.766 184.712 142.203 184.521C142.645 184.329 143.162 184.233 143.755 184.233C144.712 184.233 145.482 184.491 146.065 185.006C146.649 185.516 146.94 186.209 146.94 187.084C146.94 187.863 146.76 188.538 146.4 189.107C146.045 189.677 145.434 190.26 144.568 190.857C143.684 191.468 143.092 191.906 142.791 192.17C142.495 192.434 142.287 192.687 142.169 192.929C142.05 193.17 141.991 193.464 141.991 193.811H147.255V195H140.597V194.474C140.597 193.863 140.679 193.346 140.843 192.922C141.011 192.493 141.287 192.079 141.67 191.678C142.053 191.272 142.65 190.787 143.461 190.222C144.29 189.638 144.855 189.128 145.156 188.69C145.462 188.248 145.614 187.747 145.614 187.187ZM151.896 195V185.942C151.687 186.152 151.331 186.387 150.83 186.646C150.333 186.906 149.873 187.089 149.449 187.193V185.881C150.01 185.726 150.609 185.48 151.247 185.143C151.885 184.801 152.375 184.479 152.717 184.179H153.223V195H151.896Z"
          fill="black"
          fill-opacity="0.85"
        />
        <rect x="173.167" y="177.5" width="23" height="23" rx="1.5" stroke="#1890FF" />
        <path
          d="M182.281 187.187C182.281 186.617 182.101 186.17 181.741 185.847C181.381 185.519 180.891 185.354 180.271 185.354C179.834 185.354 179.392 185.466 178.945 185.689C178.498 185.913 178.081 186.232 177.694 186.646V185.348C178.04 184.988 178.432 184.712 178.87 184.521C179.312 184.329 179.829 184.233 180.422 184.233C181.379 184.233 182.149 184.491 182.732 185.006C183.315 185.516 183.607 186.209 183.607 187.084C183.607 187.863 183.427 188.538 183.067 189.107C182.712 189.677 182.101 190.26 181.235 190.857C180.351 191.468 179.758 191.906 179.458 192.17C179.161 192.434 178.954 192.687 178.836 192.929C178.717 193.17 178.658 193.464 178.658 193.811H183.922V195H177.263V194.474C177.263 193.863 177.345 193.346 177.509 192.922C177.678 192.493 177.954 192.079 178.337 191.678C178.719 191.272 179.316 190.787 180.128 190.222C180.957 189.638 181.522 189.128 181.823 188.69C182.128 188.248 182.281 187.747 182.281 187.187ZM190.498 187.187C190.498 186.617 190.318 186.17 189.958 185.847C189.598 185.519 189.108 185.354 188.488 185.354C188.05 185.354 187.608 185.466 187.162 185.689C186.715 185.913 186.298 186.232 185.911 186.646V185.348C186.257 184.988 186.649 184.712 187.087 184.521C187.529 184.329 188.046 184.233 188.638 184.233C189.595 184.233 190.366 184.491 190.949 185.006C191.532 185.516 191.824 186.209 191.824 187.084C191.824 187.863 191.644 188.538 191.284 189.107C190.928 189.677 190.318 190.26 189.452 190.857C188.568 191.468 187.975 191.906 187.674 192.17C187.378 192.434 187.171 192.687 187.052 192.929C186.934 193.17 186.875 193.464 186.875 193.811H192.138V195H185.48V194.474C185.48 193.863 185.562 193.346 185.726 192.922C185.895 192.493 186.171 192.079 186.553 191.678C186.936 191.272 187.533 190.787 188.344 190.222C189.174 189.638 189.739 189.128 190.04 188.69C190.345 188.248 190.498 187.747 190.498 187.187Z"
          fill="black"
          fill-opacity="0.85"
        />
        <rect x="209.333" y="177" width="24" height="24" rx="2" fill="#1890FF" />
        <path
          d="M218.948 187.187C218.948 186.617 218.768 186.17 218.408 185.847C218.048 185.519 217.558 185.354 216.938 185.354C216.5 185.354 216.058 185.466 215.612 185.689C215.165 185.913 214.748 186.232 214.361 186.646V185.348C214.707 184.988 215.099 184.712 215.536 184.521C215.979 184.329 216.496 184.233 217.088 184.233C218.045 184.233 218.815 184.491 219.399 185.006C219.982 185.516 220.274 186.209 220.274 187.084C220.274 187.863 220.094 188.538 219.734 189.107C219.378 189.677 218.768 190.26 217.902 190.857C217.018 191.468 216.425 191.906 216.124 192.17C215.828 192.434 215.621 192.687 215.502 192.929C215.384 193.17 215.325 193.464 215.325 193.811H220.588V195H213.93V194.474C213.93 193.863 214.012 193.346 214.176 192.922C214.345 192.493 214.62 192.079 215.003 191.678C215.386 191.272 215.983 190.787 216.794 190.222C217.624 189.638 218.189 189.128 218.49 188.69C218.795 188.248 218.948 187.747 218.948 187.187ZM222.311 193.229C223.036 193.79 223.854 194.07 224.765 194.07C225.494 194.07 226.071 193.893 226.495 193.537C226.923 193.177 227.137 192.696 227.137 192.095C227.137 190.755 226.178 190.085 224.259 190.085H223.377V188.978H224.218C225.918 188.978 226.768 188.349 226.768 187.091C226.768 185.929 226.119 185.348 224.82 185.348C224.077 185.348 223.377 185.598 222.721 186.1V184.835C223.414 184.434 224.223 184.233 225.148 184.233C226.05 184.233 226.775 184.47 227.322 184.944C227.869 185.414 228.142 186.024 228.142 186.776C228.142 188.162 227.436 189.053 226.023 189.449V189.477C226.788 189.559 227.392 189.83 227.834 190.29C228.281 190.746 228.504 191.315 228.504 191.999C228.504 192.951 228.16 193.719 227.472 194.303C226.788 194.886 225.877 195.178 224.738 195.178C223.735 195.178 222.926 194.991 222.311 194.617V193.229Z"
          fill="white"
        />
        <path
          d="M255.614 187.187C255.614 186.617 255.434 186.17 255.074 185.847C254.714 185.519 254.224 185.354 253.604 185.354C253.167 185.354 252.725 185.466 252.278 185.689C251.832 185.913 251.415 186.232 251.027 186.646V185.348C251.374 184.988 251.766 184.712 252.203 184.521C252.645 184.329 253.162 184.233 253.755 184.233C254.712 184.233 255.482 184.491 256.065 185.006C256.649 185.516 256.94 186.209 256.94 187.084C256.94 187.863 256.76 188.538 256.4 189.107C256.045 189.677 255.434 190.26 254.568 190.857C253.684 191.468 253.092 191.906 252.791 192.17C252.495 192.434 252.287 192.687 252.169 192.929C252.05 193.17 251.991 193.464 251.991 193.811H257.255V195H250.597V194.474C250.597 193.863 250.679 193.346 250.843 192.922C251.011 192.493 251.287 192.079 251.67 191.678C252.053 191.272 252.65 190.787 253.461 190.222C254.29 189.638 254.855 189.128 255.156 188.69C255.462 188.248 255.614 187.747 255.614 187.187ZM264.357 184.411V191.404H265.943V192.512H264.357V195H263.059V192.512H258.116V191.466C258.996 190.477 259.88 189.338 260.769 188.048C261.657 186.758 262.391 185.546 262.97 184.411H264.357ZM259.62 191.404H263.059V186.359C262.585 187.212 262.076 188.039 261.534 188.841C260.992 189.638 260.354 190.493 259.62 191.404Z"
          fill="black"
          fill-opacity="0.85"
        />
        <path
          d="M35.6143 217.187C35.6143 216.617 35.4342 216.17 35.0742 215.847C34.7142 215.519 34.2243 215.354 33.6045 215.354C33.167 215.354 32.7249 215.466 32.2783 215.689C31.8317 215.913 31.4147 216.232 31.0273 216.646V215.348C31.3737 214.988 31.7656 214.712 32.2031 214.521C32.6452 214.329 33.1624 214.233 33.7549 214.233C34.7119 214.233 35.4821 214.491 36.0654 215.006C36.6488 215.516 36.9404 216.209 36.9404 217.084C36.9404 217.863 36.7604 218.538 36.4004 219.107C36.0449 219.677 35.4342 220.26 34.5684 220.857C33.6842 221.468 33.0918 221.906 32.791 222.17C32.4948 222.434 32.2874 222.687 32.1689 222.929C32.0505 223.17 31.9912 223.464 31.9912 223.811H37.2549V225H30.5967V224.474C30.5967 223.863 30.6787 223.346 30.8428 222.922C31.0114 222.493 31.2871 222.079 31.6699 221.678C32.0527 221.272 32.6497 220.787 33.4609 220.222C34.2904 219.638 34.8555 219.128 35.1562 218.69C35.4616 218.248 35.6143 217.747 35.6143 217.187ZM45.2051 221.732C45.2051 222.767 44.861 223.601 44.1729 224.234C43.4893 224.868 42.5687 225.185 41.4111 225.185C40.4176 225.185 39.6771 225.036 39.1895 224.74V223.373C39.9049 223.838 40.6341 224.07 41.377 224.07C42.1152 224.07 42.71 223.868 43.1611 223.462C43.6169 223.052 43.8447 222.509 43.8447 221.835C43.8447 221.16 43.6077 220.636 43.1338 220.263C42.6644 219.884 41.999 219.695 41.1377 219.695C40.4723 219.695 39.873 219.725 39.3398 219.784L39.7295 214.411H44.6787V215.587H40.8574L40.6387 218.588L41.6025 218.547C42.7236 218.547 43.6032 218.827 44.2412 219.388C44.8838 219.944 45.2051 220.725 45.2051 221.732Z"
          fill="black"
          fill-opacity="0.85"
        />
        <path
          d="M72.2809 217.187C72.2809 216.617 72.1009 216.17 71.7409 215.847C71.3809 215.519 70.891 215.354 70.2712 215.354C69.8337 215.354 69.3916 215.466 68.945 215.689C68.4984 215.913 68.0814 216.232 67.694 216.646V215.348C68.0404 214.988 68.4323 214.712 68.8698 214.521C69.3119 214.329 69.8291 214.233 70.4216 214.233C71.3786 214.233 72.1488 214.491 72.7321 215.006C73.3155 215.516 73.6071 216.209 73.6071 217.084C73.6071 217.863 73.4271 218.538 73.0671 219.107C72.7116 219.677 72.1009 220.26 71.235 220.857C70.3509 221.468 69.7585 221.906 69.4577 222.17C69.1615 222.434 68.9541 222.687 68.8356 222.929C68.7171 223.17 68.6579 223.464 68.6579 223.811H73.9216V225H67.2634V224.474C67.2634 223.863 67.3454 223.346 67.5095 222.922C67.6781 222.493 67.9538 222.079 68.3366 221.678C68.7194 221.272 69.3164 220.787 70.1276 220.222C70.9571 219.638 71.5222 219.128 71.8229 218.69C72.1283 218.248 72.2809 217.747 72.2809 217.187ZM81.6257 215.771C81.0742 215.489 80.4977 215.348 79.8962 215.348C78.9802 215.348 78.2442 215.746 77.6882 216.544C77.1322 217.341 76.8496 218.431 76.8405 219.812H76.8747C77.376 218.841 78.1758 218.355 79.2741 218.355C80.1901 218.355 80.9216 218.654 81.4684 219.251C82.0153 219.848 82.2888 220.641 82.2888 221.63C82.2888 222.664 81.972 223.514 81.3386 224.18C80.7097 224.845 79.9053 225.178 78.9255 225.178C77.85 225.178 77.0046 224.758 76.3893 223.92C75.7787 223.077 75.4733 221.883 75.4733 220.338C75.4733 218.469 75.8744 216.986 76.6765 215.888C77.4831 214.785 78.5427 214.233 79.8552 214.233C80.6071 214.233 81.1973 214.336 81.6257 214.541V215.771ZM76.9225 221.534C76.9225 222.231 77.1071 222.828 77.4763 223.325C77.85 223.822 78.3444 224.07 78.9597 224.07C79.543 224.07 80.0169 223.856 80.3815 223.428C80.7461 222.999 80.9284 222.448 80.9284 221.773C80.9284 221.044 80.7552 220.477 80.4089 220.071C80.0671 219.666 79.5794 219.463 78.946 219.463C78.3444 219.463 77.8568 219.668 77.4831 220.078C77.1094 220.488 76.9225 220.974 76.9225 221.534Z"
          fill="black"
          fill-opacity="0.85"
        />
        <path
          d="M108.948 217.187C108.948 216.617 108.768 216.17 108.408 215.847C108.048 215.519 107.558 215.354 106.938 215.354C106.5 215.354 106.058 215.466 105.612 215.689C105.165 215.913 104.748 216.232 104.361 216.646V215.348C104.707 214.988 105.099 214.712 105.536 214.521C105.978 214.329 106.496 214.233 107.088 214.233C108.045 214.233 108.815 214.491 109.399 215.006C109.982 215.516 110.274 216.209 110.274 217.084C110.274 217.863 110.094 218.538 109.734 219.107C109.378 219.677 108.768 220.26 107.902 220.857C107.018 221.468 106.425 221.906 106.124 222.17C105.828 222.434 105.621 222.687 105.502 222.929C105.384 223.17 105.325 223.464 105.325 223.811H110.588V225H103.93V224.474C103.93 223.863 104.012 223.346 104.176 222.922C104.345 222.493 104.62 222.079 105.003 221.678C105.386 221.272 105.983 220.787 106.794 220.222C107.624 219.638 108.189 219.128 108.49 218.69C108.795 218.248 108.948 217.747 108.948 217.187ZM118.819 215.238C117.707 217.18 116.832 218.978 116.194 220.632C115.56 222.282 115.168 223.738 115.018 225H113.623C113.792 223.756 114.191 222.336 114.82 220.741C115.449 219.146 116.289 217.43 117.342 215.594H112.092V214.411H118.819V215.238Z"
          fill="black"
          fill-opacity="0.85"
        />
        <path
          d="M145.614 217.187C145.614 216.617 145.434 216.17 145.074 215.847C144.714 215.519 144.224 215.354 143.604 215.354C143.167 215.354 142.725 215.466 142.278 215.689C141.832 215.913 141.415 216.232 141.027 216.646V215.348C141.374 214.988 141.766 214.712 142.203 214.521C142.645 214.329 143.162 214.233 143.755 214.233C144.712 214.233 145.482 214.491 146.065 215.006C146.649 215.516 146.94 216.209 146.94 217.084C146.94 217.863 146.76 218.538 146.4 219.107C146.045 219.677 145.434 220.26 144.568 220.857C143.684 221.468 143.092 221.906 142.791 222.17C142.495 222.434 142.287 222.687 142.169 222.929C142.05 223.17 141.991 223.464 141.991 223.811H147.255V225H140.597V224.474C140.597 223.863 140.679 223.346 140.843 222.922C141.011 222.493 141.287 222.079 141.67 221.678C142.053 221.272 142.65 220.787 143.461 220.222C144.29 219.638 144.855 219.128 145.156 218.69C145.462 218.248 145.614 217.747 145.614 217.187ZM148.67 222.047C148.67 221.436 148.852 220.873 149.217 220.358C149.581 219.843 150.051 219.477 150.625 219.258C150.165 218.998 149.8 218.665 149.531 218.26C149.262 217.854 149.128 217.414 149.128 216.94C149.128 216.439 149.256 215.981 149.511 215.566C149.771 215.152 150.128 214.826 150.584 214.589C151.044 214.352 151.55 214.233 152.102 214.233C152.658 214.233 153.166 214.352 153.626 214.589C154.086 214.821 154.444 215.145 154.699 215.56C154.954 215.974 155.082 216.435 155.082 216.94C155.082 217.405 154.95 217.843 154.686 218.253C154.426 218.659 154.063 218.993 153.599 219.258C154.173 219.481 154.64 219.85 155 220.365C155.36 220.88 155.54 221.441 155.54 222.047C155.54 222.648 155.396 223.188 155.109 223.667C154.822 224.141 154.414 224.51 153.886 224.774C153.357 225.039 152.762 225.171 152.102 225.171C151.445 225.171 150.855 225.039 150.331 224.774C149.807 224.51 149.399 224.139 149.107 223.66C148.816 223.182 148.67 222.644 148.67 222.047ZM149.982 221.985C149.982 222.614 150.176 223.118 150.563 223.496C150.951 223.874 151.466 224.063 152.108 224.063C152.737 224.063 153.25 223.872 153.646 223.489C154.048 223.102 154.248 222.601 154.248 221.985C154.248 221.402 154.045 220.912 153.64 220.516C153.239 220.115 152.728 219.914 152.108 219.914C151.493 219.914 150.985 220.11 150.584 220.502C150.183 220.889 149.982 221.384 149.982 221.985ZM150.365 217.05C150.365 217.524 150.534 217.932 150.871 218.273C151.208 218.611 151.621 218.779 152.108 218.779C152.587 218.779 152.999 218.608 153.346 218.267C153.697 217.925 153.872 217.519 153.872 217.05C153.872 216.571 153.703 216.166 153.366 215.833C153.034 215.5 152.614 215.334 152.108 215.334C151.607 215.334 151.19 215.498 150.857 215.826C150.529 216.15 150.365 216.558 150.365 217.05Z"
          fill="black"
          fill-opacity="0.85"
        />
        <path
          d="M182.281 217.187C182.281 216.617 182.101 216.17 181.741 215.847C181.381 215.519 180.891 215.354 180.271 215.354C179.834 215.354 179.392 215.466 178.945 215.689C178.498 215.913 178.081 216.232 177.694 216.646V215.348C178.04 214.988 178.432 214.712 178.87 214.521C179.312 214.329 179.829 214.233 180.422 214.233C181.379 214.233 182.149 214.491 182.732 215.006C183.315 215.516 183.607 216.209 183.607 217.084C183.607 217.863 183.427 218.538 183.067 219.107C182.712 219.677 182.101 220.26 181.235 220.857C180.351 221.468 179.758 221.906 179.458 222.17C179.161 222.434 178.954 222.687 178.836 222.929C178.717 223.17 178.658 223.464 178.658 223.811H183.922V225H177.263V224.474C177.263 223.863 177.345 223.346 177.509 222.922C177.678 222.493 177.954 222.079 178.337 221.678C178.719 221.272 179.316 220.787 180.128 220.222C180.957 219.638 181.522 219.128 181.823 218.69C182.128 218.248 182.281 217.747 182.281 217.187ZM185.931 223.564C186.515 223.902 187.144 224.07 187.818 224.07C188.766 224.07 189.5 223.697 190.019 222.949C190.543 222.202 190.805 221.14 190.805 219.764C190.796 219.773 190.787 219.773 190.778 219.764C190.313 220.648 189.532 221.09 188.433 221.09C187.545 221.09 186.809 220.785 186.225 220.174C185.642 219.563 185.35 218.77 185.35 217.795C185.35 216.756 185.669 215.904 186.307 215.238C186.945 214.568 187.772 214.233 188.789 214.233C189.841 214.233 190.664 214.648 191.257 215.478C191.849 216.302 192.145 217.506 192.145 219.087C192.145 221.042 191.762 222.546 190.997 223.599C190.231 224.651 189.172 225.178 187.818 225.178C187.075 225.178 186.446 225.057 185.931 224.815V223.564ZM186.704 217.624C186.704 218.335 186.886 218.9 187.251 219.319C187.615 219.734 188.119 219.941 188.761 219.941C189.317 219.941 189.785 219.752 190.163 219.374C190.541 218.991 190.73 218.529 190.73 217.986C190.73 217.225 190.541 216.596 190.163 216.1C189.789 215.598 189.295 215.348 188.679 215.348C188.11 215.348 187.638 215.564 187.264 215.997C186.891 216.43 186.704 216.972 186.704 217.624Z"
          fill="black"
          fill-opacity="0.85"
        />
        <path
          d="M214.094 223.229C214.819 223.79 215.637 224.07 216.548 224.07C217.277 224.07 217.854 223.893 218.278 223.537C218.706 223.177 218.92 222.696 218.92 222.095C218.92 220.755 217.961 220.085 216.042 220.085H215.161V218.978H216.001C217.701 218.978 218.551 218.349 218.551 217.091C218.551 215.929 217.902 215.348 216.603 215.348C215.86 215.348 215.161 215.598 214.504 216.1V214.835C215.197 214.434 216.006 214.233 216.931 214.233C217.833 214.233 218.558 214.47 219.105 214.944C219.652 215.414 219.925 216.024 219.925 216.776C219.925 218.162 219.219 219.053 217.806 219.449V219.477C218.572 219.559 219.175 219.83 219.618 220.29C220.064 220.746 220.287 221.315 220.287 221.999C220.287 222.951 219.943 223.719 219.255 224.303C218.572 224.886 217.66 225.178 216.521 225.178C215.518 225.178 214.709 224.991 214.094 224.617V223.229ZM221.955 219.914C221.955 218.046 222.265 216.633 222.885 215.676C223.505 214.714 224.403 214.233 225.578 214.233C227.821 214.233 228.942 216.043 228.942 219.661C228.942 221.448 228.625 222.815 227.992 223.763C227.363 224.706 226.479 225.178 225.339 225.178C224.264 225.178 223.43 224.729 222.837 223.831C222.249 222.933 221.955 221.628 221.955 219.914ZM223.323 219.853C223.323 222.664 224.036 224.07 225.462 224.07C226.866 224.07 227.568 222.642 227.568 219.784C227.568 216.826 226.88 215.348 225.503 215.348C224.05 215.348 223.323 216.849 223.323 219.853Z"
          fill="black"
          fill-opacity="0.85"
        />
        <path
          d="M250.761 223.229C251.485 223.79 252.303 224.07 253.215 224.07C253.944 224.07 254.521 223.893 254.944 223.537C255.373 223.177 255.587 222.696 255.587 222.095C255.587 220.755 254.628 220.085 252.709 220.085H251.827V218.978H252.668C254.368 218.978 255.218 218.349 255.218 217.091C255.218 215.929 254.568 215.348 253.27 215.348C252.527 215.348 251.827 215.598 251.171 216.1V214.835C251.864 214.434 252.673 214.233 253.598 214.233C254.5 214.233 255.225 214.47 255.771 214.944C256.318 215.414 256.592 216.024 256.592 216.776C256.592 218.162 255.885 219.053 254.473 219.449V219.477C255.238 219.559 255.842 219.83 256.284 220.29C256.731 220.746 256.954 221.315 256.954 221.999C256.954 222.951 256.61 223.719 255.922 224.303C255.238 224.886 254.327 225.178 253.188 225.178C252.185 225.178 251.376 224.991 250.761 224.617V223.229ZM261.896 225V215.942C261.687 216.152 261.331 216.387 260.83 216.646C260.333 216.906 259.873 217.089 259.449 217.193V215.881C260.01 215.726 260.609 215.48 261.247 215.143C261.885 214.801 262.375 214.479 262.717 214.179H263.223V225H261.896Z"
          fill="black"
          fill-opacity="0.85"
        />
        <path
          d="M37.7881 255V245.942C37.5785 246.152 37.223 246.387 36.7217 246.646C36.2249 246.906 35.7646 247.089 35.3408 247.193V245.881C35.9014 245.726 36.5007 245.48 37.1387 245.143C37.7767 244.801 38.2666 244.479 38.6084 244.179H39.1143V255H37.7881Z"
          fill="black"
          fill-opacity="0.25"
        />
        <path
          d="M76.3893 247.187C76.3893 246.617 76.2093 246.17 75.8493 245.847C75.4893 245.519 74.9994 245.354 74.3796 245.354C73.9421 245.354 73.5 245.466 73.0534 245.689C72.6068 245.913 72.1898 246.232 71.8024 246.646V245.348C72.1488 244.988 72.5407 244.712 72.9782 244.521C73.4203 244.329 73.9375 244.233 74.53 244.233C75.487 244.233 76.2572 244.491 76.8405 245.006C77.4238 245.516 77.7155 246.209 77.7155 247.084C77.7155 247.863 77.5355 248.538 77.1755 249.107C76.82 249.677 76.2093 250.26 75.3434 250.857C74.4593 251.468 73.8669 251.906 73.5661 252.17C73.2699 252.434 73.0625 252.687 72.944 252.929C72.8255 253.17 72.7663 253.464 72.7663 253.811H78.03V255H71.3718V254.474C71.3718 253.863 71.4538 253.346 71.6179 252.922C71.7865 252.493 72.0622 252.079 72.445 251.678C72.8278 251.272 73.4248 250.787 74.236 250.222C75.0655 249.638 75.6306 249.128 75.9313 248.69C76.2367 248.248 76.3893 247.747 76.3893 247.187Z"
          fill="black"
          fill-opacity="0.25"
        />
        <path
          d="M108.202 253.229C108.927 253.79 109.745 254.07 110.657 254.07C111.386 254.07 111.962 253.893 112.386 253.537C112.814 253.177 113.029 252.696 113.029 252.095C113.029 250.755 112.069 250.085 110.151 250.085H109.269V248.978H110.11C111.81 248.978 112.659 248.349 112.659 247.091C112.659 245.929 112.01 245.348 110.711 245.348C109.968 245.348 109.269 245.598 108.613 246.1V244.835C109.305 244.434 110.114 244.233 111.039 244.233C111.942 244.233 112.666 244.47 113.213 244.944C113.76 245.414 114.034 246.024 114.034 246.776C114.034 248.162 113.327 249.053 111.914 249.449V249.477C112.68 249.559 113.284 249.83 113.726 250.29C114.173 250.746 114.396 251.315 114.396 251.999C114.396 252.951 114.052 253.719 113.364 254.303C112.68 254.886 111.769 255.178 110.629 255.178C109.627 255.178 108.818 254.991 108.202 254.617V253.229Z"
          fill="black"
          fill-opacity="0.25"
        />
        <path
          d="M150.249 244.411V251.404H151.835V252.512H150.249V255H148.95V252.512H144.008V251.466C144.887 250.477 145.771 249.338 146.66 248.048C147.549 246.758 148.283 245.546 148.861 244.411H150.249ZM145.512 251.404H148.95V246.359C148.476 247.212 147.968 248.039 147.426 248.841C146.883 249.638 146.245 250.493 145.512 251.404Z"
          fill="black"
          fill-opacity="0.25"
        />
        <path
          d="M187.763 251.732C187.763 252.767 187.419 253.601 186.731 254.234C186.048 254.868 185.127 255.185 183.969 255.185C182.976 255.185 182.235 255.036 181.748 254.74V253.373C182.463 253.838 183.192 254.07 183.935 254.07C184.674 254.07 185.268 253.868 185.719 253.462C186.175 253.052 186.403 252.509 186.403 251.835C186.403 251.16 186.166 250.636 185.692 250.263C185.223 249.884 184.557 249.695 183.696 249.695C183.031 249.695 182.431 249.725 181.898 249.784L182.288 244.411H187.237V245.587H183.416L183.197 248.588L184.161 248.547C185.282 248.547 186.161 248.827 186.799 249.388C187.442 249.944 187.763 250.725 187.763 251.732Z"
          fill="black"
          fill-opacity="0.25"
        />
        <path
          d="M224.184 245.771C223.633 245.489 223.056 245.348 222.454 245.348C221.538 245.348 220.802 245.746 220.246 246.544C219.69 247.341 219.408 248.431 219.399 249.812H219.433C219.934 248.841 220.734 248.355 221.832 248.355C222.748 248.355 223.48 248.654 224.027 249.251C224.574 249.848 224.847 250.641 224.847 251.63C224.847 252.664 224.53 253.514 223.897 254.18C223.268 254.845 222.464 255.178 221.484 255.178C220.408 255.178 219.563 254.758 218.948 253.92C218.337 253.077 218.032 251.883 218.032 250.338C218.032 248.469 218.433 246.986 219.235 245.888C220.041 244.785 221.101 244.233 222.413 244.233C223.165 244.233 223.756 244.336 224.184 244.541V245.771ZM219.481 251.534C219.481 252.231 219.665 252.828 220.035 253.325C220.408 253.822 220.903 254.07 221.518 254.07C222.101 254.07 222.575 253.856 222.94 253.428C223.304 252.999 223.487 252.448 223.487 251.773C223.487 251.044 223.314 250.477 222.967 250.071C222.625 249.666 222.138 249.463 221.504 249.463C220.903 249.463 220.415 249.668 220.041 250.078C219.668 250.488 219.481 250.974 219.481 251.534Z"
          fill="black"
          fill-opacity="0.25"
        />
        <path
          d="M261.377 245.238C260.265 247.18 259.39 248.978 258.752 250.632C258.118 252.282 257.727 253.738 257.576 255H256.182C256.35 253.756 256.749 252.336 257.378 250.741C258.007 249.146 258.848 247.43 259.9 245.594H254.65V244.411H261.377V245.238Z"
          fill="black"
          fill-opacity="0.25"
        />
      </g>
    </g>
  </g>
  <defs>
    <filter id="filter0_d_77_4420" x="0" y="0" width="296" height="282" filterUnits="userSpaceOnUse" color-interpolation-filters="sRGB">
      <feFlood flood-opacity="0" result="BackgroundImageFix" />
      <feColorMatrix in="SourceAlpha" type="matrix" values="0 0 0 0 0 0 0 0 0 0 0 0 0 0 0 0 0 0 127 0" result="hardAlpha" />
      <feOffset dy="2" />
      <feGaussianBlur stdDeviation="4" />
      <feColorMatrix type="matrix" values="0 0 0 0 0 0 0 0 0 0 0 0 0 0 0 0 0 0 0.15 0" />
      <feBlend mode="normal" in2="BackgroundImageFix" result="effect1_dropShadow_77_4420" />
      <feBlend mode="normal" in="SourceGraphic" in2="effect1_dropShadow_77_4420" result="shape" />
    </filter>
    <filter id="filter1_i_77_4420" x="8" y="6" width="280" height="40" filterUnits="userSpaceOnUse" color-interpolation-filters="sRGB">
      <feFlood flood-opacity="0" result="BackgroundImageFix" />
      <feBlend mode="normal" in="SourceGraphic" in2="BackgroundImageFix" result="shape" />
      <feColorMatrix in="SourceAlpha" type="matrix" values="0 0 0 0 0 0 0 0 0 0 0 0 0 0 0 0 0 0 127 0" result="hardAlpha" />
      <feOffset dy="-1" />
      <feComposite in2="hardAlpha" operator="arithmetic" k2="-1" k3="1" />
      <feColorMatrix type="matrix" values="0 0 0 0 0.941176 0 0 0 0 0.941176 0 0 0 0 0.941176 0 0 0 1 0" />
      <feBlend mode="normal" in2="shape" result="effect1_innerShadow_77_4420" />
    </filter>
    <clipPath id="clip0_77_4420">
      <rect x="8" y="6" width="280" height="266" rx="2" fill="white" />
    </clipPath>
    <clipPath id="clip1_77_4420">
      <rect width="69" height="22" fill="white" transform="translate(113.5 15)" />
    </clipPath>
    <clipPath id="clip2_77_4420">
      <rect width="256" height="210" fill="white" transform="translate(20 54)" />
    </clipPath>
    <clipPath id="clip3_77_4420">
      <rect width="256" height="30" fill="white" transform="translate(20 54)" />
    </clipPath>
  </defs>
</svg>
