<svg width="157px" height="138px" viewBox="0 0 200 160" xmlns="http://www.w3.org/2000/svg" xmlns:xlink="http://www.w3.org/1999/xlink">
  <defs>
    <linearGradient x1="100%" y1="50%" x2="0%" y2="50%" id="linearGradient-1">
      <stop stop-color="#1677FF" offset="0%"></stop>
      <stop stop-color="#FFFFFF" offset="100%"></stop>
    </linearGradient>
    <linearGradient x1="50%" y1="0.0897381757%" x2="50%" y2="100%" id="linearGradient-2">
      <stop stop-color="#000000" stop-opacity="0" offset="0.0897381757%"></stop>
      <stop stop-color="#000000" offset="100%"></stop>
    </linearGradient>
    <rect id="path-3" x="7.20930233" y="7.22123894" width="140.581395" height="96.2831858" rx="2.40310078"></rect>
    <filter x="-0.4%" y="-0.5%" width="100.7%" height="101.0%" filterUnits="objectBoundingBox" id="filter-4">
      <feGaussianBlur stdDeviation="0.5" in="SourceAlpha" result="shadowBlurInner1"></feGaussianBlur>
      <feOffset dx="0" dy="0" in="shadowBlurInner1" result="shadowOffsetInner1"></feOffset>
      <feComposite in="shadowOffsetInner1" in2="SourceAlpha" operator="arithmetic" k2="-1" k3="1" result="shadowInnerInner1"></feComposite>
      <feColorMatrix values="0 0 0 0 0   0 0 0 0 0   0 0 0 0 0  0 0 0 0.2 0" type="matrix" in="shadowInnerInner1"></feColorMatrix>
    </filter>
    <linearGradient x1="-1.11022302e-14%" y1="50%" x2="100%" y2="50%" id="linearGradient-5">
      <stop stop-color="#FF0000" offset="0%"></stop>
      <stop stop-color="#FFEC00" offset="15.8904589%"></stop>
      <stop stop-color="#19FF00" offset="32.7501249%"></stop>
      <stop stop-color="#00BFFF" offset="48.4671926%"></stop>
      <stop stop-color="#0016FF" offset="66.1726094%"></stop>
      <stop stop-color="#FF00F6" offset="84.4271399%"></stop>
      <stop stop-color="#FF0000" offset="100%"></stop>
    </linearGradient>
    <rect id="path-6" x="0" y="1.20353982" width="140" height="4.81415929" rx="2.40310078"></rect>
    <filter x="-0.4%" y="-10.4%" width="100.7%" height="120.8%" filterUnits="objectBoundingBox" id="filter-7">
      <feGaussianBlur stdDeviation="0.5" in="SourceAlpha" result="shadowBlurInner1"></feGaussianBlur>
      <feOffset dx="0" dy="0" in="shadowBlurInner1" result="shadowOffsetInner1"></feOffset>
      <feComposite in="shadowOffsetInner1" in2="SourceAlpha" operator="arithmetic" k2="-1" k3="1" result="shadowInnerInner1"></feComposite>
      <feColorMatrix values="0 0 0 0 0   0 0 0 0 0   0 0 0 0 0  0 0 0 0.199332817 0" type="matrix" in="shadowInnerInner1"></feColorMatrix>
    </filter>
    <rect id="path-8" x="63.6821705" y="0" width="7.20930233" height="7.22123894" rx="3.60465116"></rect>
    <rect id="path-9" x="0" y="0" width="97.3255814" height="4.81415929" rx="2.40310078"></rect>
    <linearGradient x1="100%" y1="50%" x2="0%" y2="50%" id="linearGradient-11">
      <stop stop-color="#1677FF" offset="0%"></stop>
      <stop stop-color="#003CF0" stop-opacity="0" offset="100%"></stop>
    </linearGradient>
    <rect id="path-12" x="0" y="1.20353982" width="140" height="4.81415929" rx="2.40310078"></rect>
    <filter x="-0.4%" y="-10.4%" width="100.7%" height="120.8%" filterUnits="objectBoundingBox" id="filter-13">
      <feGaussianBlur stdDeviation="0.5" in="SourceAlpha" result="shadowBlurInner1"></feGaussianBlur>
      <feOffset dx="0" dy="0" in="shadowBlurInner1" result="shadowOffsetInner1"></feOffset>
      <feComposite in="shadowOffsetInner1" in2="SourceAlpha" operator="arithmetic" k2="-1" k3="1" result="shadowInnerInner1"></feComposite>
      <feColorMatrix values="0 0 0 0 0   0 0 0 0 0   0 0 0 0 0  0 0 0 0.2 0" type="matrix" in="shadowInnerInner1"></feColorMatrix>
    </filter>
    <rect id="path-14" x="133.341085" y="0" width="7.20930233" height="7.22123894" rx="3.60465116"></rect>
  </defs>
  <rect x="10" y="10" width="20" height="20" rx="4" fill="#409eff"></rect>
  <rect x="7" y="7" width="26" height="26" rx="4" stroke="#ccc" stroke-width="1" fill="none"></rect>
  <g stroke="none" stroke-width="1" fill="none" fill-rule="evenodd">
    <g transform="translate(-500, -2620)">
      <g transform="translate(540, 2649)">
        <g>
          <g fill="#fff" fill-rule="nonzero" stroke="#000000" stroke-opacity="0.123409565" stroke-width="0.5">
            <path
              d="M148.838725,-1.60917407e-15 L6.16127451,-6.9723565e-15 C4.01886514,4.05113992e-15 3.24197573,0.223069298 2.45874288,0.641946808 C1.67551004,1.06082432 1.06082432,1.67551004 0.641946808,2.45874288 C0.223069298,3.24197573 0,4.01886514 0,6.16127451 L0,129.838725 C0,131.981135 0.223069298,132.758024 0.641946808,133.541257 C1.06082432,134.32449 1.67551004,134.939176 2.45874288,135.358053 C3.24197573,135.776931 4.01886514,136 6.16127451,136 L148.838725,136 C150.981135,136 151.758024,135.776931 152.541257,135.358053 C153.32449,134.939176 153.939176,134.32449 154.358053,133.541257 C154.776931,132.758024 155,131.981135 155,129.838725 L155,6.16127451 C155,4.01886514 154.776931,3.24197573 154.358053,2.45874288 C153.939176,1.67551004 153.32449,1.06082432 152.541257,0.641946808 C151.758024,0.223069298 150.981135,9.34976478e-16 148.838725,-1.60917407e-15 Z"
            ></path>
          </g>
          <g id="Rectangle备份-61">
            <use fill="url(#linearGradient-1)" fill-rule="evenodd" xlink:href="#path-3"></use>
            <use fill="url(#linearGradient-2)" fill-rule="evenodd" xlink:href="#path-3"></use>
            <use fill="black" fill-opacity="1" filter="url(#filter-4)" xlink:href="#path-3"></use>
          </g>
        </g>
        <g transform="translate(7.209302, 109.522124)">
          <g>
            <g id="Rectangle">
              <use fill="url(#linearGradient-5)" fill-rule="evenodd" xlink:href="#path-6"></use>
              <use fill="black" fill-opacity="1" filter="url(#filter-7)" xlink:href="#path-6"></use>
            </g>
            <g id="Rectangle">
              <rect
                stroke="#FFFFFF"
                stroke-width="1.20155039"
                stroke-linejoin="square"
                fill="#1677FF"
                fill-rule="evenodd"
                x="64.2829457"
                y="0.600775194"
                width="6.00775194"
                height="6.01968855"
                rx="3.00387597"
              ></rect>
              <rect stroke-opacity="0.06" stroke="#000000" stroke-width="0.600775194" x="63.3817829" y="-0.300387597" width="7.81007752" height="7.82201413" rx="3.90503876"></rect>
            </g>
          </g>
          <g transform="translate(0, 12.035398)">
            <g transform="translate(0, 1.203540)">
              <mask id="mask-10" fill="white">
                <use xlink:href="#path-9"></use>
              </mask>
              <g mask="url(#mask-10)" fill="#000000" fill-opacity="0.056043078">
                <path
                  d="M0,0 L2.40310078,0 L2.40310078,2.40707965 L0,2.40707965 Z M4.80620155,0 L7.20930233,0 L7.20930233,2.40707965 L4.80620155,2.40707965 Z M2.40310078,2.40707965 L4.80620155,2.40707965 L4.80620155,4.81415929 L2.40310078,4.81415929 Z M7.20930233,2.40707965 L9.6124031,2.40707965 L9.6124031,4.81415929 L7.20930233,4.81415929 Z M12.0155039,2.40707965 L14.4186047,2.40707965 L14.4186047,4.81415929 L12.0155039,4.81415929 Z M16.8217054,2.40707965 L19.2248062,2.40707965 L19.2248062,4.81415929 L16.8217054,4.81415929 Z M21.627907,2.40707965 L24.0310078,2.40707965 L24.0310078,4.81415929 L21.627907,4.81415929 Z M26.4341085,2.40707965 L28.8372093,2.40707965 L28.8372093,4.81415929 L26.4341085,4.81415929 Z M31.2403101,2.40707965 L33.6434109,2.40707965 L33.6434109,4.81415929 L31.2403101,4.81415929 Z M36.0465116,2.40707965 L38.4496124,2.40707965 L38.4496124,4.81415929 L36.0465116,4.81415929 Z M40.8527132,2.40707965 L43.255814,2.40707965 L43.255814,4.81415929 L40.8527132,4.81415929 Z M45.6589147,2.40707965 L48.0620155,2.40707965 L48.0620155,4.81415929 L45.6589147,4.81415929 Z M50.4651163,2.40707965 L52.8682171,2.40707965 L52.8682171,4.81415929 L50.4651163,4.81415929 Z M9.6124031,0 L12.0155039,0 L12.0155039,2.40707965 L9.6124031,2.40707965 Z M14.4186047,0 L16.8217054,0 L16.8217054,2.40707965 L14.4186047,2.40707965 Z M19.2248062,0 L21.627907,0 L21.627907,2.40707965 L19.2248062,2.40707965 Z M24.0310078,0 L26.4341085,0 L26.4341085,2.40707965 L24.0310078,2.40707965 Z M28.8372093,0 L31.2403101,0 L31.2403101,2.40707965 L28.8372093,2.40707965 Z M33.6434109,0 L36.0465116,0 L36.0465116,2.40707965 L33.6434109,2.40707965 Z M38.4496124,0 L40.8527132,0 L40.8527132,2.40707965 L38.4496124,2.40707965 Z M43.255814,0 L45.6589147,0 L45.6589147,2.40707965 L43.255814,2.40707965 Z M48.0620155,0 L50.4651163,0 L50.4651163,2.40707965 L48.0620155,2.40707965 Z M52.8682171,0 L55.2713178,0 L55.2713178,2.40707965 L52.8682171,2.40707965 Z M57.6744186,0 L60.0775194,0 L60.0775194,2.40707965 L57.6744186,2.40707965 Z M62.4806202,0 L64.8837209,0 L64.8837209,2.40707965 L62.4806202,2.40707965 Z M67.2868217,0 L69.6899225,0 L69.6899225,2.40707965 L67.2868217,2.40707965 Z M72.0930233,0 L74.496124,0 L74.496124,2.40707965 L72.0930233,2.40707965 Z M76.8992248,0 L79.3023256,0 L79.3023256,2.40707965 L76.8992248,2.40707965 Z M84.1085271,0 L84.1085271,2.40707965 L81.7054264,2.40707965 L81.7054264,0 L84.1085271,0 Z M86.5116279,0 L88.9147287,0 L88.9147287,2.40707965 L86.5116279,2.40707965 Z M91.3178295,0 L93.7209302,0 L93.7209302,2.40707965 L91.3178295,2.40707965 Z M99.7286822,0 L102.131783,0 L102.131783,2.40707965 L99.7286822,2.40707965 Z M96.124031,0 L98.5271318,0 L98.5271318,2.40707965 L96.124031,2.40707965 Z M55.2713178,2.40707965 L57.6744186,2.40707965 L57.6744186,4.81415929 L55.2713178,4.81415929 Z M60.0775194,2.40707965 L62.4806202,2.40707965 L62.4806202,4.81415929 L60.0775194,4.81415929 Z M64.8837209,2.40707965 L67.2868217,2.40707965 L67.2868217,4.81415929 L64.8837209,4.81415929 Z M69.6899225,2.40707965 L72.0930233,2.40707965 L72.0930233,4.81415929 L69.6899225,4.81415929 Z M74.496124,2.40707965 L76.8992248,2.40707965 L76.8992248,4.81415929 L74.496124,4.81415929 Z M79.3023256,2.40707965 L81.7054264,2.40707965 L81.7054264,4.81415929 L79.3023256,4.81415929 Z M84.1085271,2.40707965 L86.5116279,2.40707965 L86.5116279,4.81415929 L84.1085271,4.81415929 Z M88.9147287,2.40707965 L91.3178295,2.40707965 L91.3178295,4.81415929 L88.9147287,4.81415929 Z M93.7209302,2.40707965 L96.124031,2.40707965 L96.124031,4.81415929 L93.7209302,4.81415929 Z M97.9263566,2.40707965 L100.329457,2.40707965 L100.329457,4.81415929 L97.9263566,4.81415929 Z"
                ></path>
              </g>
            </g>
            <g id="Rectangle">
              <use fill="url(#linearGradient-11)" fill-rule="evenodd" xlink:href="#path-12"></use>
              <use fill="black" fill-opacity="1" filter="url(#filter-13)" xlink:href="#path-12"></use>
            </g>
            <g id="Rectangle">
              <rect stroke="#FFFFFF" stroke-width="1.20155039" stroke-linejoin="square" x="133.94186" y="0.600775194" width="6.00775194" height="6.01968855" rx="3.00387597"></rect>
              <rect stroke-opacity="0.06" stroke="#000000" stroke-width="0.600775194" x="133.040698" y="-0.300387597" width="7.81007752" height="7.82201413" rx="3.90503876"></rect>
            </g>
          </g>
        </g>
      </g>
    </g>
  </g>
</svg>
