<svg xmlns="http://www.w3.org/2000/svg" width="124" height="30" viewBox="0 0 124 30">
  <g id="countDown" transform="translate(-1513 -917)">
    <g id="组_65" data-name="组 65">
      <path id="路径_44" data-name="路径 44" d="M3,0H27a3,3,0,0,1,3,3V27a3,3,0,0,1-3,3H3a3,3,0,0,1-3-3V3A3,3,0,0,1,3,0Z" transform="translate(1513 917)" fill="#f66" />
      <text id="_12" data-name="12" transform="translate(1528 937)" fill="#fff" font-size="12" font-family="MicrosoftYaHei, Microsoft YaHei">
        <tspan x="-7.037" y="0">12</tspan>
      </text>
    </g>
    <g id="组_66" data-name="组 66" transform="translate(47)">
      <path id="路径_44-2" data-name="路径 44" d="M3,0H27a3,3,0,0,1,3,3V27a3,3,0,0,1-3,3H3a3,3,0,0,1-3-3V3A3,3,0,0,1,3,0Z" transform="translate(1513 917)" fill="#f66" />
      <text id="_06" data-name="06" transform="translate(1528 937)" fill="#fff" font-size="12" font-family="MicrosoftYaHei, Microsoft YaHei">
        <tspan x="-7.037" y="0">06</tspan>
      </text>
    </g>
    <g id="组_67" data-name="组 67" transform="translate(94)">
      <path id="路径_44-3" data-name="路径 44" d="M3,0H27a3,3,0,0,1,3,3V27a3,3,0,0,1-3,3H3a3,3,0,0,1-3-3V3A3,3,0,0,1,3,0Z" transform="translate(1513 917)" fill="#f66" />
      <text id="_58" data-name="58" transform="translate(1528 937)" fill="#fff" font-size="12" font-family="MicrosoftYaHei, Microsoft YaHei" class="count-group">
        <tspan x="-7.037" y="0">58</tspan>
        <animate attributeName="visibility" values="visible;hidden;hidden" dur="3s" repeatCount="indefinite" />
      </text>
      <text id="_58" data-name="58" transform="translate(1528 937)" fill="#fff" font-size="12" font-family="MicrosoftYaHei, Microsoft YaHei" class="count-group">
        <tspan x="-7.037" y="0">57</tspan>
        <animate attributeName="visibility" values="hidden;visible;hidden" dur="3s" repeatCount="indefinite" />
      </text>
      <text id="_58" data-name="58" transform="translate(1528 937)" fill="#fff" font-size="12" font-family="MicrosoftYaHei, Microsoft YaHei" class="count-group">
        <tspan x="-7.037" y="0">56</tspan>
        <animate attributeName="visibility" values="hidden;hidden;visible" dur="3s" repeatCount="indefinite" />
      </text>
    </g>
    <text id=":" transform="translate(1552 937)" fill="#8f8f8f" font-size="12" font-family="MicrosoftYaHei, Microsoft YaHei">
      <tspan x="-1.444" y="0">:</tspan>
    </text>
    <text id=":-2" data-name=":" transform="translate(1599 937)" fill="#8f8f8f" font-size="12" font-family="MicrosoftYaHei, Microsoft YaHei">
      <tspan x="-1.444" y="0">:</tspan>
    </text>
  </g>
</svg>
