<svg xmlns="http://www.w3.org/2000/svg" width="107.742" height="106" viewBox="0 0 107.742 106">
  <g id="empty" transform="translate(-437 -917)">
    <path id="无数据"
      d="M10.774,48.125h1.451a.718.718,0,0,1,.7.718.707.707,0,0,1-.7.718H10.774v1.451a.718.718,0,0,1-.718.7.707.707,0,0,1-.718-.7V49.561H7.887a.718.718,0,0,1-.7-.718.707.707,0,0,1,.7-.718H9.338V46.674a.718.718,0,0,1,.718-.7.707.707,0,0,1,.718.7v1.451Zm94.813-5.746V40.928a.707.707,0,0,0-.718-.7.718.718,0,0,0-.718.7v1.451H102.7a.707.707,0,0,0-.7.718.719.719,0,0,0,.7.718h1.451v1.451a.707.707,0,0,0,.718.7.718.718,0,0,0,.718-.7V43.815h1.451a.707.707,0,0,0,.7-.718.718.718,0,0,0-.7-.718h-1.451ZM53.4,66.082H17.234a1.437,1.437,0,0,1,0-2.873h6.515a5.709,5.709,0,0,1-.764-2.866V18.668a5.742,5.742,0,0,1,5.752-5.739h4.3V11.485a5.742,5.742,0,0,1,5.752-5.739H73.259a5.739,5.739,0,0,1,5.752,5.739V53.16a5.711,5.711,0,0,1-.766,2.866h7.947a1.437,1.437,0,1,1,0,2.873H68.955v1.444a5.711,5.711,0,0,1-.766,2.866h.77a1.437,1.437,0,0,1,0,2.873H61.4a2.873,2.873,0,0,1-4.5,3.5Zm5.252-2.873H63.22a2.864,2.864,0,0,0,2.862-2.88V18.6a2.782,2.782,0,0,0-2.773-2.8H28.631a2.785,2.785,0,0,0-2.773,2.8V60.328a2.879,2.879,0,0,0,2.86,2.88H50.525l-.738-.74a2.867,2.867,0,0,1-.747-2.777l-1.356-1.358A10.073,10.073,0,1,1,49.715,56.3l1.358,1.358a2.863,2.863,0,0,1,2.777.746l4.8,4.8Zm10.3-7.183h4.323a2.875,2.875,0,0,0,2.86-2.873V11.492a2.864,2.864,0,0,0-2.86-2.873h-34.5a2.875,2.875,0,0,0-2.859,2.873v1.437H63.2a5.739,5.739,0,0,1,5.752,5.739ZM18.316,3.232h2.14a1.078,1.078,0,1,1,0,2.155h-2.14v2.14a1.078,1.078,0,1,1-2.155,0V5.387h-2.14a1.078,1.078,0,1,1,0-2.155h2.14V1.092a1.078,1.078,0,1,1,2.155,0v2.14ZM1.436,64.645a1.441,1.441,0,0,1,1.432-1.437H11.5a1.437,1.437,0,0,1,0,2.873H2.869a1.431,1.431,0,0,1-1.432-1.437Zm45.3-9.286a7.184,7.184,0,1,0-10.159,0A7.184,7.184,0,0,0,46.74,55.359ZM31.6,21.548a1.437,1.437,0,0,1,1.435-1.437h15.8a1.437,1.437,0,0,1,0,2.873h-15.8A1.432,1.432,0,0,1,31.6,21.548Zm0,7.183a1.432,1.432,0,0,1,1.427-1.437H56.036a1.437,1.437,0,0,1,0,2.873H33.031A1.428,1.428,0,0,1,31.6,28.731Zm0,7.183a1.435,1.435,0,0,1,1.434-1.437H43.1a1.437,1.437,0,0,1,0,2.873H33.038A1.431,1.431,0,0,1,31.6,35.914ZM4.31,27.295a4.31,4.31,0,1,1,4.31-4.31A4.31,4.31,0,0,1,4.31,27.295Zm0-2.155a2.155,2.155,0,1,0-2.155-2.155A2.155,2.155,0,0,0,4.31,25.14Zm89.067-6.465a4.31,4.31,0,1,1,4.31-4.31,4.31,4.31,0,0,1-4.31,4.31Zm0-2.155a2.155,2.155,0,1,0-2.155-2.155,2.155,2.155,0,0,0,2.155,2.155Z"
      transform="translate(437 917)" fill="#ccc" />
    <text id="暂无数据" transform="translate(491 1020)" fill="#8f8f8f" font-size="12"
      font-family="MicrosoftYaHei, Microsoft YaHei">
      <tspan x="-24" y="0">暂无数据</tspan>
    </text>
  </g>
</svg>