<svg xmlns="http://www.w3.org/2000/svg" width="108" height="124" viewBox="0 0 108 124">
  <g id="error" transform="translate(-359 -1119)">
    <g id="重大案件管理" transform="translate(369.539 1098.565)">
      <path
        id="路径_48"
        data-name="路径 48"
        d="M165.807,475.188a2.508,2.508,0,1,1,0-5.007h17.547a2.508,2.508,0,1,1,0,5.007Zm.465,15.453a2.508,2.508,0,1,1,0-5.007h10.579a2.508,2.508,0,1,1,0,5.007Zm0,0"
        transform="translate(-144.494 -417.398)"
        fill="#f56c6c"
      />
      <path
        id="路径_49"
        data-name="路径 49"
        d="M12.115,91.036a4.668,4.668,0,0,1-4.655-4.654V25.09a4.669,4.669,0,0,1,4.655-4.655H68.608a4.668,4.668,0,0,1,4.655,4.655V53.01a2.508,2.508,0,1,1-5.007,0V25.442H12.468V86.03H27a2.508,2.508,0,1,1,0,5.007H12.115Zm0,0"
        transform="translate(0)"
        fill="#f56c6c"
      />
      <path
        id="路径_50"
        data-name="路径 50"
        d="M163.156,261.184a2.412,2.412,0,0,1,2.653-2.354h37.565a2.414,2.414,0,0,1,2.653,2.354,2.528,2.528,0,0,1-2.653,2.5H165.808a2.5,2.5,0,0,1-2.653-2.5Zm60.812,46.654-19.4-35.523s-1.227-2.3-3.031-2.3l-.036,0-.036,0c-1.8,0-3.031,2.3-3.031,2.3l-19.4,35.523a2.959,2.959,0,0,0-.336,3.268c.982,1.512,3.583,1.138,3.583,1.138l10.031.005v.007h18.378v-.007l10.031-.005s2.6.374,3.583-1.138a2.959,2.959,0,0,0-.336-3.268Zm-7.3.075-30.519-.009s-1.033.055-1.319-.409.4-1.564.4-1.564l15.289-28.774s.583-1.073,1.2-1.062c.556.01,1.085,1.1,1.085,1.1l14.961,28.924s.515.931.293,1.375c-.256.513-1.392.422-1.392.422Zm0,0"
        transform="translate(-144.496 -221.248)"
        fill="#f56c6c"
      />
      <path
        id="路径_51"
        data-name="路径 51"
        d="M667.919,647.883a2.293,2.293,0,0,1-4.586,0v-9.376a2.293,2.293,0,0,1,4.586,0Zm.153,5.35a2.242,2.242,0,1,1-2.242-2.242A2.242,2.242,0,0,1,668.071,653.233Zm0,0"
        transform="translate(-608.698 -571.489)"
        fill="#f56c6c"
      />
    </g>
    <text id="页面错误" transform="translate(413 1213)" fill="#494949" font-size="12" font-family="MicrosoftYaHei, Microsoft YaHei"><tspan x="-24" y="0">页面错误</tspan></text>
    <text id="请检查网络是否正常" transform="translate(413 1240)" fill="#949494" font-size="12" font-family="MicrosoftYaHei, Microsoft YaHei"><tspan x="-54" y="0">请检查网络是否正常</tspan></text>
  </g>
</svg>
