<svg xmlns="http://www.w3.org/2000/svg" width="274" height="361" viewBox="0 0 274 361">
  <g id="grid" transform="translate(-715 -754)">
    <g id="组_40" data-name="组 40" transform="translate(125 25)">
      <g id="矩形_66" data-name="矩形 66" transform="translate(590 729)" fill="none" stroke="rgba(112,112,112,0.3)"
        stroke-width="1">
        <rect width="92" height="121" stroke="none" />
        <rect x="0.5" y="0.5" width="91" height="120" fill="none" />
      </g>
      <path id="wechat"
        d="M41.169,105.791a11.574,11.574,0,0,0-5.411-5.514,14.9,14.9,0,0,0-13.35.052,11.07,11.07,0,0,0-5.913,7.283,9.354,9.354,0,0,0,1.19,6.932,12.779,12.779,0,0,0,8.7,5.684,16.019,16.019,0,0,0,7.591-.5c1.473.57,2.786,1.494,4.214,2.18q-.553-1.851-1.183-3.678a11.9,11.9,0,0,0,3.927-4.338,9.407,9.407,0,0,0,.236-8.1ZM23.8,89.226A17.7,17.7,0,0,0,9.3,88.1,14.756,14.756,0,0,0,1.7,94.082a11.224,11.224,0,0,0-1.4,8.6,13.178,13.178,0,0,0,5.708,7.723c-.525,1.487-1.024,2.973-1.5,4.471,1.706-.892,3.412-1.825,5.12-2.732a19.007,19.007,0,0,0,6.4.906,10.778,10.778,0,0,1-.446-5.164,10.958,10.958,0,0,1,3.489-6.219,15.133,15.133,0,0,1,11.368-3.729,13.246,13.246,0,0,0-6.692-8.715H23.8Zm3.033,17.48a1.723,1.723,0,1,1-2.2-2.224,1.742,1.742,0,0,1,2.2,2.224Zm8.391.161a1.76,1.76,0,0,1-2.758.472,2.62,2.62,0,0,1-.6-1.277,1.937,1.937,0,0,1,1.627-1.671,1.754,1.754,0,0,1,1.706,2.478h.026ZM22.705,95.573a2.531,2.531,0,1,1,0-.021l0,.021ZM12.1,96a2.151,2.151,0,1,1-2.8-2.543A2.162,2.162,0,0,1,12.1,96Z"
        transform="translate(615.028 671.59)" fill="#67c23a" />
      <text id="微信" transform="translate(636 828)" fill="#949494" font-size="16"
        font-family="MicrosoftYaHei, Microsoft YaHei">
        <tspan x="-16" y="0">微信</tspan>
      </text>
    </g>
    <g id="组_41" data-name="组 41" transform="translate(216 25)">
      <g id="矩形_66-2" data-name="矩形 66" transform="translate(590 729)" fill="none" stroke="#d4d4d4" stroke-width="1">
        <rect width="92" height="121" stroke="none" />
        <rect x="0.5" y="0.5" width="91" height="120" fill="none" />
      </g>
      <text id="朋友圈" transform="translate(636 828)" fill="#949494" font-size="16"
        font-family="MicrosoftYaHei, Microsoft YaHei">
        <tspan x="-24" y="0">朋友圈</tspan>
      </text>
    </g>
    <g id="组_42" data-name="组 42" transform="translate(307 25)">
      <g id="矩形_66-3" data-name="矩形 66" transform="translate(590 729)" fill="none" stroke="#d4d4d4" stroke-width="1">
        <rect width="92" height="121" stroke="none" />
        <rect x="0.5" y="0.5" width="91" height="120" fill="none" />
      </g>
      <text id="支付宝" transform="translate(636 828)" fill="#949494" font-size="16"
        font-family="MicrosoftYaHei, Microsoft YaHei">
        <tspan x="-24" y="0">支付宝</tspan>
      </text>
    </g>
    <g id="组_43" data-name="组 43" transform="translate(307 145)">
      <g id="矩形_66-4" data-name="矩形 66" transform="translate(590 729)" fill="none" stroke="#d4d4d4" stroke-width="1">
        <rect width="92" height="121" stroke="none" />
        <rect x="0.5" y="0.5" width="91" height="120" fill="none" />
      </g>
      <text id="二维码" transform="translate(636 828)" fill="#949494" font-size="16"
        font-family="MicrosoftYaHei, Microsoft YaHei">
        <tspan x="-24" y="0">二维码</tspan>
      </text>
    </g>
    <g id="组_52" data-name="组 52" transform="translate(307 265)">
      <g id="矩形_66-5" data-name="矩形 66" transform="translate(590 729)" fill="none" stroke="#d4d4d4" stroke-width="1">
        <rect width="92" height="121" stroke="none" />
        <rect x="0.5" y="0.5" width="91" height="120" fill="none" />
      </g>
      <text id="自定义" transform="translate(636 828)" fill="#949494" font-size="16"
        font-family="MicrosoftYaHei, Microsoft YaHei">
        <tspan x="-24" y="0">自定义</tspan>
      </text>
    </g>
    <g id="组_44" data-name="组 44" transform="translate(216 145)">
      <g id="矩形_66-6" data-name="矩形 66" transform="translate(590 729)" fill="none" stroke="#d4d4d4" stroke-width="1">
        <rect width="92" height="121" stroke="none" />
        <rect x="0.5" y="0.5" width="91" height="120" fill="none" />
      </g>
      <text id="微博" transform="translate(636 828)" fill="#949494" font-size="16"
        font-family="MicrosoftYaHei, Microsoft YaHei">
        <tspan x="-16" y="0">微博</tspan>
      </text>
    </g>
    <g id="组_54" data-name="组 54" transform="translate(216 265)">
      <g id="矩形_66-7" data-name="矩形 66" transform="translate(590 729)" fill="none" stroke="#d4d4d4" stroke-width="1">
        <rect width="92" height="121" stroke="none" />
        <rect x="0.5" y="0.5" width="91" height="120" fill="none" />
      </g>
      <text id="加载" transform="translate(636 828)" fill="#949494" font-size="16"
        font-family="MicrosoftYaHei, Microsoft YaHei">
        <tspan x="-16" y="0">加载</tspan>
      </text>
    </g>
    <g id="组_45" data-name="组 45" transform="translate(125 145)">
      <g id="矩形_66-8" data-name="矩形 66" transform="translate(590 729)" fill="none" stroke="#d4d4d4" stroke-width="1">
        <rect width="92" height="121" stroke="none" />
        <rect x="0.5" y="0.5" width="91" height="120" fill="none" />
      </g>
      <text id="QQ" transform="translate(636 828)" fill="#949494" font-size="16"
        font-family="MicrosoftYaHei, Microsoft YaHei">
        <tspan x="-13.039" y="0">QQ</tspan>
      </text>
    </g>
    <g id="组_55" data-name="组 55" transform="translate(125 265)">
      <g id="矩形_66-9" data-name="矩形 66" transform="translate(590 729)" fill="none" stroke="#d4d4d4" stroke-width="1">
        <rect width="92" height="121" stroke="none" />
        <rect x="0.5" y="0.5" width="91" height="120" fill="none" />
      </g>
      <text id="相机" transform="translate(636 828)" fill="#949494" font-size="16"
        font-family="MicrosoftYaHei, Microsoft YaHei">
        <tspan x="-16" y="0">相机</tspan>
      </text>
    </g>
    <path id="qq-2" data-name="qq"
      d="M107.558,32.18a18.874,18.874,0,0,0-5.052-9.683c.581-5.3-1.553-6.243-1.553-6.243C100.5-.181,87.712.284,87.436.284s-14.794-.45-15.244,15.97c0,0-2.134.944-1.553,6.243a18.873,18.873,0,0,0-5.052,9.683s-.508,9.872,4.675,1.2a28.121,28.121,0,0,0,3.3,6.257s-3.818,1.35-3.5,4.834c0,0-.131,3.905,8.174,3.629,0,0,5.807-.465,7.578-3.02h1.539c1.757,2.555,7.578,3.02,7.578,3.02,8.3.276,8.174-3.629,8.174-3.629.319-3.484-3.5-4.834-3.5-4.834a28.122,28.122,0,0,0,3.3-6.257c5.183,8.711,4.66-1.2,4.66-1.2"
      transform="translate(674.428 892.717)" fill="#ec502b" />
    <path id="微博-2" data-name="微博"
      d="M34.333,126.89c-1.659-.321-.851-1.2-.851-1.2s1.623-2.644-.325-4.568c-2.409-2.38-8.275.3-8.275.3-2.237.684-1.645-.314-1.328-2.01,0-2-.693-5.387-6.659-3.392-5.959,2.017-11.074,9.064-11.074,9.064-3.557,4.681-3.088,8.3-3.088,8.3.887,8,9.494,10.19,16.189,10.71,7.042.542,16.55-2.394,19.429-8.437S36,127.217,34.333,126.89ZM19.442,141.846c-6.991.321-12.647-3.135-12.647-7.738s5.656-8.3,12.647-8.622,12.662,2.53,12.662,7.126-5.663,8.921-12.662,9.235ZM18.05,128.514a6.518,6.518,0,0,0-6.219,7.311,3.575,3.575,0,0,0,1.883,3.107,8.218,8.218,0,0,0,10.49-1.86c2.143-2.722.888-9.363-6.154-8.558Zm-1.775,9.128A1.92,1.92,0,0,1,13.9,135.96a2.5,2.5,0,0,1,2.251-2.344c1.508-.143,2.489.713,2.489,1.8a2.518,2.518,0,0,1-2.366,2.223Zm4.148-3.484a.816.816,0,0,1-1.227-.114,1.01,1.01,0,0,1,.3-1.318.857.857,0,0,1,1.3.114,1.077,1.077,0,0,1-.368,1.318ZM37.76,124.075a1.144,1.144,0,0,0,1.133-.955.7.7,0,0,0,.014-.121c.859-7.617-6.327-6.306-6.327-6.306a1.14,1.14,0,1,0,0,2.28c5.158-1.126,4.026,3.969,4.026,3.969a1.136,1.136,0,0,0,1.154,1.133Zm-.837-13.3a14.5,14.5,0,0,0-5.757.057c-.058.007-.108.057-.159.064a.139.139,0,0,0-.043.028,1.658,1.658,0,0,0,.454,3.256,8.248,8.248,0,0,0,1.515-.356,8.886,8.886,0,0,1,8.311,4.054,7.287,7.287,0,0,1,.513,5.494,4.843,4.843,0,0,0-.332,1.6,1.53,1.53,0,0,0,1.674,1.489c.772,0,1.421-.107,1.609-1.4h.007c2.756-9.028-3.348-13.268-7.792-14.287Z"
      transform="translate(828.287 789.494)" fill="#f40f3b" />
    <g id="组_47" data-name="组 47" transform="translate(-317.875 -122.541)">
      <g id="组_46" data-name="组 46" transform="translate(1239.875 1018.541)">
        <g id="qr-code_二维码" data-name="qr-code 二维码">
          <path id="路径_22" data-name="路径 22"
            d="M102.162,104.266H87.437a1.987,1.987,0,0,1-2.1-2.1V87.437a1.987,1.987,0,0,1,2.1-2.1h14.726a1.987,1.987,0,0,1,2.1,2.1v14.726a1.987,1.987,0,0,1-2.1,2.1Zm-12.622-4.207h10.518V89.541H89.541Zm35.762,4.207H110.577a1.987,1.987,0,0,1-2.1-2.1V87.437a1.987,1.987,0,0,1,2.1-2.1H125.3a1.987,1.987,0,0,1,2.1,2.1v14.726a1.987,1.987,0,0,1-2.1,2.1Zm-12.622-4.207H123.2V89.541H112.681v10.518Zm-10.518,27.347H87.437a1.987,1.987,0,0,1-2.1-2.1V110.577a1.987,1.987,0,0,1,2.1-2.1h14.726a1.987,1.987,0,0,1,2.1,2.1V125.3A1.987,1.987,0,0,1,102.162,127.406ZM89.541,123.2h10.518V112.681H89.541Zm35.762-3.156H117.94a1.987,1.987,0,0,1-2.1-2.1v-5.259h-3.155v5.259a2.1,2.1,0,1,1-4.207,0v-7.363a1.987,1.987,0,0,1,2.1-2.1h7.363a1.987,1.987,0,0,1,2.1,2.1v5.259H123.2v-5.259a2.1,2.1,0,0,1,4.207,0v7.363a1.987,1.987,0,0,1-2.1,2.1Zm-7.363,7.363h-7.363a2.1,2.1,0,0,1,0-4.207h7.363a2.1,2.1,0,1,1,0,4.207Z"
            transform="translate(-85.333 -85.333)" fill="#1cc09e" />
          <path id="路径_23" data-name="路径 23"
            d="M238.032,262.014h-2.524a.9.9,0,0,1-.841-.842v-2.524a.9.9,0,0,1,.841-.841h2.524a.9.9,0,0,1,.841.841v2.524A.9.9,0,0,1,238.032,262.014Zm0-23.14h-2.524a.9.9,0,0,1-.841-.841v-2.524a.9.9,0,0,1,.841-.841h2.524a.9.9,0,0,1,.841.841v2.524A.9.9,0,0,1,238.032,238.874Zm23.14,0h-2.524a.9.9,0,0,1-.841-.841v-2.524a.9.9,0,0,1,.841-.841h2.524a.9.9,0,0,1,.841.841v2.524A.9.9,0,0,1,261.172,238.874Zm6.1,30.5A2.083,2.083,0,0,1,265.8,265.8a2.034,2.034,0,0,1,2.945,0,2.273,2.273,0,0,1,.631,1.473,2.157,2.157,0,0,1-2.1,2.1Z"
            transform="translate(-227.304 -227.304)" fill="#1cc09e" />
        </g>
      </g>
    </g>
    <path id="支付宝-2" data-name="支付宝"
      d="M9.45,23.646a3.082,3.082,0,0,0-1.176,1.722A3.609,3.609,0,0,0,9.2,28.644a6.3,6.3,0,0,0,3.759,1.6A10.132,10.132,0,0,0,19,28.161a12.718,12.718,0,0,0,2.877-2.856c-2.436-1.26-5.481-2.646-8.715-2.52A8.486,8.486,0,0,0,9.45,23.646Zm30.87,5.565a20.989,20.989,0,1,0-2.31,4.095c-3.612-1.785-9.555-4.746-13.23-6.531a16.158,16.158,0,0,1-7.245,4.851,10.353,10.353,0,0,1-5.208.4A6.983,6.983,0,0,1,8.61,30.072,7.033,7.033,0,0,1,7.5,28.518a.3.3,0,0,1,.042.126,3.33,3.33,0,0,1-.315-.8,4.555,4.555,0,0,1-.147-.735,2.2,2.2,0,0,1,0-.525A3.966,3.966,0,0,1,7.14,25.6a4.893,4.893,0,0,1,1.449-2.688A8.338,8.338,0,0,1,14.7,20.853a32.683,32.683,0,0,1,8.694,1.995,29.492,29.492,0,0,0,1.722-4.977h-12.6V16.506h6.468v-2.73H11.172V12.39h7.812V9.66c0-.378.084-.672.672-.672h3.066v3.4h8.5v1.365h-8.5v2.73h6.8a27.2,27.2,0,0,1-2.814,7.56C31.437,25.725,38.115,28.329,40.32,29.211Z"
      transform="translate(922 776)" fill="#06b4fd" />
    <g id="朋友圈-2" data-name="朋友圈" transform="translate(831 776)">
      <path id="路径_24" data-name="路径 24"
        d="M60.933,65.323l-10.64-10.6c-.407.2-.806.415-1.2.64a20.918,20.918,0,0,0-4.377,3.334,20.415,20.415,0,0,0-1.589,1.784,20.956,20.956,0,0,0-2.9,4.848S60.291,65.221,60.933,65.323Z"
        transform="translate(-38.575 -52.462)" fill="#409eff" />
      <path id="路径_25" data-name="路径 25"
        d="M16.166,348.16H1.118c-.145.421-.274.855-.394,1.292A20.819,20.819,0,0,0,0,354.9a20.391,20.391,0,0,0,.142,2.379,20.619,20.619,0,0,0,1.4,5.465S15.64,348.535,16.166,348.16Z"
        transform="translate(0 -333.792)" fill="#409eff" />
      <path id="路径_26" data-name="路径 26"
        d="M723.005,49.76c-.2-.4-.413-.8-.639-1.189a21.033,21.033,0,0,0-10-8.826s.107,19.98,0,20.617Z"
        transform="translate(-682.963 -38.104)" fill="#409eff" />
      <path id="路径_27" data-name="路径 27"
        d="M336.515,16.109V1.117c-.425-.144-.861-.275-1.3-.4A21.14,21.14,0,0,0,329.753,0a20.764,20.764,0,0,0-2.389.141,21.12,21.12,0,0,0-5.488,1.388S336.132,15.586,336.515,16.109Z"
        transform="translate(-308.593)" fill="#409eff" />
      <path id="路径_28" data-name="路径 28"
        d="M64.055,482.091l-10.636,10.6c.2.406.415.8.639,1.192a20.76,20.76,0,0,0,3.35,4.362,21.127,21.127,0,0,0,1.789,1.584,20.826,20.826,0,0,0,4.864,2.881S63.952,482.732,64.055,482.091Z"
        transform="translate(-51.214 -462.195)" fill="#409eff" />
      <path id="路径_29" data-name="路径 29"
        d="M479.744,714.242l10.643,10.6q.6-.3,1.2-.64a21.006,21.006,0,0,0,4.375-3.336,21.271,21.271,0,0,0,1.588-1.781,20.883,20.883,0,0,0,2.893-4.848S480.387,714.35,479.744,714.242Z"
        transform="translate(-459.945 -684.764)" fill="#409eff" />
      <path id="路径_30" data-name="路径 30"
        d="M648.236,328.2a20.816,20.816,0,0,0-1.394-5.467s-14.105,14.2-14.633,14.582h15.048c.143-.424.274-.858.392-1.293a20.436,20.436,0,0,0,.586-7.823Z"
        transform="translate(-606.118 -309.411)" fill="#409eff" />
      <path id="路径_31" data-name="路径 31"
        d="M347.456,633.6v14.994c.427.144.861.275,1.3.392a20.813,20.813,0,0,0,5.464.726,20.483,20.483,0,0,0,2.384-.142,20.946,20.946,0,0,0,5.485-1.387S347.835,634.128,347.456,633.6Z"
        transform="translate(-333.117 -607.451)" fill="#409eff" />
    </g>
    <g id="相机-2" data-name="相机" transform="translate(739.08 1019)">
      <path id="路径_38" data-name="路径 38"
        d="M68.66,99.774a5.56,5.56,0,0,0-4.107-1.684H59.493l-1.161-3.056a4.5,4.5,0,0,0-1.579-1.9,4.171,4.171,0,0,0-2.317-.844H42.846a3.91,3.91,0,0,0-2.317.844,4.491,4.491,0,0,0-1.579,1.9L37.683,98.09H32.521a5.751,5.751,0,0,0-5.791,5.8v20.336a5.751,5.751,0,0,0,5.791,5.8H64.549a5.751,5.751,0,0,0,5.791-5.8V103.886a5.543,5.543,0,0,0-1.68-4.111Zm-20.125,23.5a9.59,9.59,0,1,1,9.59-9.59A9.624,9.624,0,0,1,48.535,123.272Zm0,0"
        transform="translate(-26.73 -92.295)" fill="#4a82ff" />
      <path id="路径_39" data-name="路径 39"
        d="M375.335,427.607a6.428,6.428,0,1,0,6.428,6.428A6.386,6.386,0,0,0,375.335,427.607Zm0,0"
        transform="translate(-353.53 -412.539)" fill="#4a82ff" />
    </g>
    <g id="loading_ico" transform="translate(831 1016.451)">
      <path id="路径_36" data-name="路径 36"
        d="M20.79.384a20.811,20.811,0,1,0,20.8,20.811A20.8,20.8,0,0,0,20.79.384Zm0,38.8a17.99,17.99,0,1,1,17.977-17.99A18,18,0,0,1,20.79,39.185Z"
        transform="translate(0 -0.384)" fill="#ff9249" />
      <path id="路径_37" data-name="路径 37"
        d="M204.663,189.871c0-6.511-7.594-6.511-7.594-6.511v13.019S204.663,196.379,204.663,189.871Zm-14.792-1.085c-6.511,0-6.511,7.594-6.511,7.594h13.019S196.379,188.786,189.871,188.786Zm-1.085,14.794c0,6.506,7.594,6.506,7.594,6.506V197.069S188.786,197.069,188.786,203.58Zm14.794,1.083c6.506,0,6.506-7.594,6.506-7.594H197.066S197.066,204.663,203.58,204.663Z"
        transform="translate(-175.904 -175.92)" fill="#ff9249" />
    </g>
    <path id="love"
      d="M31.618,70.592c-3.943,0-7.6,2.7-9.757,4.684-2.159-1.989-5.814-4.684-9.762-4.684C4.638,70.592,0,75.139,0,82.458c0,6.184,5.587,11.119,5.609,11.136l14.559,14.044a2.4,2.4,0,0,0,3.371.011L38.127,93.6c1.311-1.256,5.59-5.765,5.59-11.139C43.72,75.139,39.082,70.592,31.618,70.592Z"
      transform="translate(921 947.408)" fill="#e5e7eb" />
  </g>
</svg>