<svg xmlns="http://www.w3.org/2000/svg" width="160" height="180" viewBox="0 0 160 180">
  <g id="guide" transform="translate(-533 -1077)">
    <rect id="矩形_83" data-name="矩形 83" width="160" height="180" transform="translate(533 1077)" fill="rgba(0,0,0,0.4)" />
    <circle id="椭圆_10" data-name="椭圆 10" cx="19.5" cy="19.5" r="19.5" transform="translate(561 1100)" fill="#fff" />
    <path
      id="气泡"
      d="M252.893,60.493a3.529,3.529,0,0,0-.282-1.4,3.571,3.571,0,0,0-.76-1.14,3.608,3.608,0,0,0-1.128-.76,3.441,3.441,0,0,0-1.385-.282,3.529,3.529,0,0,0-1.4.282,3.493,3.493,0,0,0-1.9,1.9,3.529,3.529,0,0,0-.282,1.4,3.441,3.441,0,0,0,.282,1.385,3.608,3.608,0,0,0,.76,1.128,3.571,3.571,0,0,0,1.14.76,3.529,3.529,0,0,0,1.4.282,3.441,3.441,0,0,0,1.385-.282,3.556,3.556,0,0,0,1.887-1.887A3.441,3.441,0,0,0,252.893,60.493Zm4.608,4.878a2.605,2.605,0,0,0-.208-1.03,2.547,2.547,0,0,0-.576-.846,2.8,2.8,0,0,0-.858-.564,2.605,2.605,0,0,0-1.03-.208,2.579,2.579,0,0,0-1.042.208,2.681,2.681,0,0,0-.833.564,2.644,2.644,0,0,0-.564.846,2.605,2.605,0,0,0-.208,1.03,2.579,2.579,0,0,0,.208,1.042,2.837,2.837,0,0,0,.564.846,2.638,2.638,0,0,0,2.9.576,2.688,2.688,0,0,0,.858-.576,2.725,2.725,0,0,0,.576-.846A2.579,2.579,0,0,0,257.5,65.371Zm-4.559-9.045a4.991,4.991,0,0,1-2.01-.4,5.2,5.2,0,0,1-2.733-2.733,4.931,4.931,0,0,1-.4-1.986,5.1,5.1,0,0,1,1.508-3.628,5.333,5.333,0,0,1,1.63-1.091,4.991,4.991,0,0,1,2.01-.4,4.931,4.931,0,0,1,1.986.4,5.333,5.333,0,0,1,1.63,1.091,5.1,5.1,0,0,1,1.508,3.628,4.931,4.931,0,0,1-.4,1.986,5.2,5.2,0,0,1-2.733,2.733A4.931,4.931,0,0,1,252.942,56.326Zm-2.647-7.4a1,1,0,1,0,.711.294A.968.968,0,0,0,250.295,48.923Z"
      transform="translate(328.587 1098.691)"
      fill="#fff"
    />
    <path
      id="气泡-2"
      data-name="气泡"
      d="M252.893,60.493a3.529,3.529,0,0,0-.282-1.4,3.571,3.571,0,0,0-.76-1.14,3.608,3.608,0,0,0-1.128-.76,3.441,3.441,0,0,0-1.385-.282,3.529,3.529,0,0,0-1.4.282,3.493,3.493,0,0,0-1.9,1.9,3.529,3.529,0,0,0-.282,1.4,3.441,3.441,0,0,0,.282,1.385,3.608,3.608,0,0,0,.76,1.128,3.571,3.571,0,0,0,1.14.76,3.529,3.529,0,0,0,1.4.282,3.441,3.441,0,0,0,1.385-.282,3.556,3.556,0,0,0,1.887-1.887A3.441,3.441,0,0,0,252.893,60.493Zm4.608,4.878a2.605,2.605,0,0,0-.208-1.03,2.547,2.547,0,0,0-.576-.846,2.8,2.8,0,0,0-.858-.564,2.605,2.605,0,0,0-1.03-.208,2.579,2.579,0,0,0-1.042.208,2.681,2.681,0,0,0-.833.564,2.644,2.644,0,0,0-.564.846,2.605,2.605,0,0,0-.208,1.03,2.579,2.579,0,0,0,.208,1.042,2.837,2.837,0,0,0,.564.846,2.638,2.638,0,0,0,2.9.576,2.688,2.688,0,0,0,.858-.576,2.725,2.725,0,0,0,.576-.846A2.579,2.579,0,0,0,257.5,65.371Zm-4.559-9.045a4.991,4.991,0,0,1-2.01-.4,5.2,5.2,0,0,1-2.733-2.733,4.931,4.931,0,0,1-.4-1.986,5.1,5.1,0,0,1,1.508-3.628,5.333,5.333,0,0,1,1.63-1.091,4.991,4.991,0,0,1,2.01-.4,4.931,4.931,0,0,1,1.986.4,5.333,5.333,0,0,1,1.63,1.091,5.1,5.1,0,0,1,1.508,3.628,4.931,4.931,0,0,1-.4,1.986,5.2,5.2,0,0,1-2.733,2.733A4.931,4.931,0,0,1,252.942,56.326Zm-2.647-7.4a1,1,0,1,0,.711.294A.968.968,0,0,0,250.295,48.923Z"
      transform="translate(323.24 1155.92)"
      fill="#fff"
    />
    <text id="按钮" transform="translate(581 1125)" fill="#494949" font-size="12" font-family="MicrosoftYaHei, Microsoft YaHei"><tspan x="-12" y="0">按钮</tspan></text>
    <text id="点击此处开启引导" transform="translate(633 1169)" fill="#fff" font-size="10" font-family="MicrosoftYaHei, Microsoft YaHei"><tspan x="-40" y="0">点击此处开启引导</tspan></text>
    <text id="点击此处关闭引导" transform="translate(627.653 1226.229)" fill="#fff" font-size="10" font-family="MicrosoftYaHei, Microsoft YaHei"><tspan x="-40" y="0">点击此处关闭引导</tspan></text>
  </g>
</svg>
