<svg xmlns="http://www.w3.org/2000/svg" width="226" height="76.91" viewBox="0 0 226 76.91">
  <g id="icon" transform="translate(-352 -21)">
    <path id="Loading"
      d="M47.069,63.894c.226-.155.435-.305.642-.434s.4-.248.576-.356c.088-.055.177-.1.261-.149l.238-.133c.038-.022.073-.039.107-.056l.1-.05.178-.091.079-.041.09-.044.159-.078.291-.143a2.623,2.623,0,0,0,.353-.212,2.443,2.443,0,1,0-2.859-3.963l-.263.19-.144.1-.084.061-.106.079-.236.177-.129.1c-.044.034-.091.068-.133.1l-.273.221c-.1.078-.2.157-.3.245-.2.175-.423.361-.647.573s-.461.438-.706.679-.49.508-.738.791a20.438,20.438,0,0,0-1.495,1.9,19.995,19.995,0,0,0-2.484,4.9c-.041.112-.077.227-.113.342l-.109.344c-.069.231-.133.464-.2.7l-.087.352c-.028.118-.06.234-.083.352l-.075.354-.037.177-.032.178a19.445,19.445,0,0,0-.308,2.839c-.012.234-.01.467-.011.7v.173c0,.058,0,.115,0,.173l.01.343.005.171.011.17.022.337.011.181.016.16.032.317c.006.053.01.1.017.159l.021.166.043.329c.008.054.013.109.022.162l.026.159.052.314c.074.416.159.819.254,1.208a18.793,18.793,0,0,0,.663,2.143l.091.24.045.118.048.115.187.445c.132.285.251.557.379.8.245.5.489.919.69,1.262s.374.6.495.777l.181.269-.134-.3c-.09-.191-.209-.478-.355-.842s-.306-.814-.46-1.336c-.083-.259-.153-.54-.232-.832l-.106-.455-.027-.117-.024-.119-.048-.242a17.84,17.84,0,0,1-.28-2.112c-.027-.375-.042-.761-.045-1.154v-.445c0-.05,0-.1,0-.147l.012-.295.006-.148c0-.05.007-.1.01-.157l.032-.478V76.1c0,.024,0,0,0,0l0-.019,0-.038.008-.077.032-.308.016-.154.022-.154.043-.309c.008-.052.014-.1.023-.155l.027-.155c.037-.206.069-.413.116-.619a17.233,17.233,0,0,1,.692-2.436l.053-.149.058-.147.116-.293c.037-.1.082-.193.123-.289l.125-.287c.09-.189.177-.377.269-.563l.142-.275c.047-.091.093-.183.145-.272A16.818,16.818,0,0,1,43.491,67.4a16.46,16.46,0,0,1,2.892-2.984C46.616,64.226,46.85,64.056,47.069,63.894Zm31.41,12.161h0l-.036-.323-.043-.388-.028-.249-.047-.331c-.034-.232-.071-.491-.114-.767l-.173-.847c-.028-.151-.071-.305-.111-.464L77.8,72.2c-.023-.083-.041-.168-.068-.252l-.079-.256-.165-.528-.043-.135-.049-.135-.1-.273c-.068-.183-.136-.37-.208-.559l-.241-.567-.124-.289c-.042-.1-.091-.192-.137-.288l-.284-.584c-.023-.049-.05-.1-.076-.146l-.079-.145-.16-.293-.162-.295c-.055-.1-.117-.194-.175-.291l-.36-.585a19.873,19.873,0,0,0-3.757-4.288,21.408,21.408,0,0,0-2.3-1.688,21.134,21.134,0,0,0-2.414-1.284l-.606-.251c-.1-.04-.2-.084-.3-.121l-.3-.108-.3-.106-.147-.052c-.049-.018-.1-.035-.147-.049l-.583-.177c-.1-.028-.19-.059-.285-.084l-.285-.071-.555-.138c-.184-.038-.365-.073-.541-.108L62.514,58l-.129-.025-.129-.019-.5-.073-.242-.035c-.079-.012-.159-.016-.237-.025l-.456-.043c-.148-.013-.29-.03-.43-.033l-.778-.033-.66,0-.281,0c-.088,0-.171.01-.248.014l-.39.023-.324.019.323.036.387.043c.076.009.158.017.244.028l.276.045.641.1.746.16c.133.025.268.065.408.1l.429.115c.073.021.148.037.222.062l.225.073.464.15.119.038.118.045.239.091c.161.062.325.122.49.187l.5.218.253.111c.085.038.167.082.252.124l.511.255c.043.021.085.044.128.068l.127.071.256.144.258.145c.086.049.169.1.254.157l.511.321a17.438,17.438,0,0,1,3.729,3.34,18.985,18.985,0,0,1,1.456,2.033,18.7,18.7,0,0,1,1.1,2.123l.212.531c.034.088.072.173.1.261l.09.263.089.26.044.128c.015.042.03.085.041.128l.147.51c.023.084.05.166.071.249l.058.249.115.484.087.472.042.229.021.112.015.113.058.438.028.21c.01.069.012.139.019.207l.032.4c.01.129.024.252.024.374l.021.677-.014.534,0,.226-.014.244-.023.389-.019.324a2.63,2.63,0,0,0,.01.411,2.443,2.443,0,0,0,4.857-.534ZM72.848,86.278l-.2.239c-.069.083-.14.172-.219.26-.157.177-.322.37-.512.566s-.391.4-.605.617-.452.428-.7.644a18,18,0,0,1-1.688,1.3,17.547,17.547,0,0,1-4.326,2.138c-.1.035-.2.065-.3.1l-.3.092c-.2.058-.408.111-.612.166l-.309.072c-.1.023-.2.051-.309.07l-.311.062-.155.031-.156.026a17.011,17.011,0,0,1-2.487.241c-.2.009-.409,0-.611,0h-.151c-.05,0-.1,0-.146-.006l-.287-.013-.142-.006-.162-.011-.323-.022-.08-.005-.04,0h-.02c.009,0-.034,0,.018,0H57.7l-.146-.016-.289-.032a16.5,16.5,0,0,1-2.17-.406,16.329,16.329,0,0,1-1.859-.6l-.207-.082-.1-.04-.1-.043-.385-.167c-.246-.118-.481-.224-.7-.339-.432-.218-.793-.435-1.088-.613L50.6,90.46l-.14-.092-.167-.109-.075-.048-.082-.055-.147-.1-.269-.181a2.638,2.638,0,0,0-.359-.2,2.443,2.443,0,0,0-2.011,4.453l.3.134.161.073.1.043.121.053.271.117.149.064.078.033.077.03c.415.163.919.356,1.509.537.293.1.61.18.942.273l.515.126.132.032.135.028.274.057a20.281,20.281,0,0,0,2.4.342,20.054,20.054,0,0,0,2.672.04l.346-.021.174-.011h.011c.058,0,.022,0,.038,0l.02,0,.04,0,.08-.008.322-.033.162-.016.183-.022.366-.046c.061-.008.123-.015.182-.024l.176-.029c.235-.039.471-.074.706-.124a19.684,19.684,0,0,0,2.787-.759l.17-.059.169-.064.336-.129c.112-.041.222-.091.332-.137l.33-.139c.217-.1.434-.2.647-.3l.317-.159c.105-.053.211-.1.313-.162A19.246,19.246,0,0,0,67.7,92.406a18.9,18.9,0,0,0,3.458-3.272c.221-.265.419-.531.609-.781s.357-.5.508-.73.291-.453.418-.657c.064-.1.12-.2.175-.3l.156-.272c.19-.349.336-.624.426-.816l.143-.292-.19.263c-.121.173-.31.419-.553.728Z"
      transform="translate(313.506 -17.682)" fill="#409eff" />
    <path id="Loading-2" data-name="Loading"
      d="M51.357,67c.338-.233.653-.458.962-.651s.6-.373.865-.535c.133-.083.266-.153.391-.224l.357-.2c.058-.034.109-.058.16-.084l.148-.075.267-.136.119-.061.135-.067L55,64.852l.437-.215a3.935,3.935,0,0,0,.529-.318,3.665,3.665,0,1,0-4.289-5.944l-.395.285-.215.155-.126.091-.159.118-.354.265-.194.146c-.067.05-.137.1-.2.154l-.41.331c-.143.117-.294.235-.445.368-.3.262-.634.542-.971.859s-.691.657-1.059,1.019-.735.762-1.107,1.187a30.656,30.656,0,0,0-2.242,2.85,29.992,29.992,0,0,0-3.726,7.343c-.062.169-.115.341-.17.513l-.164.516c-.1.346-.2.7-.3,1.044l-.13.528c-.042.176-.09.35-.125.528l-.112.531-.056.265-.048.267A29.168,29.168,0,0,0,38.512,82c-.018.351-.015.7-.017,1.048v.26c0,.086,0,.173.006.259l.015.515.008.256.016.255.032.506.017.271.024.239.048.476c.009.08.015.156.025.238l.032.249.064.494c.011.081.02.164.033.244l.039.238.078.471c.111.624.238,1.229.381,1.812a28.191,28.191,0,0,0,.995,3.214l.137.359.067.176.072.173.281.668c.2.428.377.835.569,1.207.368.75.733,1.379,1.035,1.893s.561.9.742,1.165l.272.4-.2-.444c-.134-.287-.313-.717-.532-1.264s-.459-1.221-.691-2c-.124-.388-.23-.81-.348-1.249l-.159-.682-.041-.175-.035-.179-.072-.363a26.759,26.759,0,0,1-.419-3.168c-.041-.563-.063-1.141-.067-1.731l0-.444v-.223c0-.075.005-.147.007-.221l.017-.442.008-.222c0-.075.01-.157.015-.235l.049-.717v-.015c0,.036,0,0,0,.006l0-.029.006-.058.012-.115.049-.461.024-.231.033-.231.065-.464c.011-.077.02-.155.034-.232l.041-.232c.055-.309.1-.62.174-.928A25.85,25.85,0,0,1,42.5,78.684l.08-.223.087-.221.174-.44c.055-.147.124-.29.185-.434l.187-.431c.134-.283.266-.566.4-.844l.213-.413c.071-.137.14-.275.217-.408a25.226,25.226,0,0,1,1.941-3.013,24.691,24.691,0,0,1,4.338-4.476C50.677,67.5,51.028,67.243,51.357,67ZM98.472,85.241h0l-.053-.484-.064-.581-.042-.373-.07-.5c-.05-.349-.106-.736-.171-1.151l-.259-1.271c-.042-.227-.106-.458-.166-.7l-.189-.732c-.034-.125-.062-.252-.1-.379l-.119-.384-.248-.792-.064-.2-.074-.2-.15-.41c-.1-.275-.2-.556-.311-.839l-.361-.851-.185-.434c-.063-.145-.137-.287-.205-.432l-.426-.876c-.035-.074-.074-.147-.114-.219l-.119-.218-.24-.439-.243-.442c-.082-.147-.175-.29-.263-.437l-.54-.878a29.809,29.809,0,0,0-5.636-6.432A32.113,32.113,0,0,0,84.6,62.059a31.7,31.7,0,0,0-3.62-1.926l-.908-.377c-.15-.061-.3-.126-.448-.181l-.451-.161-.445-.159-.22-.078c-.073-.026-.146-.053-.22-.074l-.875-.265c-.144-.042-.285-.089-.428-.126l-.427-.107-.832-.207c-.275-.057-.547-.109-.812-.162l-.394-.077-.194-.038-.194-.028-.753-.109-.363-.052c-.119-.018-.239-.025-.356-.037l-.684-.064c-.221-.02-.435-.045-.645-.049l-1.167-.05-.989.007-.422,0c-.132.006-.257.014-.372.021L67.8,57.8l-.486.029.484.053.58.064c.114.013.236.025.367.042l.414.067.962.157,1.119.24c.2.038.4.1.612.153l.643.173c.11.031.222.056.333.093l.337.109.7.225.178.058.177.067.359.136c.241.092.487.184.735.281l.745.327.38.166c.127.057.251.123.378.185l.766.382c.065.031.128.067.191.1l.191.107.384.216.387.217c.129.074.254.157.381.236l.767.482a26.157,26.157,0,0,1,5.594,5.01,28.477,28.477,0,0,1,2.184,3.05A28.05,28.05,0,0,1,89.3,73.407l.319.8c.051.132.108.26.154.392l.135.395.134.389.067.192c.022.064.045.127.062.193l.221.765c.035.126.076.249.106.374l.088.373.172.726.131.709.064.343.031.169.022.169.087.656.042.316c.015.1.018.208.028.31l.048.6c.015.193.036.379.036.561l.031,1.016-.021.8-.007.34-.021.366-.035.584-.029.486a3.944,3.944,0,0,0,.016.617,3.665,3.665,0,0,0,7.286-.8Zm-8.447,15.335-.3.359c-.1.125-.209.258-.329.389-.235.266-.484.556-.767.849s-.586.6-.908.925-.678.642-1.057.966a27,27,0,0,1-2.533,1.95,26.319,26.319,0,0,1-6.489,3.207c-.148.053-.3.1-.452.144l-.454.139c-.3.087-.612.167-.918.249l-.464.108c-.155.034-.307.076-.464.1l-.466.093-.233.046-.234.039a25.516,25.516,0,0,1-3.731.361c-.307.013-.614.005-.917,0h-.227c-.075,0-.146-.006-.218-.009l-.43-.019-.213-.009-.243-.016-.485-.033-.121-.008-.06,0-.03,0c.013,0-.051,0,.026,0l-.014,0-.219-.024-.434-.047a24.75,24.75,0,0,1-3.256-.609,24.5,24.5,0,0,1-2.788-.9l-.311-.123-.153-.06-.149-.065-.578-.251c-.37-.178-.722-.336-1.043-.508-.648-.327-1.19-.652-1.633-.92l-.081-.049-.21-.139-.251-.164-.112-.073-.123-.082-.22-.148-.4-.272a3.958,3.958,0,0,0-.539-.3,3.665,3.665,0,0,0-3.017,6.68l.444.2.242.109.144.065.182.079.406.176.223.1.117.05.116.045c.622.244,1.378.534,2.263.806.439.145.915.27,1.413.409l.772.189.2.048.2.043.411.086a30.422,30.422,0,0,0,3.594.514,30.082,30.082,0,0,0,4.009.061l.519-.032.261-.016h.016c.088,0,.033,0,.056,0l.03,0,.06-.006.12-.012.483-.049.243-.025.274-.034.549-.069c.091-.012.185-.022.273-.036l.264-.043c.353-.059.707-.111,1.059-.187a29.525,29.525,0,0,0,4.181-1.138l.256-.089.253-.1.5-.193c.169-.062.333-.137.5-.205l.5-.209c.326-.149.65-.3.97-.45l.475-.238c.158-.08.316-.157.469-.243a28.868,28.868,0,0,0,3.473-2.181,28.342,28.342,0,0,0,5.187-4.909c.332-.4.629-.8.913-1.171s.535-.744.762-1.1.437-.68.627-.986c.1-.152.18-.3.263-.446l.235-.408c.285-.524.5-.936.64-1.224l.215-.437-.285.395c-.182.26-.466.629-.83,1.092Z"
      transform="translate(376.506 -26.682)" fill="#67c23a" />
    <path id="Loading-3" data-name="Loading"
      d="M55.644,70.105c.451-.311.871-.611,1.283-.868s.8-.5,1.153-.713c.177-.111.355-.2.521-.3l.477-.266c.077-.045.145-.077.213-.112l.2-.1.356-.181L60,67.486l.18-.089.318-.156.583-.286a5.247,5.247,0,0,0,.705-.424,4.886,4.886,0,1,0-5.718-7.925l-.527.38-.287.207-.168.122-.213.158-.473.353-.259.195c-.089.067-.183.136-.267.206l-.547.442c-.19.155-.392.313-.593.491-.405.35-.846.723-1.294,1.146s-.921.876-1.412,1.358-.98,1.016-1.476,1.583a40.875,40.875,0,0,0-2.989,3.8A39.99,39.99,0,0,0,40.6,78.838c-.083.225-.153.455-.226.684l-.218.688c-.137.462-.265.927-.394,1.392l-.173.7c-.055.235-.12.467-.166.7l-.149.708-.074.354-.064.356a38.89,38.89,0,0,0-.615,5.678c-.025.467-.019.934-.023,1.4v.346c0,.115.006.231.008.345l.02.687.01.341.021.34.043.675.023.361.032.319.064.635c.011.107.02.208.033.318l.043.333.086.659c.015.108.027.219.045.325l.053.317.1.628c.148.831.317,1.638.508,2.415a37.588,37.588,0,0,0,1.326,4.286l.183.479.09.235.1.23.374.891c.263.571.5,1.114.759,1.609.491,1,.977,1.839,1.38,2.523s.748,1.2.99,1.553l.363.539-.267-.592c-.179-.382-.418-.956-.71-1.685s-.612-1.627-.921-2.671c-.166-.517-.306-1.079-.465-1.665l-.212-.909-.054-.234-.047-.238-.1-.483a35.678,35.678,0,0,1-.559-4.224c-.054-.751-.083-1.522-.089-2.308l0-.592v-.3c0-.1.007-.2.01-.294l.023-.589.011-.3c0-.1.013-.209.02-.313l.065-.957v-.02c0,.048,0,0,0,.008l0-.038.008-.077.016-.153.065-.615.032-.308.043-.308.087-.618c.015-.1.027-.207.045-.31l.054-.309c.074-.412.139-.827.232-1.238a34.466,34.466,0,0,1,1.384-4.871l.107-.3.117-.294.232-.586c.074-.2.165-.386.246-.579l.25-.575c.179-.378.355-.754.538-1.125l.285-.55c.095-.183.186-.366.289-.544a33.635,33.635,0,0,1,2.588-4.017,32.921,32.921,0,0,1,5.783-5.968C54.738,70.769,55.206,70.43,55.644,70.105Zm62.82,24.322h0l-.071-.645-.085-.775-.056-.5-.094-.662c-.067-.465-.141-.981-.228-1.534l-.346-1.695c-.056-.3-.141-.61-.221-.927l-.252-.976c-.045-.166-.083-.336-.136-.5l-.159-.512-.33-1.057-.085-.27-.1-.27-.2-.546c-.136-.367-.271-.741-.415-1.118l-.482-1.135-.247-.578c-.084-.193-.182-.383-.274-.576l-.568-1.168c-.046-.1-.1-.2-.152-.292l-.159-.291-.321-.585-.324-.59c-.11-.2-.234-.387-.351-.582l-.72-1.171a39.746,39.746,0,0,0-7.514-8.576,42.818,42.818,0,0,0-4.6-3.376,42.269,42.269,0,0,0-4.827-2.568l-1.211-.5c-.2-.081-.4-.168-.6-.242l-.6-.215-.593-.212-.293-.1c-.1-.035-.194-.07-.294-.1l-1.166-.353c-.192-.056-.38-.119-.571-.168l-.57-.142-1.109-.276c-.367-.076-.729-.145-1.083-.215l-.525-.1-.258-.05-.259-.038-1-.146-.484-.07c-.159-.024-.319-.033-.475-.05l-.912-.086c-.3-.027-.58-.06-.86-.066l-1.556-.067-1.319.009-.563,0c-.177.007-.342.019-.5.028l-.781.046-.648.038.646.071.773.085c.152.017.315.033.489.055l.552.089,1.282.209,1.493.321c.266.051.537.13.816.2l.858.23c.146.041.3.075.444.124l.45.146.928.3.238.077.236.09.479.182c.322.123.65.245.981.374l.994.435.506.222c.169.075.335.165.5.247l1.022.509c.087.041.171.089.255.137l.254.143.511.287.516.29c.172.1.338.21.508.315l1.023.643a34.875,34.875,0,0,1,7.459,6.679,37.97,37.97,0,0,1,2.913,4.067,37.4,37.4,0,0,1,2.2,4.246l.425,1.063c.068.176.144.347.205.523l.18.527.179.519.089.257c.03.085.06.17.083.257l.295,1.02c.047.168.1.332.141.5l.117.5.23.968.175.945.085.458.042.225.029.226.115.875.057.421c.02.138.024.278.037.414l.064.794c.02.257.047.5.048.748l.042,1.354-.028,1.067-.009.453-.028.488-.046.779-.038.648a5.259,5.259,0,0,0,.021.823,4.886,4.886,0,0,0,9.714-1.069ZM107.2,114.874l-.4.479c-.139.167-.279.344-.438.519-.313.354-.645.741-1.023,1.133s-.782.8-1.211,1.234-.9.856-1.41,1.287a36,36,0,0,1-3.377,2.6A35.092,35.092,0,0,1,90.7,126.4c-.2.071-.4.13-.6.192l-.6.185c-.406.116-.816.223-1.224.332l-.618.144c-.207.046-.41.1-.619.139l-.622.124-.31.062-.313.052a34.021,34.021,0,0,1-4.975.482c-.409.018-.818.007-1.223.006l-.3,0c-.1,0-.194-.008-.291-.012l-.573-.025-.284-.012-.324-.022L77.164,128,77,127.992l-.08-.005-.04,0c.018,0-.069,0,.035,0l-.018,0-.292-.032-.578-.063a33,33,0,0,1-4.341-.813,32.662,32.662,0,0,1-3.717-1.2l-.415-.164-.2-.08-.2-.086-.77-.335c-.493-.237-.963-.448-1.39-.678-.864-.436-1.587-.87-2.177-1.226l-.109-.065-.281-.185-.334-.218-.149-.1-.164-.11-.294-.2-.539-.363a5.278,5.278,0,0,0-.719-.4,4.886,4.886,0,0,0-4.023,8.906l.592.267.323.146.192.086.243.106.542.234.3.128.156.066.154.06c.829.326,1.838.712,3.018,1.075.585.193,1.221.361,1.884.546l1.03.252.265.064.27.057.548.115a40.563,40.563,0,0,0,4.792.685,40.111,40.111,0,0,0,5.345.081l.693-.042.348-.022h.022c.117,0,.044,0,.075,0l.04,0,.08-.008.16-.016.644-.065.324-.033.365-.045.732-.092c.121-.016.246-.03.364-.049l.353-.058c.47-.078.942-.149,1.412-.249a39.365,39.365,0,0,0,5.574-1.518l.341-.119.337-.129.673-.258c.225-.082.444-.183.665-.273l.66-.279c.434-.2.867-.4,1.294-.6l.633-.318c.21-.106.421-.209.626-.324a38.49,38.49,0,0,0,4.631-2.908,37.789,37.789,0,0,0,6.916-6.545c.443-.531.839-1.062,1.217-1.561s.713-.991,1.015-1.461.583-.907.836-1.315c.129-.2.24-.4.35-.595l.313-.545c.38-.7.671-1.248.853-1.632l.286-.583-.38.527c-.242.346-.621.838-1.106,1.455Z"
      transform="translate(459.506 -36.682)" fill="#f56c6c" />
  </g>
</svg>