<svg xmlns="http://www.w3.org/2000/svg" width="46.98" height="45.165" viewBox="0 0 46.98 45.165">
  <style>
    @keyframes rotate {
      0% {
        transform: rotate(0deg);
      }

      100% {
        transform: rotate(360deg);
      }
    }

    .svg {
      animation: rotate 0.8s linear infinite;
      transform-origin: 50% 50%;
    }
  </style>
  <g class="svg">
    <g id="组_40" data-name="组 40" transform="translate(-925.51 -451.259)">
      <path id="Loading"
        d="M48.565,64.978c.265-.182.511-.359.753-.51s.467-.292.677-.419c.1-.065.208-.12.306-.175l.28-.156c.045-.026.085-.045.125-.066l.116-.058.209-.106.093-.048.106-.052.187-.092.342-.168a3.081,3.081,0,0,0,.414-.249,2.869,2.869,0,1,0-3.358-4.654l-.309.223-.169.122-.1.071-.125.093-.278.207-.152.114c-.052.039-.107.08-.157.121l-.321.259c-.112.091-.23.184-.348.288-.238.206-.5.424-.76.673s-.541.514-.829.8-.576.6-.867.929a24,24,0,0,0-1.756,2.232,23.484,23.484,0,0,0-2.918,5.75c-.049.132-.09.267-.133.4l-.128.4c-.081.271-.156.545-.231.817l-.1.413c-.033.138-.07.274-.1.414l-.088.416-.044.208-.037.209a22.838,22.838,0,0,0-.361,3.334c-.014.274-.011.549-.013.82v.2c0,.068,0,.135,0,.2l.012.4.006.2.013.2.025.4.013.212.019.187.038.373c.007.063.012.122.02.187l.025.2.05.387c.009.064.016.128.026.191l.031.186.061.369c.087.488.186.962.3,1.418a22.075,22.075,0,0,0,.779,2.517l.107.281.053.138.057.135.22.523c.155.335.295.654.446.945.288.587.574,1.08.81,1.482s.439.707.581.912l.213.316-.157-.347c-.105-.225-.245-.561-.417-.989s-.36-.956-.541-1.569c-.1-.3-.18-.634-.273-.978l-.124-.534-.032-.137-.028-.14-.056-.284a20.951,20.951,0,0,1-.328-2.48c-.032-.441-.049-.894-.052-1.355v-.523c0-.058,0-.115.006-.173l.014-.346.007-.174c0-.059.008-.123.012-.184l.038-.562v-.012c0,.028,0,0,0,0l0-.022,0-.045.01-.09.038-.361.019-.181.025-.181.051-.363c.009-.061.016-.121.026-.182l.032-.182c.043-.242.081-.485.136-.727a20.24,20.24,0,0,1,.813-2.861l.063-.175.068-.173.136-.344c.043-.115.1-.227.145-.34l.147-.337c.105-.222.208-.443.316-.661l.167-.323c.056-.107.109-.215.17-.319a19.751,19.751,0,0,1,1.52-2.359,19.332,19.332,0,0,1,3.4-3.5C48.033,65.367,48.308,65.169,48.565,64.978ZM85.456,79.26h0l-.042-.379-.05-.455-.033-.292-.055-.388c-.039-.273-.083-.576-.134-.9l-.2-1c-.033-.178-.083-.358-.13-.544l-.148-.573c-.027-.1-.049-.2-.08-.3l-.093-.3-.194-.62-.05-.159-.058-.158-.118-.321c-.08-.215-.159-.435-.244-.657l-.283-.666-.145-.339c-.049-.114-.107-.225-.161-.338l-.333-.686c-.027-.058-.058-.115-.089-.171l-.093-.171-.188-.344-.19-.346c-.065-.115-.137-.227-.206-.342l-.423-.687A23.34,23.34,0,0,0,77.3,63.091a25.145,25.145,0,0,0-2.7-1.983A24.822,24.822,0,0,0,71.762,59.6l-.711-.295c-.118-.047-.233-.1-.351-.142l-.353-.126L70,58.914l-.172-.061c-.057-.021-.114-.041-.172-.058l-.685-.207c-.113-.033-.223-.07-.335-.1L68.3,58.4l-.651-.162c-.216-.045-.428-.085-.636-.127l-.308-.061-.152-.03L66.4,58l-.59-.086-.284-.041c-.093-.014-.187-.019-.279-.029l-.536-.05c-.173-.016-.341-.035-.505-.039l-.914-.039-.775.005-.33,0c-.1,0-.2.011-.291.016l-.458.027-.38.022.379.042.454.05c.089.01.185.02.287.033l.324.052.753.123.877.188c.156.03.315.076.479.12l.5.135c.086.024.174.044.261.073l.264.085.545.176.139.045.139.053.281.107c.189.072.382.144.576.22l.583.256.3.13c.1.044.2.1.3.145l.6.3c.051.024.1.052.15.08l.149.084.3.169.3.17c.1.058.2.123.3.185l.6.378a20.48,20.48,0,0,1,4.38,3.922,22.3,22.3,0,0,1,1.71,2.388,21.964,21.964,0,0,1,1.29,2.493l.249.624c.04.1.084.2.121.307l.106.309.1.3.052.151c.018.05.035.1.049.151l.173.6c.028.1.059.195.083.293l.069.292.135.569.1.555.05.269.025.132.017.132.068.514.033.247c.012.081.014.163.022.243l.038.466c.012.151.028.3.028.44l.025.8-.016.627-.005.266-.016.287-.027.457-.023.381a3.089,3.089,0,0,0,.012.483,2.869,2.869,0,0,0,5.7-.628ZM78.842,91.268l-.232.281c-.082.1-.164.2-.257.3-.184.208-.379.435-.6.665s-.459.473-.711.725-.531.5-.828.756a21.144,21.144,0,0,1-1.983,1.527,20.607,20.607,0,0,1-5.081,2.511c-.116.042-.235.076-.354.113l-.355.109c-.239.068-.479.131-.719.195l-.363.085c-.121.027-.241.06-.363.082l-.365.073-.182.036-.184.031a19.979,19.979,0,0,1-2.921.283c-.24.01-.48,0-.718,0h-.178c-.059,0-.114,0-.171-.007l-.337-.015-.167-.007L61.582,99l-.379-.026-.094-.006-.047,0-.024,0c.011,0-.04,0,.021,0h-.011l-.171-.019-.34-.037a19.378,19.378,0,0,1-2.549-.477,19.179,19.179,0,0,1-2.183-.7l-.244-.1-.12-.047-.117-.051-.452-.2c-.289-.139-.565-.263-.816-.4-.507-.256-.932-.511-1.278-.72l-.064-.038-.165-.108-.2-.128-.088-.057-.1-.065L52,95.7l-.316-.213a3.1,3.1,0,0,0-.422-.235,2.869,2.869,0,0,0-2.362,5.23l.348.157.19.086.113.051.143.062.318.137.175.075.091.039.091.036c.487.191,1.079.418,1.772.631.344.113.717.212,1.106.321l.6.148.155.037.158.033.322.067a23.82,23.82,0,0,0,2.814.4,23.555,23.555,0,0,0,3.139.048l.407-.025.2-.013h.013c.069,0,.026,0,.044,0l.023,0,.047,0,.094-.01.378-.038.19-.019.215-.026.43-.054c.071-.01.145-.017.214-.028l.207-.034c.276-.046.553-.087.829-.146A23.116,23.116,0,0,0,67,101.522l.2-.07.2-.076.4-.151c.132-.048.261-.107.39-.161l.388-.164c.255-.117.509-.232.76-.352l.372-.187c.123-.062.247-.123.368-.19a22.6,22.6,0,0,0,2.72-1.707,22.192,22.192,0,0,0,4.062-3.843c.26-.312.493-.623.715-.917s.419-.582.6-.858.342-.533.491-.772c.076-.119.141-.238.206-.349l.184-.32c.223-.41.394-.733.5-.959l.168-.342-.223.309c-.142.2-.365.492-.65.855Z"
        transform="translate(887.016 393.576)" fill="#f56c6c" />
    </g>
  </g>
</svg>