<svg xmlns="http://www.w3.org/2000/svg" width="300" height="50" viewBox="0 0 300 50">
  <g id="noticeBar" transform="translate(-14 -1122)">
    <rect id="矩形_80" data-name="矩形 80" width="300" height="50" transform="translate(14 1122)" fill="#f6f6f6" />
    <g id="notice" transform="translate(-61.646 1055.894)">
      <path id="路径_45" data-name="路径 45"
        d="M96.226,86.6v8.66h3.248l7.577,6.5V80.106l-7.578,6.5Zm4.187,1.1,5.195-4.4v15.32l-5.6-4.8H97.669V88.046h2.338Z"
        transform="translate(0)" fill="#8f8f8f" />
      <path id="路径_46" data-name="路径 46"
        d="M579.991,310.468a5.057,5.057,0,0,0-5.052-5.051v1.444a3.608,3.608,0,1,1,0,7.216v1.444A5.058,5.058,0,0,0,579.991,310.468Z"
        transform="translate(-467.665 -219.536)" fill="#8f8f8f" />
      <path id="路径_47" data-name="路径 47"
        d="M574.94,136.455V137.9a7.938,7.938,0,1,1,0,15.876v1.444a9.382,9.382,0,0,0,0-18.764Z"
        transform="translate(-468.096 -54.904)" fill="#8f8f8f" />
    </g>
    <path id="ARROW"
      d="M312.905,206.435a.612.612,0,0,0,.868,0l9.211-9.211a.613.613,0,0,0,0-.868l-9.211-9.211a.614.614,0,1,0-.868.868l8.777,8.777-8.777,8.777a.614.614,0,0,0,0,.868Z"
      transform="translate(-30.725 950.035)" fill="rgba(35,31,32,0.3)" />
    <text id="内容滚动..." transform="translate(99 1152)" fill="#8f8f8f" font-size="12"
      font-family="MicrosoftYaHei, Microsoft YaHei">
      <tspan x="-28.333" y="0">内容滚动...</tspan>
    </text>
  </g>
</svg>