<svg xmlns="http://www.w3.org/2000/svg" width="300" height="40" viewBox="0 0 300 40">
  <g id="password" transform="translate(-385 -208)">
    <g id="矩形_31" data-name="矩形 31" transform="translate(385 208)" fill="none" stroke="rgba(112,112,112,0.3)"
      stroke-width="1">
      <rect width="40" height="40" rx="3" stroke="none" />
      <rect x="0.5" y="0.5" width="39" height="39" rx="2.5" fill="none" />
    </g>
    <g id="矩形_36" data-name="矩形 36" transform="translate(541 208)" fill="none" stroke="rgba(112,112,112,0.3)"
      stroke-width="1">
      <rect width="40" height="40" rx="3" stroke="none" />
      <rect x="0.5" y="0.5" width="39" height="39" rx="2.5" fill="none" />
    </g>
    <g id="矩形_32" data-name="矩形 32" transform="translate(437 208)" fill="none" stroke="rgba(112,112,112,0.3)"
      stroke-width="1">
      <rect width="40" height="40" rx="3" stroke="none" />
      <rect x="0.5" y="0.5" width="39" height="39" rx="2.5" fill="none" />
    </g>
    <g id="矩形_35" data-name="矩形 35" transform="translate(593 208)" fill="none" stroke="rgba(112,112,112,0.3)"
      stroke-width="1">
      <rect width="40" height="40" rx="3" stroke="none" />
      <rect x="0.5" y="0.5" width="39" height="39" rx="2.5" fill="none" />
    </g>
    <g id="矩形_33" data-name="矩形 33" transform="translate(489 208)" fill="none" stroke="rgba(112,112,112,0.3)"
      stroke-width="1">
      <rect width="40" height="40" rx="3" stroke="none" />
      <rect x="0.5" y="0.5" width="39" height="39" rx="2.5" fill="none" />
    </g>
    <g id="矩形_34" data-name="矩形 34" transform="translate(645 208)" fill="none" stroke="rgba(112,112,112,0.3)"
      stroke-width="1">
      <rect width="40" height="40" rx="3" stroke="none" />
      <rect x="0.5" y="0.5" width="39" height="39" rx="2.5" fill="none" />
    </g>
  </g>
</svg>