<svg xmlns="http://www.w3.org/2000/svg" width="82" height="47" viewBox="0 0 82 47">
  <style>
    @keyframes rotate {
      0% {
        transform: rotate(0deg);
      }

      100% {
        transform: rotate(360deg);
      }
    }

    .demo {
      animation: rotate 1s linear forwards infinite;
      transform-origin: 1589.95px 805.75px;
    }
  </style>
  <g id="pullRefresh" transform="translate(-1566 -767)">
    <text id="释放即可刷新..." transform="translate(1607 780)" fill="#949494" font-size="12"
      font-family="MicrosoftYaHei, Microsoft YaHei">
      <tspan x="-40.333" y="0">释放即可刷新...</tspan>
    </text>
    <g id="组_61" data-name="组 61" transform="translate(-9.663)">
      <g class="demo">
        <g id="loading" transform="translate(658.153 347.741)">
          <path id="Loading-2" data-name="Loading"
            d="M41.43,59.809c.077-.053.149-.1.22-.149s.136-.085.2-.122c.03-.019.061-.035.089-.051l.082-.046.036-.019.034-.017.061-.031.027-.014.031-.015.054-.027.1-.049a.9.9,0,0,0,.121-.073.836.836,0,1,0-.979-1.357l-.09.065-.049.035-.029.021-.036.027-.081.06-.044.033-.046.035-.094.076c-.033.027-.067.054-.1.084-.069.06-.145.124-.222.2s-.158.15-.242.233-.168.174-.253.271a7,7,0,0,0-.512.651,6.845,6.845,0,0,0-.85,1.676c-.014.038-.026.078-.039.117l-.037.118c-.023.079-.045.159-.067.238l-.03.12c-.009.04-.021.08-.028.121l-.026.121-.013.061-.011.061a6.656,6.656,0,0,0-.105.972c0,.08,0,.16,0,.239v.059c0,.02,0,.039,0,.059l0,.118,0,.058,0,.058.007.116,0,.062.006.055.011.109c0,.018,0,.036.006.054l.007.057.015.113c0,.019,0,.037.008.056l.009.054.018.108c.025.142.054.28.087.413a6.434,6.434,0,0,0,.227.734l.031.082.015.04.016.039.064.152c.045.1.086.191.13.275.084.171.167.315.236.432s.128.206.169.266l.062.092-.046-.1c-.031-.065-.072-.164-.122-.288s-.1-.279-.158-.457c-.028-.089-.052-.185-.08-.285l-.036-.156-.009-.04-.008-.041-.016-.083a6.107,6.107,0,0,1-.1-.723c-.009-.129-.014-.26-.015-.4v-.152c0-.017,0-.034,0-.05l0-.1,0-.051c0-.017,0-.036,0-.054l.011-.164v0c0,.008,0,0,0,0v-.02l0-.026.011-.105.006-.053.007-.053.015-.106c0-.018,0-.035.008-.053l.009-.053c.013-.071.024-.141.04-.212a5.9,5.9,0,0,1,.237-.834l.018-.051.02-.05.04-.1c.013-.034.028-.066.042-.1l.043-.1c.031-.065.061-.129.092-.193l.049-.094c.016-.031.032-.063.05-.093a5.757,5.757,0,0,1,.443-.688,5.635,5.635,0,0,1,.99-1.021C41.275,59.923,41.355,59.865,41.43,59.809Zm10.753,4.163h0l-.012-.11-.015-.133-.01-.085-.016-.113c-.012-.08-.024-.168-.039-.263l-.059-.29c-.01-.052-.024-.1-.038-.159l-.043-.167c-.008-.028-.014-.058-.023-.086l-.027-.088-.057-.181-.015-.046-.017-.046-.034-.094c-.023-.063-.046-.127-.071-.191l-.082-.194-.042-.1c-.014-.033-.031-.066-.047-.1l-.1-.2c-.008-.017-.017-.033-.026-.05l-.027-.05-.055-.1-.055-.1c-.019-.034-.04-.066-.06-.1l-.123-.2a6.8,6.8,0,0,0-1.286-1.468,7.328,7.328,0,0,0-.788-.578,7.235,7.235,0,0,0-.826-.439l-.207-.086c-.034-.014-.068-.029-.1-.041l-.1-.037-.1-.036-.05-.018-.05-.017-.2-.06c-.033-.01-.065-.02-.1-.029l-.1-.024-.19-.047-.185-.037-.09-.018-.044-.009-.044-.006-.172-.025-.083-.012c-.027,0-.055-.006-.081-.008l-.156-.015c-.051,0-.1-.01-.147-.011l-.266-.011-.226,0h-.1l-.085,0-.134.008-.111.007.111.012.132.015.084.009.094.015.219.036.255.055c.046.009.092.022.14.035l.147.039c.025.007.051.013.076.021l.077.025.159.051.041.013.04.015.082.031.168.064.17.075.087.038c.029.013.057.028.086.042l.175.087.044.023.043.024.088.049.088.05c.029.017.058.036.087.054l.175.11a5.969,5.969,0,0,1,1.277,1.143,6.5,6.5,0,0,1,.5.7,6.4,6.4,0,0,1,.376.727l.073.182c.012.03.025.059.035.09l.031.09.031.089.015.044c.005.015.01.029.014.044l.05.175c.008.029.017.057.024.085l.02.085.039.166.03.162.015.078.007.039.005.039.02.15.01.072c0,.024,0,.048.006.071l.011.136c0,.044.008.086.008.128l.007.232,0,.183,0,.077,0,.084-.008.133-.007.111a.9.9,0,0,0,0,.141.836.836,0,0,0,1.663-.183Zm-1.928,3.5-.068.082c-.024.029-.048.059-.075.089-.054.061-.11.127-.175.194s-.134.138-.207.211-.155.147-.241.22a6.162,6.162,0,0,1-.578.445,6.007,6.007,0,0,1-1.481.732c-.034.012-.069.022-.1.033l-.1.032-.209.057-.106.025c-.035.008-.07.017-.106.024l-.106.021-.053.011-.053.009a5.824,5.824,0,0,1-.852.082c-.07,0-.14,0-.209,0h-.052l-.05,0-.1,0-.049,0-.056,0-.111-.007-.028,0h-.018l-.05-.006-.1-.011a5.648,5.648,0,0,1-.743-.139,5.591,5.591,0,0,1-.636-.205l-.071-.028-.035-.014L43.4,69.3l-.132-.057c-.084-.041-.165-.077-.238-.116-.148-.075-.272-.149-.373-.21l-.019-.011-.048-.032-.057-.037-.026-.017L42.48,68.8l-.05-.034-.092-.062a.9.9,0,0,0-.123-.069.836.836,0,0,0-.689,1.525l.1.046.055.025.033.015.042.018.093.04.051.022.027.011.026.01c.142.056.315.122.517.184.1.033.209.062.322.093l.176.043.045.011.046.01.094.02a6.943,6.943,0,0,0,.82.117,6.865,6.865,0,0,0,.915.014l.119-.007.06,0H45.1l.027,0,.11-.011L45.3,70.8l.063-.008.125-.016.062-.008.06-.01c.08-.013.161-.025.242-.043a6.738,6.738,0,0,0,.954-.26l.058-.02.058-.022.115-.044c.038-.014.076-.031.114-.047l.113-.048c.074-.034.148-.068.221-.1l.108-.054c.036-.018.072-.036.107-.055a6.588,6.588,0,0,0,.793-.5,6.468,6.468,0,0,0,1.184-1.12c.076-.091.144-.182.208-.267s.122-.17.174-.25.1-.155.143-.225c.022-.035.041-.069.06-.1l.054-.093c.065-.12.115-.214.146-.279l.049-.1-.065.09c-.041.059-.106.143-.189.249Z"
            transform="translate(887.016 393.576)" fill="#949494" />
        </g>
      </g>
      <text id="加载中..." transform="translate(1627 811)" fill="#949494" font-size="12"
        font-family="MicrosoftYaHei, Microsoft YaHei">
        <tspan x="-22.333" y="0">加载中...</tspan>
      </text>
    </g>
  </g>
</svg>