<svg xmlns="http://www.w3.org/2000/svg" width="263" height="40" viewBox="0 0 263 40">
  <g id="rate" transform="translate(-370 -285)">
    <path id="star"
      d="M106.033,94.881a2.9,2.9,0,0,0-2.3-1.951l-10.407-1.6L88.8,81.639a2.882,2.882,0,0,0-5.23,0l-4.525,9.693-10.409,1.6a2.908,2.908,0,0,0-1.63,4.9l7.626,7.863-1.77,10.9a2.918,2.918,0,0,0,1.187,2.843,2.877,2.877,0,0,0,3.061.169l9.073-5.043,9.077,5.043a2.877,2.877,0,0,0,3.061-.169,2.915,2.915,0,0,0,1.183-2.844l-1.768-10.9,7.631-7.863A2.921,2.921,0,0,0,106.033,94.881Zm-9.85,8.728-1.271,1.309.294,1.827,1.768,10.881-9.142-5.076-1.652-.919-1.653.919-9.144,5.077,1.768-10.883.3-1.827-1.271-1.309-7.564-7.79,10.375-1.59,1.826-.28.8-1.715,4.565-9.77,4.564,9.77.8,1.715,1.824.28,10.375,1.59Z"
      transform="translate(471.819 205.032)" fill="rgba(0,0,0,0.3)" />
    <path id="star-2" data-name="star"
      d="M106.033,94.881a2.9,2.9,0,0,0-2.3-1.951l-10.407-1.6L88.8,81.639a2.882,2.882,0,0,0-5.23,0l-4.525,9.693-10.409,1.6a2.908,2.908,0,0,0-1.63,4.9l7.626,7.863-1.77,10.9a2.918,2.918,0,0,0,1.187,2.843,2.877,2.877,0,0,0,3.061.169l9.073-5.043,9.077,5.043a2.877,2.877,0,0,0,3.061-.169,2.915,2.915,0,0,0,1.183-2.844l-1.768-10.9,7.631-7.863A2.921,2.921,0,0,0,106.033,94.881Zm-9.85,8.728-1.271,1.309.294,1.827,1.768,10.881-9.142-5.076-1.652-.919-1.653.919-9.144,5.077,1.768-10.883.3-1.827-1.271-1.309-7.564-7.79,10.375-1.59,1.826-.28.8-1.715,4.565-9.77,4.564,9.77.8,1.715,1.824.28,10.375,1.59Z"
      transform="translate(526.819 205.032)" fill="rgba(0,0,0,0.3)" />
    <path id="star_1_" data-name="star (1)"
      d="M76.571,33.787A1.853,1.853,0,0,1,75.946,35L67.22,43.919l2.067,12.6a3.993,3.993,0,0,1,.024.5,1.536,1.536,0,0,1-.252.895.835.835,0,0,1-.733.365,1.879,1.879,0,0,1-.962-.3L56.571,52.035,45.778,57.983a1.973,1.973,0,0,1-.962.3.859.859,0,0,1-.757-.365,1.537,1.537,0,0,1-.252-.895,4.285,4.285,0,0,1,.048-.5l2.067-12.6L37.172,35a1.956,1.956,0,0,1-.6-1.21q0-.933,1.346-1.159l12.067-1.84,5.409-11.468q.457-1.033,1.178-1.033t1.178,1.033l5.409,11.468,12.067,1.84q1.346.227,1.346,1.159Z"
      transform="translate(333.429 266.714)" fill="#fed835" />
    <path id="star_1_2" data-name="star (1)"
      d="M76.571,33.787A1.853,1.853,0,0,1,75.946,35L67.22,43.919l2.067,12.6a3.993,3.993,0,0,1,.024.5,1.536,1.536,0,0,1-.252.895.835.835,0,0,1-.733.365,1.879,1.879,0,0,1-.962-.3L56.571,52.035,45.778,57.983a1.973,1.973,0,0,1-.962.3.859.859,0,0,1-.757-.365,1.537,1.537,0,0,1-.252-.895,4.285,4.285,0,0,1,.048-.5l2.067-12.6L37.172,35a1.956,1.956,0,0,1-.6-1.21q0-.933,1.346-1.159l12.067-1.84,5.409-11.468q.457-1.033,1.178-1.033t1.178,1.033l5.409,11.468,12.067,1.84q1.346.227,1.346,1.159Z"
      transform="translate(389.429 266.714)" fill="#fed835" />
    <path id="star_1_3" data-name="star (1)"
      d="M76.571,33.787A1.853,1.853,0,0,1,75.946,35L67.22,43.919l2.067,12.6a3.993,3.993,0,0,1,.024.5,1.536,1.536,0,0,1-.252.895.835.835,0,0,1-.733.365,1.879,1.879,0,0,1-.962-.3L56.571,52.035,45.778,57.983a1.973,1.973,0,0,1-.962.3.859.859,0,0,1-.757-.365,1.537,1.537,0,0,1-.252-.895,4.285,4.285,0,0,1,.048-.5l2.067-12.6L37.172,35a1.956,1.956,0,0,1-.6-1.21q0-.933,1.346-1.159l12.067-1.84,5.409-11.468q.457-1.033,1.178-1.033t1.178,1.033l5.409,11.468,12.067,1.84q1.346.227,1.346,1.159Z"
      transform="translate(445.429 266.714)" fill="#fed835" />
  </g>
</svg>