<svg t="1736145023356" class="icon" viewBox="0 0 1024 1024" version="1.1" xmlns="http://www.w3.org/2000/svg" p-id="2539" width="60" height="60">
  <path
    d="M981.333333 789.333333h-106.666666V256c0-59.733333-46.933333-106.666667-106.666667-106.666667H234.666667V42.666667c0-25.6-17.066667-42.666667-42.666667-42.666667s-42.666667 17.066667-42.666667 42.666667v106.666666H42.666667c-25.6 0-42.666667 17.066667-42.666667 42.666667s17.066667 42.666667 42.666667 42.666667h106.666666V768c0 59.733333 46.933333 106.666667 106.666667 106.666667h533.333333V981.333333c0 25.6 17.066667 42.666667 42.666667 42.666667s42.666667-17.066667 42.666667-42.666667v-106.666666H981.333333c25.6 0 42.666667-17.066667 42.666667-42.666667s-17.066667-42.666667-42.666667-42.666667z m-213.333333-554.666666c12.8 0 21.333333 8.533333 21.333333 21.333333v341.333333l-145.066666-140.8c-17.066667-17.066667-42.666667-17.066667-59.733334 0l-140.8 145.066667L384 541.866667c-17.066667-17.066667-38.4-17.066667-55.466667-4.266667l-89.6 72.533333V234.666667H768z m-512 554.666666c-12.8 0-21.333333-8.533333-21.333333-21.333333v-42.666667l115.2-93.866666 64 64c8.533333 8.533333 17.066667 12.8 29.866666 12.8s21.333333-4.266667 29.866667-12.8l140.8-145.066667 174.933333 166.4v72.533333H256z"
    p-id="2540"
    fill="#67c23a"
  ></path>
  <path
    d="M384 482.133333c51.2 0 93.866667-42.666667 93.866667-93.866666s-42.666667-93.866667-93.866667-93.866667-93.866667 38.4-93.866667 89.6 42.666667 98.133333 93.866667 98.133333z m0-128c17.066667 0 34.133333 12.8 34.133333 34.133334s-17.066667 29.866667-34.133333 29.866666-34.133333-17.066667-34.133333-34.133333 17.066667-29.866667 34.133333-29.866667z"
    p-id="2541"
    fill="#67c23a"
  ></path>
</svg>
