<svg xmlns="http://www.w3.org/2000/svg" width="410" height="130" viewBox="0 0 410 130">
  <g id="upload" transform="translate(-1480 -188)">
    <g id="组_32" data-name="组 32">
      <rect id="矩形_44" data-name="矩形 44" width="120" height="120" rx="10" transform="translate(1770 198)"
        fill="#f0f0f0" />
      <g id="相机" transform="translate(1808 239)">
        <path id="路径_13" data-name="路径 13"
          d="M52.279,96.852a3.388,3.388,0,0,0-2.5-1.026H46.693l-.707-1.862a2.743,2.743,0,0,0-.962-1.155,2.542,2.542,0,0,0-1.412-.514H36.55a2.382,2.382,0,0,0-1.412.514,2.737,2.737,0,0,0-.962,1.155L33.4,95.826H30.259a3.5,3.5,0,0,0-3.529,3.531v12.391a3.5,3.5,0,0,0,3.529,3.531H49.774a3.5,3.5,0,0,0,3.529-3.531V99.357a3.378,3.378,0,0,0-1.024-2.5ZM40.016,111.17a5.843,5.843,0,1,1,5.843-5.843A5.864,5.864,0,0,1,40.016,111.17Zm0,0"
          transform="translate(-17.879 -84.639)" fill="rgba(0,0,0,0.2)" />
        <path id="路径_14" data-name="路径 14"
          d="M372.824,427.607a3.917,3.917,0,1,0,3.917,3.917A3.891,3.891,0,0,0,372.824,427.607Zm0,0"
          transform="translate(-350.687 -410.77)" fill="rgba(0,0,0,0.2)" />
      </g>
    </g>
    <g id="组_30" data-name="组 30">
      <rect id="矩形_43" data-name="矩形 43" width="120" height="120" rx="10" transform="translate(1480 198)"
        fill="#409eff" />
      <circle id="椭圆_2" data-name="椭圆 2" cx="13.5" cy="13.5" r="13.5" transform="translate(1583 188)" fill="#fff" />
      <path id="close"
        d="M10.764,9.5,8.48,7.212A.9.9,0,0,0,7.212,8.48L9.5,10.764,7.212,13.049A.9.9,0,0,0,8.48,14.317l2.284-2.284,2.284,2.284a.9.9,0,0,0,1.269-1.269l-2.284-2.284L14.317,8.48a.9.9,0,0,0-1.269-1.269Zm0,12.033A10.764,10.764,0,1,1,21.529,10.764,10.776,10.776,0,0,1,10.764,21.529Zm0-19.735a8.97,8.97,0,1,0,8.97,8.97A8.981,8.981,0,0,0,10.764,1.794Z"
        transform="translate(1585.236 190.736)" fill="rgba(0,0,0,0.3)" />
      <text id="_1" data-name="1" transform="translate(1540 282)" fill="#fff" font-size="60"
        font-family="MicrosoftYaHei, Microsoft YaHei">
        <tspan x="-17.593" y="0">1</tspan>
      </text>
    </g>
    <g id="组_31" data-name="组 31" transform="translate(145)">
      <path id="路径_15" data-name="路径 15"
        d="M10,0H110a10,10,0,0,1,10,10V110a10,10,0,0,1-10,10H10A10,10,0,0,1,0,110V10A10,10,0,0,1,10,0Z"
        transform="translate(1480 198)" fill="#67c23a" />
      <circle id="椭圆_2-2" data-name="椭圆 2" cx="13.5" cy="13.5" r="13.5" transform="translate(1583 188)" fill="#fff" />
      <path id="close-2" data-name="close"
        d="M10.764,9.5,8.48,7.212A.9.9,0,0,0,7.212,8.48L9.5,10.764,7.212,13.049A.9.9,0,0,0,8.48,14.317l2.284-2.284,2.284,2.284a.9.9,0,0,0,1.269-1.269l-2.284-2.284L14.317,8.48a.9.9,0,0,0-1.269-1.269Zm0,12.033A10.764,10.764,0,1,1,21.529,10.764,10.776,10.776,0,0,1,10.764,21.529Zm0-19.735a8.97,8.97,0,1,0,8.97,8.97A8.981,8.981,0,0,0,10.764,1.794Z"
        transform="translate(1585.236 190.736)" fill="rgba(0,0,0,0.3)" />
      <text id="_2" data-name="2" transform="translate(1540 282)" fill="#fff" font-size="60"
        font-family="MicrosoftYaHei, Microsoft YaHei">
        <tspan x="-17.593" y="0">2</tspan>
      </text>
    </g>
  </g>
</svg>