<?xml version="1.0" encoding="utf-8"?>
<!-- Generator: Adobe Illustrator 23.0.0, SVG Export Plug-In . SVG Version: 6.00 Build 0)  -->
<svg version="1.1" id="图层_1" xmlns="http://www.w3.org/2000/svg" xmlns:xlink="http://www.w3.org/1999/xlink" x="0px" y="0px"
	 viewBox="0 0 725 462" style="enable-background:new 0 0 725 462;" xml:space="preserve">
<style type="text/css">
	.st0{fill:url(#SVGID_1_);}
	.st1{fill:url(#SVGID_2_);}
</style>
<g>
	<linearGradient id="SVGID_1_" gradientUnits="userSpaceOnUse" x1="-29.0064" y1="121.0163" x2="701.717" y2="490.2078">
		<stop  offset="0" style="stop-color:#FF0000"/>
		<stop  offset="0" style="stop-color:#8AF2BA"/>
		<stop  offset="0.25" style="stop-color:#4CCCE7"/>
		<stop  offset="0.5" style="stop-color:#4FABF9"/>
		<stop  offset="0.75" style="stop-color:#46A5F8"/>
		<stop  offset="1" style="stop-color:#1E57F5"/>
	</linearGradient>
	<path class="st0" d="M382.12,241.21c0,57.16,0,114.32,0,171.48c0,1.67,0.01,3.33-0.07,5c-0.16,3.39-1.95,5.29-5.36,5.29
		c-17.66,0.03-35.33,0.06-52.99-0.06c-4.59-0.03-7.22-2.39-7.92-7.26c-0.95-6.65-0.91-13.31-0.66-19.95
		c1.66-44.14,0.38-88.3,0.7-132.45c0.2-27.83,0.1-55.66-0.02-83.49c-0.05-11.32-0.59-22.64-0.72-33.96
		c-0.04-3.76-1.22-4.35-4.43-2.65c-13.64,7.23-46.9,15.43-48.63,16.02c-17.91,6.11-74.4,6.13-84.06,5.91
		c-25.6-0.58-50.02-6.9-73.89-15.65c-5.59-2.05-10.88-4.91-16.43-7.1c-4.62-1.83-6.54-0.49-6.62,4.54
		c-0.15,9.49-0.09,18.98-0.09,28.46c0.04,79.16,0.09,158.32,0.14,237.47c0.01,9.28-1,10.25-10.36,10.22
		c-16.5-0.05-33-0.07-49.49-0.12c-6.13-0.02-7.27-1.14-7.16-7.37c1.89-107.64,0.3-215.28,0.85-322.92
		c0.04-7.81-0.81-15.63-0.77-23.44C14.22,51.69,35,22,78.8,46.59c7.67,5.87,14.98,12.31,23.15,17.38c5,3.1,10.21,6.04,15.38,8.96
		c6.48,3.65,13.05,7.28,19.93,10.03c10.98,4.39,22.4,7.79,34.33,7.87c20.63,0.13,41.32,1.26,61.86-1.88c2.3-0.35,4.74-0.45,6.85-1.3
		c18.81-7.58,38.45-13.34,55.24-25.35c8.81-6.3,17.85-12.26,26.66-18.56C357,26,377.53,49.36,380.17,56.95
		c1.5,4.3,1.95,8.74,1.95,13.28c-0.03,56.99-0.02,113.99-0.02,170.98C382.11,241.21,382.12,241.21,382.12,241.21z"/>
	<linearGradient id="SVGID_2_" gradientUnits="userSpaceOnUse" x1="47.9722" y1="-31.3439" x2="778.6956" y2="337.8476">
		<stop  offset="0" style="stop-color:#FF0000"/>
		<stop  offset="0" style="stop-color:#8AF2BA"/>
		<stop  offset="0.25" style="stop-color:#4CCCE7"/>
		<stop  offset="0.5" style="stop-color:#4FABF9"/>
		<stop  offset="0.75" style="stop-color:#46A5F8"/>
		<stop  offset="1" style="stop-color:#1E57F5"/>
	</linearGradient>
	<path class="st1" d="M574.51,427.05c-35,0-69.99-0.27-104.98,0.12C414,425,414,390,413.32,384.65c0.52-3.99,0.59-7.97,0.59-11.96
		c-0.01-88.66,0.01-177.31-0.09-265.96c-0.01-9.3-0.95-18.55-0.12-27.92c0.73-8.25,4.31-39.8,54.42-40.55
		c22.65-0.18,45.31,1.05,67.94,0.48c46.82-1.18,93.63-0.2,140.44-0.68c3.32-0.03,6.64,0.47,9.96,0.48
		c14.28,0.03,28.92,18.39,26.99,32.98c-0.87,6.61-3.15,12.21-8.11,16.63c-9.45,8.42-20.4,12.89-33.21,12.88
		c-60.66-0.05-121.32,0-181.98,0.01c-8.6,0-9.99,1.28-10.01,9.7c-0.04,17.66-0.12,35.33,0.02,52.99c0.06,6.97,0.25,13.94,0.03,20.92
		c-0.2,6.45,1.99,8.41,8.34,8.4c50.83-0.05,101.65,0.04,152.47-0.38c7.91-0.07,13.28,4.33,18.91,7.97
		c16.22,10.48,20.18,19.82,15.96,38.51c-2.27,10.04-10.44,15.72-18.64,20.56c-10.12,5.97-20.88,8.95-33.19,8.74
		c-42.32-0.71-84.65-0.31-126.98-0.27c-2.31,0-4.63,0.48-6.93,0.85c-6.22,0.99-8.5,3.7-9.14,9.91c-1.24,11.97-0.89,23.96-0.92,35.95
		c-0.03,13.8,0.01,27.61-0.01,41.41c-0.01,5.5,2.51,8.28,8.11,8.59c2.49,0.14,5,0.01,7.5,0.01c55.16-0.02,110.32-0.03,165.48-0.06
		c48.85,0,49.78,14.45,51.23,22.91c0.83,4.81,1.14,9.63,0.5,14.43c-2.04,15.33-12.73,24.68-28.9,24.84
		c-22.66,0.22-45.33,0.07-67.99,0.07c-13.83,0-27.66,0-41.49,0C574.51,427.07,574.51,427.06,574.51,427.05z"/>
</g>
</svg>
