<?xml version="1.0" encoding="utf-8"?>
<!-- Generator: Adobe Illustrator 26.3.1, SVG Export Plug-In . SVG Version: 6.00 Build 0)  -->
<!DOCTYPE svg PUBLIC "-//W3C//DTD SVG 1.1//EN" "http://www.w3.org/Graphics/SVG/1.1/DTD/svg11.dtd" [
	<!ENTITY st0 "fill:none;">
	<!ENTITY st1 "fill:url(#SVGID_1_);">
	<!ENTITY st2 "fill:url(#SVGID_00000023283132129148561790000014000314516814841261_);">
]>
<svg version="1.1" id="图层_1" xmlns="http://www.w3.org/2000/svg" xmlns:xlink="http://www.w3.org/1999/xlink" x="0px" y="0px"
	 width="156px" height="156px" viewBox="0 0 156 156" style="enable-background:new 0 0 156 156;" xml:space="preserve">
<rect x="1.6" y="1.6" style="&st0;" width="156" height="156"/>
<g>
	
		<linearGradient id="SVGID_1_" gradientUnits="userSpaceOnUse" x1="-3.0689" y1="1440.0645" x2="150.6372" y2="1517.723" gradientTransform="matrix(1 0 0 1 0 -1384)">
		<stop  offset="0" style="stop-color:#FF0000"/>
		<stop  offset="0" style="stop-color:#8AF2BA"/>
		<stop  offset="0.25" style="stop-color:#4CCCE7"/>
		<stop  offset="0.5" style="stop-color:#4FABF9"/>
		<stop  offset="0.75" style="stop-color:#46A5F8"/>
		<stop  offset="1" style="stop-color:#1E57F5"/>
	</linearGradient>
	<path style="&st1;" d="M83.4,81.4c0,12.1,0,24,0,36.1c0,0.3,0,0.7,0,1c0,0.7-0.4,1.1-1.1,1.1c-3.7,0-7.4,0-11.1,0
		c-0.9,0-1.6-0.5-1.7-1.6c-0.2-1.4-0.2-2.8-0.1-4.2c0.3-9.3,0.1-18.6,0.1-27.9c0-5.8,0-11.8,0-17.6c0-2.4-0.1-4.8-0.1-7.2
		c0-0.8-0.2-0.9-0.9-0.5c-2.9,1.6-9.9,3.2-10.2,3.3c-3.7,1.2-15.6,1.2-17.7,1.2C35.1,65.3,30,64,25,62.1c-1.1-0.4-2.3-1-3.4-1.5
		c-0.9-0.4-1.4-0.1-1.4,0.9c0,2,0,4,0,6c0,16.6,0,33.3,0,49.9c0,2-0.2,2.2-2.2,2.2c-3.4,0-7,0-10.4,0c-1.2,0-1.6-0.2-1.5-1.6
		c0.4-22.7,0.1-45.2,0.2-67.9c0-1.7-0.2-3.3-0.2-4.9c0-3.6,4.4-9.9,13.6-4.8c1.7,1.2,3.1,2.6,4.9,3.6c1,0.6,2.2,1.2,3.2,1.9
		c1.4,0.7,2.7,1.6,4.2,2.1c2.3,0.9,4.7,1.7,7.2,1.7c4.4,0,8.7,0.3,13-0.4c0.5-0.1,1-0.1,1.5-0.3c4-1.6,8.1-2.8,11.6-5.3
		c1.9-1.4,3.7-2.6,5.6-4c7.3-3.7,11.6,1.1,12.2,2.8c0.3,0.9,0.4,1.9,0.4,2.8C83.4,57.5,83.4,69.5,83.4,81.4L83.4,81.4z"/>
	
		<linearGradient id="SVGID_00000147179657433584452770000007304711201380685972_" gradientUnits="userSpaceOnUse" x1="13.0531" y1="1408.155" x2="166.759" y2="1485.8136" gradientTransform="matrix(1 0 0 1 0 -1384)">
		<stop  offset="0" style="stop-color:#FF0000"/>
		<stop  offset="0" style="stop-color:#8AF2BA"/>
		<stop  offset="0.25" style="stop-color:#4CCCE7"/>
		<stop  offset="0.5" style="stop-color:#4FABF9"/>
		<stop  offset="0.75" style="stop-color:#46A5F8"/>
		<stop  offset="1" style="stop-color:#1E57F5"/>
	</linearGradient>
	<path style="fill:url(#SVGID_00000147179657433584452770000007304711201380685972_);" d="M123.8,120.5c-7.4,0-14.8-0.1-22,0
		c-11.6-0.4-11.6-7.8-11.9-8.9c0.1-0.8,0.1-1.7,0.1-2.5c0-18.6,0-37.3,0-56c0-2-0.2-4,0-5.8c0.1-1.8,0.9-8.3,11.4-8.5
		c4.8,0,9.6,0.2,14.2,0.1c9.9-0.2,19.7,0,29.5-0.1c0.7,0,1.4,0.1,2.1,0.1c3,0,6,3.8,5.7,7c-0.2,1.4-0.6,2.6-1.7,3.5
		c-2,1.8-4.3,2.7-7,2.7c-12.8,0-25.5,0-38.3,0c-1.8,0-2.1,0.3-2.1,2.1c0,3.7,0,7.4,0,11.1c0,1.5,0.1,2.9,0,4.4
		c0,1.4,0.4,1.8,1.8,1.8c10.7,0,21.4,0,32-0.1c1.7,0,2.8,0.9,4,1.7c3.4,2.2,4.3,4.2,3.3,8.1c-0.5,2.1-2.2,3.3-4,4.4
		c-2.1,1.2-4.4,1.9-7,1.9c-8.9-0.1-17.8-0.1-26.7-0.1c-0.5,0-0.9,0.1-1.5,0.2c-1.4,0.2-1.8,0.7-1.9,2.1c-0.3,2.5-0.2,5-0.2,7.6
		c0,2.9,0,5.8,0,8.7c0,1.1,0.5,1.8,1.7,1.8c0.5,0,1,0,1.6,0c11.6,0,23.2,0,34.8,0c10.3,0,10.5,3,10.8,4.8c0.2,1,0.2,2,0.1,3
		c-0.4,3.2-2.7,5.2-6,5.2c-4.8,0-9.6,0-14.4,0C129.6,120.5,126.7,120.5,123.8,120.5L123.8,120.5z"/>
</g>
</svg>
